<?xml version="1.0" standalone="no"?>
<!DOCTYPE svg PUBLIC "-//W3C//DTD SVG 1.1//EN" "http://www.w3.org/Graphics/SVG/1.1/DTD/svg11.dtd" >
<svg xmlns="http://www.w3.org/2000/svg" xmlns:xlink="http://www.w3.org/1999/xlink" version="1.1">
<metadata>
Created by FontForge 20200427 at Mon Oct 13 18:55:05 2014
 By www
Copyright (c) 2008 by Jos Buivenga. All rights reserved.
</metadata>
<defs>
<font id="AniversW03-SCRegular" horiz-adv-x="550" >
  <font-face 
    font-family="AniversW03-SCRegular"
    font-weight="400"
    font-stretch="normal"
    units-per-em="1000"
    panose-1="2 0 0 0 0 0 0 0 0 0"
    ascent="800"
    descent="-200"
    x-height="536"
    cap-height="681"
    bbox="-99 -231 1297 877"
    underline-thickness="50"
    underline-position="-125"
    unicode-range="U+0020-FB04"
  />
<missing-glyph horiz-adv-x="274" 
 />
    <glyph glyph-name="uniFB00" unicode="ff" horiz-adv-x="878" 
d="M87 531l5 5h295l5 -5v-64l-5 -5h-218v-151h207l4 -5l-18 -64l-6 -5h-187v-232l-5 -5h-72l-5 5v526zM526 531l5 5h295l5 -5v-64l-5 -5h-218v-151h207l4 -5l-18 -64l-6 -5h-187v-232l-5 -5h-72l-5 5v526z" />
    <glyph glyph-name="uniFB01" unicode="fi" horiz-adv-x="696" 
d="M87 531l5 5h295l5 -5v-64l-5 -5h-218v-151h207l4 -5l-18 -64l-6 -5h-187v-232l-5 -5h-72l-5 5v526zM526 527l5 6l72 10l5 -5v-533l-5 -5h-72l-5 5v522z" />
    <glyph glyph-name="uniFB02" unicode="fl" horiz-adv-x="873" 
d="M87 531l5 5h295l5 -5v-64l-5 -5h-218v-151h207l4 -5l-18 -64l-6 -5h-187v-232l-5 -5h-72l-5 5v526zM526 527l5 8l72 8l5 -6v-463h245l5 -5l-18 -64l-5 -5h-304l-5 5v522z" />
    <glyph glyph-name="uniFB03" unicode="ffi" horiz-adv-x="1135" 
d="M87 531l5 5h295l5 -5v-64l-5 -5h-218v-151h207l4 -5l-18 -64l-6 -5h-187v-232l-5 -5h-72l-5 5v526zM526 531l5 5h295l5 -5v-64l-5 -5h-218v-151h207l4 -5l-18 -64l-6 -5h-187v-232l-5 -5h-72l-5 5v526zM965 527l5 6l72 10l5 -5v-533l-5 -5h-72l-5 5v522z" />
    <glyph glyph-name="uniFB04" unicode="ffl" horiz-adv-x="1312" 
d="M87 531l5 5h295l5 -5v-64l-5 -5h-218v-151h207l4 -5l-18 -64l-6 -5h-187v-232l-5 -5h-72l-5 5v526zM526 531l5 5h295l5 -5v-64l-5 -5h-218v-151h207l4 -5l-18 -64l-6 -5h-187v-232l-5 -5h-72l-5 5v526zM965 527l5 8l72 8l5 -6v-463h245l5 -5l-18 -64l-5 -5h-304l-5 5v522
z" />
    <glyph glyph-name="f_j.liga" unicode="fj" horiz-adv-x="747" 
d="M87 531l5 5h295l5 -5v-64l-5 -5h-218v-151h207l4 -5l-18 -64l-6 -5h-187v-232l-5 -5h-72l-5 5v526zM412 26l29 58l8 1q8 -7 18 -12q8 -5 19.5 -8t25.5 -3q10 0 22 4t22.5 13.5t17.5 25t7 38.5v384l5 6l72 10l5 -5v-401q0 -69 -40.5 -109t-106.5 -40q-31 0 -57 8.5
t-46 22.5z" />
    <glyph glyph-name=".notdef" horiz-adv-x="274" 
 />
    <glyph glyph-name=".null" horiz-adv-x="0" 
 />
    <glyph glyph-name="nonmarkingreturn" horiz-adv-x="333" 
 />
    <glyph glyph-name="space" unicode=" " horiz-adv-x="279" 
 />
    <glyph glyph-name="exclam" unicode="!" horiz-adv-x="303" 
d="M120 191l-19 471l5 6l88 12l6 -4l-17 -485l-5 -5h-53zM102 96l5 5h89l5 -5v-91l-5 -5h-89l-5 5v91z" />
    <glyph glyph-name="quotedbl" unicode="&#x22;" horiz-adv-x="371" 
d="M229 501l-11 169l5 5h78l5 -5l-10 -169l-5 -5h-57zM75 501l-11 169l5 5h78l5 -5l-10 -169l-5 -5h-57z" />
    <glyph glyph-name="numbersign" unicode="#" horiz-adv-x="687" 
d="M160 179h-102l-5 5v59l5 5h115l33 177h-99l-5 5v59l5 5h112l32 171l6 6l64 10l6 -5l-34 -182h151l32 171l6 6l64 10l6 -5l-34 -182h121l4 -5l-17 -59l-7 -5h-114l-33 -177h118l4 -5l-17 -59l-7 -5h-111l-32 -174l-6 -5h-64l-4 5l32 174h-151l-32 -174l-6 -5h-64l-4 5z
M398 248l33 177h-151l-33 -177h151z" />
    <glyph glyph-name="dollar" unicode="$" horiz-adv-x="508" 
d="M59 52l34 53l8 1q14 -10 33 -19q17 -8 40 -14.5t53 -7.5v177q-29 10 -56.5 21.5t-49 28.5t-35 41.5t-13.5 60.5q0 31 12.5 55.5t33.5 42.5t49 29.5t59 16.5v67l5 6l48 7l5 -4v-74q30 -2 55.5 -7t44 -11.5t30.5 -12.5t15 -8l1 -5l-31 -55l-7 -1q-17 11 -46.5 18.5
t-61.5 9.5v-164q29 -10 57.5 -22t51.5 -30.5t37 -44.5t14 -64q0 -36 -14 -62t-36.5 -43.5t-51 -27t-58.5 -13.5v-70l-5 -5h-48l-5 5v66q-39 2 -85.5 16t-80.5 38zM227 465q-35 -6 -54.5 -23t-19.5 -46q0 -28 21 -44t53 -28v141zM285 68q33 5 56.5 21t23.5 54q0 31 -23 48.5
t-57 30.5v-154z" />
    <glyph glyph-name="percent" unicode="%" horiz-adv-x="720" 
d="M185 365q-52 0 -85.5 27t-33.5 80v102q0 53 33.5 80.5t85.5 27.5t85 -27.5t33 -80.5v-102q0 -53 -33 -80t-85 -27zM572 679l7 2l62 -19l2 -5l-490 -655l-6 -2h-77l-2 5zM185 423q28 0 43.5 15t15.5 45v82q0 29 -15.5 43.5t-43.5 14.5q-29 0 -44.5 -14.5t-15.5 -43.5v-82
q0 -30 15.5 -45t44.5 -15zM419 198q0 54 33.5 81t85.5 27t86 -27t34 -81v-101q0 -53 -34 -81t-86 -28t-85.5 28t-33.5 81v101zM478 105q0 -29 15.5 -43.5t44.5 -14.5q28 0 43.5 14.5t15.5 43.5v83q0 29 -15.5 44t-43.5 15q-29 0 -44.5 -15t-15.5 -44v-83z" />
    <glyph glyph-name="ampersand" unicode="&#x26;" horiz-adv-x="616" 
d="M66 200q0 28 6.5 53.5t19.5 46.5t33 35.5t46 19.5q-40 18 -64 56t-24 89q0 49 17.5 82.5t47.5 54t70 29.5t85 9h64l4 -5l-11 -62l-6 -5h-51q-26 0 -51.5 -4.5t-45 -16.5t-31.5 -31.5t-12 -49.5q0 -59 34 -82.5t111 -23.5h82l9 101l5 6l57 8l5 -4v-111h101l5 -5l-19 -62
l-7 -5h-80v-307l-5 -6q-21 -7 -47 -11q-23 -5 -53 -8t-65 -3q-43 0 -84 11.5t-73.5 37t-52.5 65.5t-20 98zM146 201q0 -37 13.5 -63.5t35 -44t49 -25.5t54.5 -8q31 0 59 5q15 3 29 6v252h-78q-77 0 -119.5 -33.5t-42.5 -88.5z" />
    <glyph glyph-name="quotesingle" unicode="'" horiz-adv-x="217" 
d="M75 501l-11 169l5 5h78l5 -5l-10 -169l-5 -5h-57z" />
    <glyph glyph-name="parenleft" unicode="(" horiz-adv-x="298" 
d="M210 -130q-38 31 -68 86q-26 48 -47 126t-21 197q0 118 21 196t47 126q30 55 68 86h7l40 -44l-1 -7q-29 -33 -51 -83q-20 -43 -35.5 -110t-15.5 -164t15.5 -164.5t35.5 -110.5q23 -50 52 -83l-1 -7l-39 -43l-7 -1v0z" />
    <glyph glyph-name="parenright" unicode=")" horiz-adv-x="298" 
d="M41 -79q28 33 51 83q20 43 36 110.5t16 164.5t-16 164t-35 110q-23 50 -51 83l-1 7l40 44h7q38 -31 68 -86q26 -48 47 -126t21 -196q0 -119 -21 -197t-47 -126q-30 -55 -68 -86l-7 1l-39 43l-1 7v0z" />
    <glyph glyph-name="asterisk" unicode="*" horiz-adv-x="552" 
d="M262 512q-23 0 -37.5 8t-23 20.5t-12 28t-3.5 30.5v67l5 6l61 11l5 -4v-120q0 -20 3.5 -29t8.5 -14zM311 501q-7 11 -9.5 21t-2.5 20q0 24 15 41t34 28l58 34l7 -2l40 -47l-1 -7l-104 -60q-17 -10 -23 -17.5t-8 -14.5zM57 487l-2 7l21 58l6 3l104 -60q23 -13 34 -13
q3 0 9 2v-8q-13 -22 -28.5 -30.5t-32.5 -8.5q-14 0 -28 4.5t-25 11.5zM325 454q13 22 28.5 30.5t32.5 8.5q13 0 27 -4.5t26 -11.5l58 -34l2 -7l-21 -58l-6 -3l-104 60q-8 5 -16.5 8.5t-17.5 3.5q-6 0 -9 -1v8zM101 334l1 7l104 60q17 10 23 17.5t8 14.5l6 -4
q7 -11 9.5 -21.5t2.5 -19.5q0 -24 -15 -41t-34 -28l-58 -34l-7 2zM297 371q0 20 -3.5 29t-8.5 14l7 4q23 0 37.5 -8t23 -20.5t12 -28t3.5 -30.5v-67l-5 -6l-61 -11l-5 4v120z" />
    <glyph glyph-name="plus" unicode="+" 
d="M228 247h-129l-5 5v63l5 5h129v143l5 6l70 10l5 -4v-155h145l4 -5l-16 -63l-6 -5h-127v-161l-5 -5h-70l-5 5v161z" />
    <glyph glyph-name="comma" unicode="," horiz-adv-x="268" 
d="M84 99l6 5h105l3 -5l-106 -224l-7 -4l-39 12l-4 7z" />
    <glyph glyph-name="hyphen" unicode="-" horiz-adv-x="453" 
d="M97 249v70l5 5h257l4 -5l-18 -70l-6 -5h-237z" />
    <glyph glyph-name="period" unicode="." horiz-adv-x="256" 
d="M77 99l5 5h92l5 -5v-94l-5 -5h-92l-5 5v94z" />
    <glyph glyph-name="slash" unicode="/" horiz-adv-x="358" 
d="M236 665l5 6l70 10l6 -4l-199 -746l-6 -6h-68l-3 5z" />
    <glyph glyph-name="zero" unicode="0" horiz-adv-x="596" 
d="M69 329q0 60 19 102t50.5 68t73.5 37.5t87 11.5t86.5 -11.5t73 -37.5t50 -68t18.5 -102v-121q0 -60 -18.5 -102t-50 -68.5t-73 -38t-86.5 -11.5t-87 11.5t-73.5 38t-50.5 68.5t-19 102v121zM151 225q0 -88 39.5 -125.5t108.5 -37.5q73 0 109.5 37.5t36.5 125.5v87
q0 87 -36.5 124.5t-109.5 37.5q-69 0 -108.5 -37.5t-39.5 -124.5v-87z" />
    <glyph glyph-name="one" unicode="1" horiz-adv-x="470" 
d="M60 69l5 5h128v388h-130l-5 5v64l5 5h342l5 -5v-64l-5 -5h-130v-388h135l5 -5l-10 -64l-5 -5h-335l-5 5v64z" />
    <glyph glyph-name="two" unicode="2" horiz-adv-x="520" 
d="M71 51q22 12 52 30.5t62 41.5t63.5 50.5t56 57.5t39.5 62.5t15 66.5q0 57 -33 85.5t-79 28.5q-33 0 -59 -12t-44 -27t-28 -27.5t-11 -13.5h-7l-53 36l-1 8q20 30 50 55q26 20 64 37.5t91 17.5q37 0 72 -10.5t62 -33t43.5 -58t16.5 -85.5q0 -40 -13 -75t-33 -64t-43.5 -52
t-44 -39t-35.5 -25t-17 -10l-57 -22h265l4 -5l-17 -64l-6 -5h-361l-5 5z" />
    <glyph glyph-name="three" unicode="3" horiz-adv-x="533" 
d="M82 12h7q16 -25 39 -44q20 -17 49 -30t68 -13q27 0 52.5 8.5t45 24t31.5 39t12 53.5v14q0 57 -43 87.5t-122 30.5h-44l-4 5l17 64l6 5h25q83 0 115.5 30t32.5 79q0 30 -10.5 50.5t-28 33.5t-41 19t-49.5 6q-35 0 -62 -11.5t-44 -25.5q-21 -16 -35 -36h-8l-50 38l-1 7
q19 28 48 51q25 19 62 35t90 16q46 0 84.5 -12t66.5 -35.5t44 -57.5t16 -78q0 -22 -6 -44.5t-18 -43t-29 -36t-38 -24.5q50 -16 79 -54.5t29 -83.5v-41q0 -45 -18.5 -79.5t-49.5 -58.5t-70.5 -36.5t-81.5 -12.5q-60 0 -101 17.5t-67 39.5q-31 26 -50 58l1 8z" />
    <glyph glyph-name="four" unicode="4" horiz-adv-x="557" 
d="M25 98l311 431l6 4l62 10l5 -4v-423h124l4 -5l-18 -64l-6 -5h-104v-170l-5 -6l-72 -10l-5 4v182h-280l-5 5zM327 116v241l1 34l-16 -29l-167 -228l-15 -18h197z" />
    <glyph glyph-name="five" unicode="5" horiz-adv-x="511" 
d="M71 10h7q16 -25 39 -44q20 -17 49.5 -30t69.5 -13q26 0 51.5 8.5t45 24.5t31.5 39t12 52v29q0 29 -12 52t-31.5 38.5t-45 24t-51.5 8.5t-46.5 -4.5t-36.5 -9.5q-18 -6 -33 -13h-5l-33 44v315l6 5h333l4 -5l-18 -64l-6 -5h-237v-197q11 2 23 4q11 2 24 3t27 1
q41 0 80.5 -12.5t70.5 -36t50 -58t19 -79.5v-53q0 -44 -19 -78.5t-50 -58t-70.5 -36t-80.5 -12.5q-60 0 -101 17.5t-67 39.5q-31 26 -51 58l1 8z" />
    <glyph glyph-name="six" unicode="6" horiz-adv-x="577" 
d="M86 489q0 43 18 79t48.5 62t71 40.5t85.5 14.5q52 0 90 -17.5t62 -37.5q28 -25 47 -55v-7l-52 -39h-8q-16 23 -37 41q-18 15 -43.5 28t-58.5 13q-26 0 -51 -7t-45 -22.5t-32.5 -42t-12.5 -65.5v-75l-6 -48q9 21 28 39q17 15 45 27.5t74 12.5q38 0 76 -10.5t68 -34
t48.5 -61t18.5 -91.5v-51q0 -52 -18.5 -89t-49 -60t-69.5 -34t-80 -11t-80 11t-69.5 34t-49 60t-18.5 89v307zM168 200q0 -71 39 -104.5t96 -33.5q29 0 54 8t43 25t28 43t10 62v15q0 35 -10.5 61t-28.5 43.5t-42 26t-52 8.5q-29 0 -50.5 -2.5t-37.5 -7t-28 -10t-21 -11.5
v-123z" />
    <glyph glyph-name="seven" unicode="7" horiz-adv-x="460" 
d="M335 462h-290l-6 4l-20 65l3 5h397l4 -5l9 -39l-273 -635l-6 -3l-68 17l-3 5z" />
    <glyph glyph-name="eight" unicode="8" horiz-adv-x="563" 
d="M65 182q0 25 7.5 51t21 48t33 39t44.5 25q-19 7 -35.5 21.5t-29 34t-19.5 43t-7 49.5q0 95 55.5 143.5t147.5 48.5q90 0 145 -48.5t55 -143.5q0 -26 -7 -49.5t-19 -43t-28.5 -34t-35.5 -21.5q25 -8 44.5 -25t33 -39t20.5 -48t7 -51q0 -52 -18 -88.5t-48 -60t-69 -34.5
t-80 -11t-80.5 11t-70 34.5t-49 60t-18.5 88.5zM283 378q57 0 88 30.5t31 83.5q0 56 -31 87.5t-88 31.5q-59 0 -90 -31.5t-31 -87.5q0 -53 31 -83.5t90 -30.5zM147 184q0 -60 38.5 -91t97.5 -31q57 0 95 31.5t38 90.5q0 57 -38 90.5t-95 33.5q-29 0 -54 -8.5t-43 -25
t-28.5 -39.5t-10.5 -51z" />
    <glyph glyph-name="nine" unicode="9" horiz-adv-x="577" 
d="M121 7h8q15 -23 36 -41q18 -16 44 -28.5t59 -12.5q25 0 50.5 7t45.5 22.5t32.5 42t12.5 65.5v75l6 48q-9 -22 -28 -40q-17 -15 -45.5 -27t-73.5 -12q-38 0 -76 10.5t-68 34t-48.5 61t-18.5 91.5v51q0 52 18.5 89t49 60t69.5 34t80 11t80 -11t69.5 -34t49 -60t18.5 -89
v-307q0 -43 -18 -79t-48.5 -62t-71 -40.5t-85.5 -14.5q-53 0 -90.5 17t-61.5 38q-28 24 -47 55v7zM272 182q29 0 50.5 2.5t37.5 7t28 10t21 11.5v123q0 71 -39 104.5t-96 33.5q-59 0 -97 -33.5t-38 -104.5v-15q0 -35 10.5 -61.5t28.5 -43.5t42 -25.5t52 -8.5z" />
    <glyph glyph-name="colon" unicode=":" horiz-adv-x="310" 
d="M104 437v94l5 5h92l5 -5v-94l-5 -5h-92zM104 99l5 5h92l5 -5v-94l-5 -5h-92l-5 5v94z" />
    <glyph glyph-name="semicolon" unicode=";" horiz-adv-x="317" 
d="M107 437v94l5 5h92l5 -5v-94l-5 -5h-92zM108 99l6 5h105l3 -5l-106 -224l-7 -4l-39 12l-4 7z" />
    <glyph glyph-name="less" unicode="&#x3c;" 
d="M56 236l16 77l6 6l391 204l5 -4v-71l-5 -7l-331 -172l331 -164l5 -7v-71l-5 -4l-410 205z" />
    <glyph glyph-name="equal" unicode="=" 
d="M94 340v63l5 5h354l4 -5l-17 -63l-6 -5h-335zM94 164v63l5 5h332l4 -5l-17 -63l-6 -5h-313z" />
    <glyph glyph-name="greater" unicode="&#x3e;" 
d="M76 97l5 7l331 172l-331 164l-5 7v71l5 4l410 -205l3 -8l-16 -77l-6 -6l-391 -204l-5 4v71z" />
    <glyph glyph-name="question" unicode="?" horiz-adv-x="514" 
d="M211 341l5 6l68 11q41 7 62.5 38t21.5 76v24q0 54 -29.5 81.5t-83.5 27.5t-86 -26t-32 -83l-6 -4l-69 15l-5 6q0 42 15.5 74t42.5 54t63 33t77 11t77 -11t62.5 -33t42 -54t15.5 -74v-58q0 -38 -13 -69t-35.5 -53.5t-53.5 -36t-67 -17.5l-3 -88l-5 -5h-59l-5 5v150z
M199 96l5 5h89l5 -5v-91l-5 -5h-89l-5 5v91z" />
    <glyph glyph-name="at" unicode="@" horiz-adv-x="916" 
d="M70 232q0 106 23.5 190t72.5 142.5t125 89.5t180 31q189 0 282.5 -87.5t93.5 -271.5v-34q0 -142 -66 -213.5t-208 -83.5l-8 4l-35 108q-11 -22 -31 -40q-17 -15 -45.5 -27t-71.5 -12q-35 0 -60 13t-42 34.5t-25 48.5t-8 56q0 97 18 161.5t49 103.5t71 55t84 16
q30 0 59 -5t52.5 -11.5t40 -13t21.5 -8.5l5 -7l-40 -347l18 -56q35 11 61.5 29t44.5 45.5t27 66t9 91.5v16q0 81 -19 138t-56.5 92t-93 51t-127.5 16q-165 0 -243 -101t-78 -287v1q0 -81 18.5 -138t54.5 -92.5t90 -52t126 -16.5l3 -7l-13 -62l-6 -4q-174 0 -263.5 89.5
t-89.5 273.5v15zM329 199q0 -20 4 -38t13.5 -31.5t25.5 -21.5t40 -8q15 0 35 4.5t38 10.5q21 7 42 16l34 290q-12 6 -26 11q-12 4 -29.5 7.5t-37.5 3.5q-19 0 -43 -8t-45.5 -33.5t-36 -74t-14.5 -128.5z" />
    <glyph glyph-name="A" unicode="A" horiz-adv-x="590" 
d="M245 665l6 5l84 11l6 -4l237 -672l-3 -5h-80l-6 5l-55 161h-279l-54 -161l-5 -5h-81l-3 5zM409 242l-104 308l-10 43l-10 -43l-104 -308h228z" />
    <glyph glyph-name="B" unicode="B" horiz-adv-x="581" 
d="M93 670l5 5h182q43 0 82.5 -7.5t70 -26.5t48.5 -52t18 -85q0 -48 -23.5 -86t-69.5 -55q53 -17 82 -60.5t29 -103.5q0 -52 -18.5 -89.5t-49 -62t-70 -36t-81.5 -11.5h-200l-5 5v665zM281 399q26 0 50 4t43 15.5t30 31t11 49.5q0 31 -11 50.5t-30 30.5t-43 14.5t-50 3.5
h-104v-199h104zM287 77q27 0 52.5 6.5t46 20.5t32.5 37.5t12 57.5t-12 57.5t-32 38t-46 21t-53 6.5h-110v-245h110z" />
    <glyph glyph-name="C" unicode="C" horiz-adv-x="627" 
d="M71 437q0 61 19 107t53.5 77.5t82.5 47.5t107 16q83 0 145 -36t89 -102l-3 -6l-67 -28l-7 2q-20 42 -61.5 66t-95.5 24q-38 0 -70.5 -11t-56 -33t-36.5 -55t-13 -76v-188q0 -45 13 -77.5t36.5 -54t56 -32t70.5 -10.5q62 0 105 24t64 69l7 2l65 -25l3 -6q-25 -72 -88 -108
t-156 -36q-59 0 -107 15.5t-82.5 46.5t-53.5 77t-19 106v204z" />
    <glyph glyph-name="D" unicode="D" horiz-adv-x="656" 
d="M93 670l5 5h224q59 0 107.5 -16t83 -47.5t53.5 -77.5t19 -107v-182q0 -60 -19 -106t-53.5 -77t-83 -46.5t-107.5 -15.5h-224l-5 5v665zM322 80q38 0 70.5 10.5t56 32t37 54t13.5 77.5v166q0 43 -13.5 76t-37 55t-56 33t-70.5 11h-145v-515h145z" />
    <glyph glyph-name="E" unicode="E" horiz-adv-x="513" 
d="M93 670l5 5h347l5 -5v-70l-5 -5h-268v-200h233l4 -5l-18 -70l-6 -5h-213v-235h269l4 -5l-10 -70l-6 -5h-336l-5 5v665z" />
    <glyph glyph-name="F" unicode="F" horiz-adv-x="483" 
d="M93 670l5 5h337l5 -5v-70l-5 -5h-258v-210h243l4 -5l-18 -70l-6 -5h-223v-300l-5 -5h-74l-5 5v665z" />
    <glyph glyph-name="G" unicode="G" horiz-adv-x="653" 
d="M71 437q0 61 19 107t53.5 77.5t82.5 47.5t107 16q83 0 145 -36t89 -102l-3 -6l-67 -28l-7 2q-20 42 -61.5 66t-95.5 24q-38 0 -70.5 -11t-56 -33t-36.5 -55t-13 -76v-188q0 -45 13 -77.5t36.5 -54t56 -32t70.5 -10.5q39 0 71.5 10.5t56.5 32t37 54t13 77.5v23h-115l-6 5
l-10 70l4 5h206l5 -5v-107q0 -121 -70 -183t-192 -62q-59 0 -107 15.5t-82.5 46.5t-53.5 77t-19 106v204z" />
    <glyph glyph-name="H" unicode="H" horiz-adv-x="711" 
d="M93 665l5 6l74 10l5 -4v-283h356v271l5 6l74 10l5 -4v-672l-5 -5h-74l-5 5v309h-356v-309l-5 -5h-74l-5 5v660z" />
    <glyph glyph-name="I" unicode="I" horiz-adv-x="271" 
d="M93 665l5 6l74 10l5 -4v-672l-5 -5h-74l-5 5v660z" />
    <glyph glyph-name="J" unicode="J" horiz-adv-x="377" 
d="M4 31l30 62l8 1q16 -12 33.5 -19t39.5 -7q13 0 28 5t28.5 18t22.5 34t9 53v487l5 6l74 10l5 -4v-507q0 -42 -12 -75.5t-34 -57t-53 -36.5t-68 -13q-35 0 -64 9.5t-51 26.5z" />
    <glyph glyph-name="K" unicode="K" horiz-adv-x="594" 
d="M93 665l5 6l74 10l5 -4v-283h47l8 4l208 266l8 5l105 12l4 -5l-238 -288l-29 -29l29 -32l158 -210q3 -5 10 -12t16.5 -13.5t22.5 -11.5t30 -5q8 0 12 1l4 -5l-11 -68l-6 -5q-5 -1 -9 -1h-9q-26 0 -46.5 8t-37 20.5t-29 27t-21.5 26.5l-175 237l-8 4h-43v-315l-5 -5h-74
l-5 5v660z" />
    <glyph glyph-name="L" unicode="L" horiz-adv-x="474" 
d="M93 665l5 6l74 10l5 -4v-597h288l4 -5l-18 -70l-6 -5h-347l-5 5v660z" />
    <glyph glyph-name="M" unicode="M" horiz-adv-x="809" 
d="M93 665l5 6l75 10l6 -4l225 -409l219 398l5 6l82 9l5 -4v-672l-5 -5h-74l-3 5v528l-25 -55l-162 -290l-6 -5h-72l-6 5l-162 290l-23 55v-528l-5 -5h-74l-5 5v660z" />
    <glyph glyph-name="N" unicode="N" horiz-adv-x="707" 
d="M93 665l5 6l74 10l7 -4l324 -488l26 -48v524l5 6l74 10l5 -4v-672l-5 -5h-71l-8 5l-326 492l-26 48v-540l-5 -5h-74l-5 5v660z" />
    <glyph glyph-name="O" unicode="O" horiz-adv-x="668" 
d="M71 437q0 61 19 107t53.5 77.5t83 47.5t107.5 16t107.5 -16t83 -47.5t53.5 -77.5t19 -107v-204q0 -60 -19 -106t-53.5 -77t-83 -46.5t-107.5 -15.5t-107.5 15.5t-83 46.5t-53.5 77t-19 106v204zM157 242q0 -45 13.5 -77.5t37 -54t56 -32t70.5 -10.5t70.5 10.5t56 32
t37 54t13.5 77.5v188q0 43 -13.5 76t-37 55t-56 33t-70.5 11t-70.5 -11t-56 -33t-37 -55t-13.5 -76v-188z" />
    <glyph glyph-name="P" unicode="P" horiz-adv-x="554" 
d="M93 670l5 5h176q48 0 87.5 -7.5t70.5 -25.5q40 -23 62 -64.5t22 -103.5q0 -44 -13.5 -83.5t-41 -69t-69.5 -47t-99 -17.5q-42 0 -74.5 13t-46.5 45l5 -40v-270l-5 -5h-74l-5 5v665zM177 349q20 -7 44.5 -12t50.5 -5q33 0 62 8t50 25.5t33 44t12 62.5q0 38 -13 62.5
t-34.5 38.5t-49.5 19.5t-58 5.5h-97v-249z" />
    <glyph glyph-name="Q" unicode="Q" horiz-adv-x="668" 
d="M71 437q0 61 19 107t53.5 77.5t83 47.5t107.5 16t107.5 -16t83 -47.5t53.5 -77.5t19 -107v-204q0 -59 -18 -104t-51 -75.5t-79 -47t-101 -18.5q-9 -7 -9 -38q0 -29 15.5 -47t43.5 -18h80l5 -5v-79l-5 -5h-80q-33 0 -56.5 10.5t-38.5 26.5t-22.5 35t-7.5 37q0 27 12 49
t35 34q-56 2 -102 18.5t-78.5 47.5t-50.5 75.5t-18 103.5v204zM157 242q0 -45 13.5 -77.5t37 -54t56 -32t70.5 -10.5t70.5 10.5t56 32t37 54t13.5 77.5v188q0 43 -13.5 76t-37 55t-56 33t-70.5 11t-70.5 -11t-56 -33t-37 -55t-13.5 -76v-188z" />
    <glyph glyph-name="R" unicode="R" horiz-adv-x="583" 
d="M93 670l5 5h178q40 0 77.5 -7.5t69.5 -27.5q37 -23 60 -63.5t23 -100.5q0 -35 -8.5 -62t-22 -47t-31.5 -34.5t-36 -23.5q-43 -23 -97 -28l22 -22l117 -141q13 -15 32 -28.5t48 -13.5q3 0 5.5 0.5t5.5 0.5l4 -5l-11 -68l-6 -5q-5 -1 -10.5 -1.5t-10.5 -0.5
q-26 0 -47.5 9.5t-38 23t-28.5 27.5t-19 23l-156 194l-7 4h-34v-273l-5 -5h-74l-5 5v665zM275 355q27 0 53.5 6t47.5 20t33.5 37t12.5 58q0 34 -12.5 57.5t-33.5 37.5t-47.5 20.5t-53.5 6.5h-98v-243h98z" />
    <glyph glyph-name="S" unicode="S" horiz-adv-x="508" 
d="M48 55l41 56l9 1q11 -9 27.5 -17t35.5 -14t38 -9.5t36 -3.5q27 0 50.5 6t41.5 20t28.5 35.5t10.5 53.5q0 40 -22 63.5t-55.5 39.5t-72 30t-72 35t-55.5 54t-22 88q0 45 16 80.5t43.5 60.5t63.5 38t77 13q37 0 67.5 -6.5t52.5 -15t35.5 -17t16.5 -11.5l1 -7l-38 -58l-8 -1
q-21 16 -52.5 26t-70.5 10q-60 0 -89 -30.5t-29 -78.5q0 -38 22 -59.5t55.5 -37t72 -29.5t72 -36t55.5 -57t22 -93q0 -56 -20 -94t-52 -60.5t-71 -32t-77 -9.5q-18 0 -41 3.5t-48 11t-49.5 19t-43.5 26.5z" />
    <glyph glyph-name="T" unicode="T" horiz-adv-x="498" 
d="M207 595h-186l-5 5v70l5 5h469l4 -5l-18 -70l-6 -5h-179v-590l-5 -5h-74l-5 5v590z" />
    <glyph glyph-name="U" unicode="U" horiz-adv-x="695" 
d="M86 665l5 6l74 10l5 -4v-435q0 -45 13.5 -77.5t37.5 -54t56 -32t70 -10.5q79 0 128 42.5t49 131.5v423l5 6l74 10l5 -4v-444q0 -121 -69.5 -183t-191.5 -62q-60 0 -108 15.5t-82 46.5t-52.5 77t-18.5 106v432z" />
    <glyph glyph-name="V" unicode="V" horiz-adv-x="594" 
d="M13 664l5 6l79 11l6 -4l175 -530l18 -66l18 66l172 516l5 6l87 12l6 -4l-241 -679l-7 -5l-87 14l-6 6z" />
    <glyph glyph-name="W" unicode="W" horiz-adv-x="870" 
d="M14 664l5 6l79 11l6 -4l155 -499l19 -74l16 74l104 371v116l5 6l74 10l5 -4v-140l98 -359l15 -74l18 74l143 485l5 6l88 12l6 -4l-225 -679l-7 -5l-72 14l-6 6l-94 338l-14 67l-14 -67l-100 -353l-7 -5l-74 14l-6 6z" />
    <glyph glyph-name="X" unicode="X" horiz-adv-x="575" 
d="M235 345l-189 319l5 6l76 11l6 -3l138 -244l17 -34l16 34l129 229l6 6l91 12l6 -4l-195 -332l206 -340l-3 -5h-90l-6 5l-144 252l-16 34l-17 -34l-143 -252l-6 -5h-91l-4 5z" />
    <glyph glyph-name="Y" unicode="Y" horiz-adv-x="515" 
d="M216 296l-203 367l5 7l84 11l6 -4l134 -266l16 -39l17 39l127 252l5 6l91 12l6 -4l-204 -381v-291l-5 -5h-74l-5 5v291z" />
    <glyph glyph-name="Z" unicode="Z" horiz-adv-x="526" 
d="M45 54l322 541h-306l-4 5l10 70l6 5h397l5 -5v-49l-321 -541h314l5 -5v-70l-5 -5h-407l-6 5z" />
    <glyph glyph-name="bracketleft" unicode="[" horiz-adv-x="324" 
d="M102 670l5 5h172l4 -5l-19 -58l-6 -5h-79v-657h79l6 -5l19 -58l-4 -5h-172l-5 5v783z" />
    <glyph glyph-name="backslash" unicode="\" horiz-adv-x="354" 
d="M41 666l5 6l61 9l5 -4l201 -747l-3 -5h-67l-6 6z" />
    <glyph glyph-name="bracketright" unicode="]" horiz-adv-x="324" 
d="M66 -50h79v657h-79l-6 5l-19 58l4 5h172l5 -5v-783l-5 -5h-172l-4 5l19 58z" />
    <glyph glyph-name="asciicircum" unicode="^" horiz-adv-x="543" 
d="M22 270l199 394l7 5l82 12l5 -4l206 -407l-3 -5h-75l-5 5l-167 333l-166 -333l-5 -5h-75z" />
    <glyph glyph-name="underscore" unicode="_" horiz-adv-x="568" 
d="M46 0h476l5 -5v-63l-5 -5h-476l-5 5v63z" />
    <glyph glyph-name="grave" unicode="`" horiz-adv-x="542" 
d="M160 697l5 4h108l7 -4l60 -102l-1 -6l-50 -20h-6z" />
    <glyph glyph-name="a" unicode="a" horiz-adv-x="531" 
d="M217 529l5 5l83 9l5 -5l202 -533l-5 -5h-79l-5 5l-44 125h-228l-44 -125l-5 -5h-79l-5 5zM354 200l-80 227l-10 35l-9 -35l-80 -227h179z" />
    <glyph glyph-name="b" unicode="b" horiz-adv-x="520" 
d="M87 531l5 5h159q37 0 72 -6t61 -22t42 -43.5t16 -70.5q0 -35 -18 -64.5t-57 -43.5q46 -14 68.5 -47.5t22.5 -78.5q0 -42 -16 -72.5t-42.5 -50t-61 -28.5t-71.5 -9h-175l-5 5v526zM252 321q21 0 40.5 3t35 10.5t24.5 21.5t9 36t-9 36t-24.5 21.5t-35 10t-40.5 2.5h-83
v-141h83zM257 74q22 0 43.5 4t38 14t26.5 26.5t10 41.5t-10 41.5t-26.5 26.5t-38 14.5t-43.5 4.5h-88v-173h88z" />
    <glyph glyph-name="c" unicode="c" horiz-adv-x="560" 
d="M68 348q0 49 16.5 86t46 62.5t71.5 38.5t93 13q63 0 103 -18.5t63 -40.5q26 -26 40 -58l-3 -6l-63 -25l-7 2q-17 32 -52 52t-81 20q-62 0 -103 -33.5t-41 -98.5v-148q0 -68 41 -100t103 -32q51 0 87 19.5t54 54.5l7 2l63 -22l3 -6q-23 -60 -78 -91t-136 -31q-51 0 -93 13
t-71.5 38t-46 62t-16.5 85v162z" />
    <glyph glyph-name="d" unicode="d" horiz-adv-x="583" 
d="M87 531l5 5h195q51 0 93 -13t72 -38.5t46.5 -62.5t16.5 -86v-138q0 -49 -16.5 -86t-46.5 -62t-72 -37.5t-93 -12.5h-195l-5 5v526zM287 74q63 0 104 32t41 99v125q0 66 -41 99t-104 33h-118v-388h118z" />
    <glyph glyph-name="e" unicode="e" horiz-adv-x="463" 
d="M87 531l5 5h304l5 -5v-64l-5 -5h-227v-142h199l4 -5l-18 -64l-6 -5h-179v-172h229l4 -5l-10 -64l-6 -5h-294l-5 5v526z" />
    <glyph glyph-name="f" unicode="f" horiz-adv-x="439" 
d="M87 531l5 5h295l5 -5v-64l-5 -5h-218v-151h207l4 -5l-18 -64l-6 -5h-187v-232l-5 -5h-72l-5 5v526z" />
    <glyph glyph-name="g" unicode="g" horiz-adv-x="581" 
d="M68 348q0 49 16.5 86t46 62.5t71.5 38.5t93 13q63 0 103 -18.5t63 -40.5q26 -26 40 -58l-3 -6l-63 -25l-7 2q-17 32 -52 52t-81 20q-62 0 -103 -33.5t-41 -98.5v-148q0 -68 41 -100t103 -32q65 0 105.5 32t40.5 100v12h-98l-5 5l-10 64l5 5h185l5 -5v-89
q0 -97 -61 -147.5t-167 -50.5q-51 0 -93 13t-71.5 38t-46 62t-16.5 85v162z" />
    <glyph glyph-name="h" unicode="h" horiz-adv-x="631" 
d="M87 527l5 8l72 8l5 -5v-218h292v207l5 8l72 8l5 -6v-532l-5 -5h-72l-5 5v241h-292v-241l-5 -5h-72l-5 5v522z" />
    <glyph glyph-name="i" unicode="i" horiz-adv-x="257" 
d="M87 527l5 6l72 10l5 -5v-533l-5 -5h-72l-5 5v522z" />
    <glyph glyph-name="j" unicode="j" horiz-adv-x="348" 
d="M13 26l29 58l8 1q8 -7 18 -12q8 -5 19.5 -8t25.5 -3q10 0 22 4t22.5 13.5t17.5 25t7 38.5v384l5 6l72 10l5 -5v-401q0 -69 -40.5 -109t-106.5 -40q-31 0 -57 8.5t-46 22.5z" />
    <glyph glyph-name="k" unicode="k" horiz-adv-x="537" 
d="M87 525l5 8l72 10l5 -5v-217h32l8 4l170 201l8 5l105 12l4 -5l-209 -233l-19 -18l20 -20l135 -166q10 -13 25 -21.5t38 -8.5h7.5t7.5 1l4 -5l-11 -63l-6 -5q-5 -1 -9 -1h-9q-43 0 -70.5 20t-47.5 46l-147 183l-8 4h-28v-246l-5 -5h-72l-5 5v520z" />
    <glyph glyph-name="l" unicode="l" horiz-adv-x="434" 
d="M87 527l5 8l72 8l5 -6v-463h245l5 -5l-18 -64l-5 -5h-304l-5 5v522z" />
    <glyph glyph-name="m" unicode="m" horiz-adv-x="716" 
d="M87 527l5 6l69 10l7 -4l189 -317l182 306l6 5l77 10l6 -4v-534l-5 -5h-72l-5 5v397l-17 -36l-134 -221l-6 -5h-65l-6 5l-135 221l-14 33v-394l-5 -5h-72l-5 5v522z" />
    <glyph glyph-name="n" unicode="n" horiz-adv-x="628" 
d="M87 527l5 6l71 10l7 -4l269 -374l19 -37v399l5 6l72 10l5 -5v-533l-5 -5h-68l-6 4l-272 379l-20 39v-417l-5 -5h-72l-5 5v522z" />
    <glyph glyph-name="o" unicode="o" horiz-adv-x="594" 
d="M68 348q0 49 16.5 86t46.5 62.5t72.5 38.5t93.5 13t93.5 -13t72.5 -38.5t46.5 -62.5t16.5 -86v-162q0 -48 -16.5 -85t-46.5 -62t-72.5 -38t-93.5 -13t-93.5 13t-72.5 38t-46.5 62t-16.5 85v162zM151 194q0 -68 41.5 -100t104.5 -32t104.5 32t41.5 100v148q0 66 -41.5 99
t-104.5 33t-104.5 -33t-41.5 -99v-148z" />
    <glyph glyph-name="p" unicode="p" horiz-adv-x="498" 
d="M87 531l5 5h154q47 0 86 -9t66.5 -28.5t43 -51t15.5 -75.5q0 -42 -15 -75t-40 -55t-58 -33.5t-69 -11.5q-32 0 -53 7t-34 16q-15 10 -23 23l4 -31v-207l-5 -5h-72l-5 5v526zM169 279q16 -5 35.5 -8t39.5 -3q57 0 94 24.5t37 78.5q0 28 -10.5 46t-28.5 28.5t-41.5 14.5
t-48.5 4h-77v-185z" />
    <glyph glyph-name="q" unicode="q" horiz-adv-x="594" 
d="M68 348q0 49 16.5 86t46.5 62.5t72.5 38.5t93.5 13t93.5 -13t72.5 -38.5t46.5 -62.5t16.5 -86v-162q0 -48 -16.5 -84.5t-46 -61.5t-71 -38t-91.5 -14q-3 -6 -3 -23q0 -20 16 -32.5t38 -12.5h70l7 -7v-68l-7 -7h-70q-29 0 -50 8.5t-34.5 22t-20 29.5t-6.5 31
q0 18 7.5 33.5t27.5 26.5q-94 5 -151 55t-57 142v162zM151 194q0 -68 41.5 -100t104.5 -32t104.5 32t41.5 100v148q0 66 -41.5 99t-104.5 33t-104.5 -33t-41.5 -99v-148z" />
    <glyph glyph-name="r" unicode="r" horiz-adv-x="525" 
d="M87 531l5 5h156q37 0 73 -7t64 -24t45.5 -46.5t17.5 -74.5q0 -29 -7 -51t-18.5 -39t-26.5 -28.5t-30 -19.5q-36 -18 -81 -23l31 -29l84 -92q14 -15 28.5 -23t31.5 -8h14q3 0 5 1l4 -5l-11 -63l-6 -5q-5 -1 -11 -1h-11q-18 0 -34.5 6t-31.5 16t-28 21.5t-23 23.5l-131 149
l-7 4h-20v-213l-5 -5h-72l-5 5v526zM247 288q22 0 44 4.5t38.5 15.5t27 28t10.5 43q0 25 -10.5 42t-27 27t-38.5 14t-44 4h-78v-178h78z" />
    <glyph glyph-name="s" unicode="s" horiz-adv-x="460" 
d="M48 46l38 54l9 1q16 -11 34 -19q16 -7 37.5 -12.5t47.5 -5.5q22 0 41.5 4.5t34 14.5t23 26t8.5 39q0 30 -19 47.5t-47 29.5t-61.5 23t-61.5 28t-47 43.5t-19 71.5q0 37 14 66t38 49t56 31t67 11q33 0 59.5 -5.5t46 -13t32 -14t15.5 -9.5l1 -7l-38 -54l-8 -1
q-17 13 -44.5 21t-59.5 8q-49 0 -72 -22t-23 -57q0 -27 19 -43t47 -28t61 -23.5t61 -30t47 -47t19 -73.5q0 -46 -17.5 -76.5t-45.5 -49t-62 -26.5t-67 -8t-62.5 7.5t-51.5 17.5q-26 11 -48 25z" />
    <glyph glyph-name="t" unicode="t" horiz-adv-x="458" 
d="M188 462h-158l-5 5v64l5 5h410l4 -5l-18 -64l-6 -5h-150v-457l-5 -5h-72l-5 5v457z" />
    <glyph glyph-name="u" unicode="u" horiz-adv-x="618" 
d="M81 527l5 6l72 10l5 -5v-344q0 -34 11 -58.5t30.5 -41t46 -24.5t57.5 -8q66 0 106 32t40 100v333l5 6l72 10l5 -5v-352q0 -97 -61 -147.5t-167 -50.5q-104 0 -165.5 50.5t-61.5 147.5v341z" />
    <glyph glyph-name="v" unicode="v" horiz-adv-x="534" 
d="M20 527l5 6l76 10l6 -4l148 -423l11 -36l10 36l146 411l5 6l84 10l6 -4l-205 -540l-5 -5l-87 12l-5 5z" />
    <glyph glyph-name="w" unicode="w" horiz-adv-x="766" 
d="M20 527l5 6l77 10l6 -4l132 -398l10 -44l9 43l89 298v87v2l5 6l71 10l5 -5v-109l83 -289l9 -43l9 44l122 386l5 6l84 10l6 -4l-193 -540l-5 -5l-69 12l-5 5l-79 271l-10 44l-10 -44l-85 -283l-5 -5l-69 12l-5 5z" />
    <glyph glyph-name="x" unicode="x" horiz-adv-x="523" 
d="M211 276l-161 250l5 6l73 11l6 -3l115 -188l14 -26l13 26l103 173l6 6l90 12l6 -4l-168 -263l178 -271l-3 -5h-87l-6 5l-120 196l-14 27l-13 -27l-119 -196l-6 -5h-89l-4 5z" />
    <glyph glyph-name="y" unicode="y" horiz-adv-x="457" 
d="M189 237l-175 290l5 6l81 10l6 -4l112 -209l12 -26l12 26l106 198l7 5l85 10l6 -4l-175 -302v-232l-5 -5h-72l-5 5v232z" />
    <glyph glyph-name="z" unicode="z" horiz-adv-x="476" 
d="M48 49l266 413h-252l-4 5l7 64l6 5h345l5 -5v-44l-266 -413h262l5 -5v-64l-5 -5h-353l-6 5z" />
    <glyph glyph-name="braceleft" unicode="{" horiz-adv-x="397" 
d="M142 167q0 42 -18 71t-75 37l-4 5l18 60l7 5q45 11 58.5 38t13.5 65v67q0 74 49 119t138 45h23l4 -5l-18 -58l-6 -5q-51 0 -83 -27.5t-32 -86.5v-47q0 -50 -21.5 -88.5t-64.5 -55.5q42 -18 64 -53t22 -82v-106q0 -60 32 -88t83 -28l6 -5l18 -58l-4 -5h-23
q-89 0 -138 45.5t-49 120.5v120z" />
    <glyph glyph-name="bar" unicode="|" horiz-adv-x="280" 
d="M98 665l5 6l70 10l5 -4v-787l-5 -5h-70l-5 5v775z" />
    <glyph glyph-name="braceright" unicode="}" horiz-adv-x="396" 
d="M65 -51q51 0 83 28t32 88v106q0 47 22 82t64 53q-43 17 -64.5 55.5t-21.5 88.5v47q0 59 -32 86.5t-83 27.5l-6 5l-18 58l4 5h23q89 0 138 -45t49 -119v-67q0 -25 4 -42.5t14 -30t28 -21t45 -14.5l4 -7l-18 -57l-7 -5q-43 -12 -56.5 -40t-13.5 -64v-120q0 -75 -49 -120.5
t-138 -45.5h-23l-4 5l18 58z" />
    <glyph glyph-name="asciitilde" unicode="~" horiz-adv-x="614" 
d="M73 270q0 43 11 74.5t29.5 51t43.5 29t53 9.5q39 0 65 -15t46.5 -33.5t38.5 -33.5t42 -15q21 0 34 8t20.5 20.5t10 28t2.5 31.5l5 5h67l5 -5q0 -44 -11 -75t-30 -50.5t-43.5 -29t-52.5 -9.5q-39 0 -65 15t-46.5 33.5t-38.5 33.5t-42 15q-21 0 -34 -8t-20.5 -20.5
t-10 -28.5t-2.5 -31l-5 -5h-67z" />
    <glyph glyph-name="uni00A0" unicode="&#xa0;" horiz-adv-x="274" 
 />
    <glyph glyph-name="exclamdown" unicode="&#xa1;" horiz-adv-x="283" 
d="M92 440v91l5 5h89l5 -5v-91l-5 -5h-89zM110 345l5 5h53l5 -5l19 -471l-5 -6l-88 -12l-6 4z" />
    <glyph glyph-name="cent" unicode="&#xa2;" horiz-adv-x="530" 
d="M244 80q-37 4 -70 18t-58 38t-40 58t-15 78v31q0 43 15 77t40 57.5t58 37.5t70 19v76l5 6l48 7l5 -4v-84q54 -5 100 -28t71 -70l-3 -6l-61 -25l-7 2q-15 23 -42 36.5t-58 17.5v-271q31 4 58 17.5t42 37.5l7 2l60 -25l3 -6q-25 -48 -71 -71t-99 -27v-74l-5 -5h-48l-5 5v75
zM244 420q-45 -9 -74 -40.5t-29 -78.5v-27q0 -48 29 -80t74 -41v267z" />
    <glyph glyph-name="sterling" unicode="&#xa3;" horiz-adv-x="596" 
d="M64 54q17 0 30 5q11 4 21.5 13t12.5 26l23 170h-83l-5 5v62l5 5h90l10 79q10 78 57 122t117 44q31 0 54.5 -5.5t40.5 -12.5q19 -8 33 -18l1 -7l-22 -55l-7 -2q-12 8 -28 14q-14 5 -32.5 9.5t-40.5 4.5q-32 0 -59 -25.5t-35 -86.5l-8 -61h162l4 -5l-18 -62l-6 -5h-150
l-19 -149l-12 -50h24q24 0 45.5 -6.5t41.5 -14t39.5 -14t40.5 -6.5q15 0 29 4.5t25 15t17.5 26.5t6.5 40q0 11 -1.5 20t-3.5 16l-5 15l4 6l60 12l7 -3q5 -17 9 -33t4 -36q0 -40 -11.5 -69t-31 -48t-45.5 -28.5t-55 -9.5q-24 0 -47 7t-45.5 15t-45.5 15t-47 7q-17 0 -38 -3
t-40 -6q-22 -4 -45 -8l-6 3l-25 62z" />
    <glyph glyph-name="yen" unicode="&#xa5;" horiz-adv-x="557" 
d="M76 154v60l5 5h156v29l-38 67h-118l-5 5v60l5 5h79l-100 180l5 7l82 11l6 -4l108 -216l16 -39l17 39l102 202l5 6l89 12l6 -4l-105 -194h104l4 -5l-17 -60l-6 -5h-123l-36 -67v-29h156l4 -5l-17 -60l-6 -5h-137v-144l-5 -5h-70l-5 5v144h-156z" />
    <glyph glyph-name="brokenbar" unicode="&#xa6;" horiz-adv-x="325" 
d="M122 375v290l4 6l70 11l6 -4v-303l-5 -5h-70zM122 226l5 5h70l5 -5v-336l-5 -5h-70l-5 5v336z" />
    <glyph glyph-name="section" unicode="&#xa7;" horiz-adv-x="470" 
d="M150 212l-38 279q-3 18 -3 36q0 72 41.5 115t122.5 43q42 0 82.5 -15t73.5 -50v-7l-47 -47l-7 2q-20 22 -49 32.5t-53 10.5q-33 0 -60.5 -19t-27.5 -59q0 -7 1 -11l50 -370l-4 -10l-44 -34l-6 6zM45 60l47 47l7 -2q20 -22 49 -32.5t53 -10.5q16 0 32 4.5t28.5 14t20 24
t7.5 33.5q0 7 -3 28l-48 355l4 10l44 34l6 -6l32 -98l36 -265q3 -21 3.5 -33t0.5 -21q0 -69 -41 -111.5t-122 -42.5q-42 0 -82.5 15t-73.5 50v7z" />
    <glyph glyph-name="dieresis" unicode="&#xa8;" horiz-adv-x="542" 
d="M298 615v78l5 5h73l5 -5v-78l-5 -5h-73zM161 615v78l5 5h73l5 -5v-78l-5 -5h-73z" />
    <glyph glyph-name="copyright" unicode="&#xa9;" horiz-adv-x="805" 
d="M69 395q0 75 29.5 130t76.5 91t107 53.5t120 17.5q61 0 121 -17.5t107 -53.5t76 -91t29 -130v-119q0 -75 -29 -130t-76 -91.5t-107 -54t-121 -17.5q-60 0 -120 17.5t-107 54t-76.5 91.5t-29.5 130v119zM134 296q0 -66 22 -113.5t59 -77.5t85.5 -44.5t101.5 -14.5
q54 0 102.5 14.5t85.5 44.5t58.5 77.5t21.5 113.5v78q0 66 -21.5 113.5t-58.5 78t-85.5 44.5t-102.5 14q-53 0 -101.5 -14t-85.5 -44.5t-59 -78t-22 -113.5v-78zM246 391q0 75 42 113.5t116 38.5q53 0 92.5 -24t54.5 -67l-3 -6l-51 -20l-7 2q-15 22 -36 35.5t-50 13.5
q-38 0 -64 -22.5t-26 -67.5v-107q0 -45 26 -67t64 -22q32 0 56 14t36 40l7 2l50 -18l3 -6q-15 -50 -55 -74t-97 -24q-74 0 -116 38t-42 113v115z" />
    <glyph glyph-name="ordfeminine" unicode="&#xaa;" horiz-adv-x="420" 
d="M56 357l120 315l5 5l57 5l5 -5l121 -320l-5 -5h-57l-5 5l-24 69h-127l-23 -69l-5 -5h-57zM253 483l-44 126l-43 -126h87z" />
    <glyph glyph-name="guillemotleft" unicode="&#xab;" horiz-adv-x="534" 
d="M246 276l126 190l9 6h75l6 -7l-130 -192l130 -192l-6 -7h-75l-9 6l-126 189v7zM57 269v7l126 190l9 6h75l6 -7l-130 -192l130 -192l-6 -7h-75l-9 6z" />
    <glyph glyph-name="logicalnot" unicode="&#xac;" horiz-adv-x="543" 
d="M41 265v30l3 7l398 227l6 -2l32 -56l-2 -7l-14 -13l-65 -171l65 -171l14 -13l2 -7l-32 -56l-6 -2l-398 227z" />
    <glyph glyph-name="uni00AD" unicode="&#xad;" horiz-adv-x="425" 
d="M83 224v70l5 5h257l4 -5l-18 -70l-6 -5h-237z" />
    <glyph glyph-name="registered" unicode="&#xae;" horiz-adv-x="494" 
d="M247 291q-34 0 -67.5 10t-60.5 30.5t-43.5 51.5t-16.5 73v65q0 42 16.5 72.5t43.5 51t60.5 30.5t67.5 10t68 -10t60.5 -30.5t43 -51t16.5 -72.5v-65q0 -42 -16.5 -73t-43 -51.5t-60.5 -30.5t-68 -10zM247 332q28 0 54 7.5t45.5 24t31 42t11.5 61.5v42q0 36 -11.5 61.5
t-31 42t-45.5 24t-54 7.5t-54 -7.5t-45.5 -24t-31 -42t-11.5 -61.5v-42q0 -36 11.5 -61.5t31 -42t45.5 -24t54 -7.5zM178 377v221l5 5h62q15 0 30 -3.5t27 -12t19.5 -22.5t7.5 -35q0 -26 -15.5 -42.5t-37.5 -21.5l33 -43q7 -8 22 -8h3l5 -5l-5 -33l-5 -5h-12q-15 0 -27 8.5
t-20 20.5l-42 64h-2v-88l-5 -5h-38zM245 502q14 0 25 6t11 22q0 17 -11 23.5t-25 6.5h-19v-58h19z" />
    <glyph glyph-name="macron" unicode="&#xaf;" horiz-adv-x="543" 
d="M159 613v58l5 5h224l4 -5l-12 -58l-6 -5h-210z" />
    <glyph glyph-name="degree" unicode="&#xb0;" horiz-adv-x="376" 
d="M188 431q-25 0 -49 7t-42.5 21.5t-30 36t-11.5 50.5v25q0 29 11.5 50.5t30 35.5t42.5 21t49 7t49 -7t42.5 -21t30 -35.5t11.5 -50.5v-25q0 -29 -11.5 -50.5t-30 -36t-42.5 -21.5t-49 -7zM188 492q31 0 50 14.5t19 51.5q0 35 -19 50.5t-50 15.5t-50 -15.5t-19 -50.5
q0 -37 19 -51.5t50 -14.5z" />
    <glyph glyph-name="plusminus" unicode="&#xb1;" 
d="M228 247h-129l-5 5v63l5 5h129v143l5 6l70 10l5 -4v-155h145l4 -5l-16 -63l-6 -5h-127v-161l-5 -5h-70l-5 5v161zM99 -22h358l4 -5l-18 -69l-6 -5h-338l-5 5v69z" />
    <glyph glyph-name="uni00B2" unicode="&#xb2;" horiz-adv-x="388" 
d="M67 370l-7 31q1 20 15 40.5t34.5 41t44 42t43.5 43t33.5 43t13.5 43.5q0 25 -16.5 43.5t-42.5 18.5q-22 0 -41.5 -13.5t-36.5 -36.5h-5l-43 31v5q14 21 32 38q16 14 40 26t56 12q24 0 46.5 -8t40.5 -23.5t28.5 -38t10.5 -51.5q0 -26 -11.5 -50.5t-29 -46.5t-38.5 -42
t-39.5 -37t-32.5 -30.5t-18 -23.5h179l4 -5l-14 -52l-6 -5h-234z" />
    <glyph glyph-name="uni00B3" unicode="&#xb3;" horiz-adv-x="382" 
d="M184 361q-36 0 -61.5 12t-42.5 26q-19 17 -33 39l1 6l45 34h8q9 -16 21 -28q11 -11 26.5 -19t35.5 -8q28 0 50 15t22 44v10q0 27 -23 42t-65 15h-37l-4 5l18 51l6 5h17q43 0 61 15t18 38q0 29 -19.5 42t-47.5 13q-16 0 -28.5 -5.5t-22 -13t-16 -15t-10.5 -10.5l-8 -1
l-43 29v7q14 19 32 35q16 14 40 25t56 11q57 0 94.5 -30t37.5 -86q0 -23 -10.5 -46t-36.5 -37q31 -12 43.5 -35t12.5 -46v-23q0 -29 -11.5 -50.5t-30.5 -36t-43.5 -22t-51.5 -7.5z" />
    <glyph glyph-name="acute" unicode="&#xb4;" horiz-adv-x="542" 
d="M203 589l-1 6l60 102l7 4h108l5 -4l-123 -128h-6z" />
    <glyph glyph-name="uni00B5" unicode="&#xb5;" horiz-adv-x="792" 
d="M29 265v30l3 7l398 227l6 -2l32 -56l-2 -7l-14 -13l-65 -129h354l5 -5v-74l-5 -5h-354l65 -129l14 -13l2 -7l-32 -56l-6 -2l-398 227z" />
    <glyph glyph-name="uni00B5" unicode="&#x3bc;" horiz-adv-x="792" 
d="M29 265v30l3 7l398 227l6 -2l32 -56l-2 -7l-14 -13l-65 -129h354l5 -5v-74l-5 -5h-354l65 -129l14 -13l2 -7l-32 -56l-6 -2l-398 227z" />
    <glyph glyph-name="paragraph" unicode="&#xb6;" horiz-adv-x="588" 
d="M271 244q-41 0 -79.5 11t-68.5 34t-48 60t-18 89v45q0 52 18 88.5t48 59.5t68.5 33.5t79.5 10.5h272l4 -5l-10 -67l-6 -5h-183v-606l-4 -4h-68l-5 4v252zM400 540l5 5h67l5 -5v-547l-5 -5h-67l-5 5v547z" />
    <glyph glyph-name="periodcentered" unicode="&#xb7;" horiz-adv-x="288" 
d="M93 216v94l5 5h92l5 -5v-94l-5 -5h-92z" />
    <glyph glyph-name="cedilla" unicode="&#xb8;" horiz-adv-x="542" 
d="M195 -100q22 -16 44 -16q38 0 53 20t15 47q0 6 -3 14.5t-6 16.5l-8 18h30q12 -12 23 -25q9 -11 16.5 -26t7.5 -32q0 -45 -30 -69t-72 -24q-22 0 -47 7.5t-41 24.5l-2 7l13 34z" />
    <glyph glyph-name="uni00B9" unicode="&#xb9;" horiz-adv-x="381" 
d="M62 370v52l5 5h93v284h-68l-6 5l-13 52l4 5h144l5 -5v-341h96l4 -5l-13 -52l-6 -5h-240z" />
    <glyph glyph-name="ordmasculine" unicode="&#xba;" horiz-adv-x="406" 
d="M203 344q-63 0 -101.5 31t-38.5 92v94q0 61 38.5 92.5t101.5 31.5t101.5 -31.5t38.5 -92.5v-94q0 -61 -38.5 -92t-101.5 -31zM203 401q33 0 55.5 17.5t22.5 53.5v85q0 35 -22.5 53t-55.5 18q-34 0 -56.5 -18t-22.5 -53v-85q0 -36 22.5 -53.5t56.5 -17.5z" />
    <glyph glyph-name="guillemotright" unicode="&#xbb;" horiz-adv-x="533" 
d="M391 273l-130 192l6 7h75l9 -6l126 -190v-7l-126 -189l-9 -6h-75l-6 7zM72 81l130 192l-130 192l6 7h75l9 -6l126 -190v-7l-126 -189l-9 -6h-75z" />
    <glyph glyph-name="onequarter" unicode="&#xbc;" horiz-adv-x="794" 
d="M51 272v52l5 5h93v284h-68l-6 5l-13 52l4 5h144l5 -5v-341h96l4 -5l-13 -52l-6 -5h-240zM439 539l7 4l53 -9l4 -6l-166 -523l-6 -5h-59l-3 5zM435 147l181 250l7 5l46 9l5 -4v-243h72l4 -5l-14 -51l-5 -5h-57v-95l-5 -6l-56 -8l-5 4v105h-156l-7 4zM609 164v90l2 38
l-22 -35l-53 -75l-16 -18h89z" />
    <glyph glyph-name="onehalf" unicode="&#xbd;" horiz-adv-x="812" 
d="M51 272v52l5 5h93v284h-68l-6 5l-13 52l4 5h144l5 -5v-341h96l4 -5l-13 -52l-6 -5h-240zM439 539l7 4l53 -9l4 -6l-166 -523l-6 -5h-59l-3 5zM490 36q1 20 15 40.5t34.5 41t44 42t43.5 43t33.5 43t13.5 43.5q0 25 -16.5 43.5t-42.5 18.5q-22 0 -41.5 -13.5t-36.5 -36.5
h-5l-43 31v5q14 21 32 38q16 14 40 26t56 12q24 0 46.5 -8t40.5 -23.5t28.5 -38t10.5 -51.5q0 -26 -11.5 -50.5t-29 -46.5t-38.5 -42t-39.5 -37t-32.5 -30.5t-18 -23.5h179l4 -5l-14 -52l-6 -5h-234l-6 5z" />
    <glyph glyph-name="threequarters" unicode="&#xbe;" horiz-adv-x="788" 
d="M183 263q-36 0 -61.5 12t-42.5 26q-19 17 -33 39l1 6l45 34h8q9 -16 21 -28q11 -11 26.5 -19t35.5 -8q28 0 50 15t22 44v10q0 27 -23 42t-65 15h-37l-4 5l18 51l6 5h17q43 0 61 15t18 38q0 29 -19.5 42t-47.5 13q-16 0 -28.5 -5.5t-22 -13t-16 -15t-10.5 -10.5l-8 -1
l-43 29v7q14 19 32 35q16 14 40 25t56 11q57 0 94.5 -30t37.5 -86q0 -23 -10.5 -46t-36.5 -37q31 -12 43.5 -35t12.5 -46v-23q0 -29 -11.5 -50.5t-30.5 -36t-43.5 -22t-51.5 -7.5zM435 539l7 4l53 -9l4 -6l-166 -523l-6 -5h-59l-3 5zM429 147l181 250l7 5l46 9l5 -4v-243h72
l4 -5l-14 -51l-5 -5h-57v-95l-5 -6l-56 -8l-5 4v105h-156l-7 4zM603 164v90l2 38l-22 -35l-53 -75l-16 -18h89z" />
    <glyph glyph-name="questiondown" unicode="&#xbf;" horiz-adv-x="496" 
d="M214 440v91l5 5h89l5 -5v-91l-5 -5h-89zM60 81q0 38 13 69t35.5 53.5t53.5 36t67 17.5l3 88l5 5h59l5 -5v-150l-5 -6l-68 -11q-41 -7 -62.5 -38t-21.5 -76v-24q0 -54 29.5 -81.5t83.5 -27.5t86 26t32 83l6 4l69 -15l5 -6q0 -42 -15.5 -74t-42.5 -54t-63 -33t-77 -11
t-77 11t-62.5 33t-42 54t-15.5 74v58z" />
    <glyph glyph-name="Agrave" unicode="&#xc0;" horiz-adv-x="590" 
d="M175 861l5 4h108l7 -4l60 -102l-1 -6l-50 -20h-6zM245 665l6 5l84 11l6 -4l237 -672l-3 -5h-80l-6 5l-55 161h-279l-54 -161l-5 -5h-81l-3 5zM409 242l-104 308l-10 43l-10 -43l-104 -308h228z" />
    <glyph glyph-name="Aacute" unicode="&#xc1;" horiz-adv-x="590" 
d="M235 753l-1 6l60 102l7 4h108l5 -4l-123 -128h-6zM245 665l6 5l84 11l6 -4l237 -672l-3 -5h-80l-6 5l-55 161h-279l-54 -161l-5 -5h-81l-3 5zM409 242l-104 308l-10 43l-10 -43l-104 -308h228z" />
    <glyph glyph-name="Acircumflex" unicode="&#xc2;" horiz-adv-x="590" 
d="M165 751l-2 7l92 102l9 5h60l9 -5l92 -102l-2 -7l-55 -18h-7l-67 78l-67 -78h-7zM245 665l6 5l84 11l6 -4l237 -672l-3 -5h-80l-6 5l-55 161h-279l-54 -161l-5 -5h-81l-3 5zM409 242l-104 308l-10 43l-10 -43l-104 -308h228z" />
    <glyph glyph-name="Atilde" unicode="&#xc3;" horiz-adv-x="590" 
d="M153 783v7q20 33 41 49.5t54 16.5q20 0 33.5 -7t23.5 -16t19.5 -16t21.5 -7q9 0 20.5 8.5t27.5 24.5l7 2l36 -27v-7q-19 -33 -41.5 -49.5t-55.5 -16.5q-20 0 -33 7t-23 15.5t-19.5 15.5t-21.5 7q-18 0 -47 -32l-7 -2zM245 665l6 5l84 11l6 -4l237 -672l-3 -5h-80l-6 5
l-55 161h-279l-54 -161l-5 -5h-81l-3 5zM409 242l-104 308l-10 43l-10 -43l-104 -308h228z" />
    <glyph glyph-name="Adieresis" unicode="&#xc4;" horiz-adv-x="590" 
d="M322 779v78l5 5h73l5 -5v-78l-5 -5h-73zM185 779v78l5 5h73l5 -5v-78l-5 -5h-73zM245 665l6 5l84 11l6 -4l237 -672l-3 -5h-80l-6 5l-55 161h-279l-54 -161l-5 -5h-81l-3 5zM409 242l-104 308l-10 43l-10 -43l-104 -308h228z" />
    <glyph glyph-name="Aring" unicode="&#xc5;" horiz-adv-x="590" 
d="M295 733q-31 0 -56 16.5t-25 49.5v13q0 33 25 49t56 16t56 -16t25 -49v-13q0 -33 -25 -49.5t-56 -16.5zM295 772q16 0 26.5 8t10.5 25t-10.5 25t-26.5 8t-26.5 -8t-10.5 -25t10.5 -25t26.5 -8zM245 665l6 5l84 11l6 -4l237 -672l-3 -5h-80l-6 5l-55 161h-279l-54 -161
l-5 -5h-81l-3 5zM409 242l-104 308l-10 43l-10 -43l-104 -308h228z" />
    <glyph glyph-name="AE" unicode="&#xc6;" horiz-adv-x="766" 
d="M267 670l6 5h404l5 -5v-70l-5 -5h-278l41 -200h233l5 -5l-14 -70l-6 -5h-201l48 -235h205l4 -5l-10 -70l-6 -5h-257l-6 5l-33 159h-241l-58 -159l-5 -5h-86l-3 5zM386 244l-62 306l-8 45l-12 -45l-113 -306h195z" />
    <glyph glyph-name="Ccedilla" unicode="&#xc7;" horiz-adv-x="627" 
d="M222 -100q22 -16 44 -16q38 0 53 20t15 47q0 8 -3.5 18.5t-7.5 18.5q-57 1 -103.5 17.5t-79.5 47t-51 76t-18 104.5v204q0 61 19 107t53.5 77.5t82.5 47.5t107 16q83 0 145 -36t89 -102l-3 -6l-67 -28l-7 2q-20 42 -61.5 66t-95.5 24q-38 0 -70.5 -11t-56 -33t-36.5 -55
t-13 -76v-188q0 -45 13 -77.5t36.5 -54t56 -32t70.5 -10.5q62 0 105 24t64 69l7 2l65 -25l3 -6q-23 -66 -79.5 -102t-138.5 -41q11 -11 23 -29.5t12 -42.5q0 -45 -30 -69t-72 -24q-22 0 -47 7.5t-41 24.5l-2 7l13 34z" />
    <glyph glyph-name="Egrave" unicode="&#xc8;" horiz-adv-x="513" 
d="M160 861l5 4h108l7 -4l60 -102l-1 -6l-50 -20h-6zM93 670l5 5h347l5 -5v-70l-5 -5h-268v-200h233l4 -5l-18 -70l-6 -5h-213v-235h269l4 -5l-10 -70l-6 -5h-336l-5 5v665z" />
    <glyph glyph-name="Eacute" unicode="&#xc9;" horiz-adv-x="513" 
d="M224 753l-1 6l60 102l7 4h108l5 -4l-123 -128h-6zM93 670l5 5h347l5 -5v-70l-5 -5h-268v-200h233l4 -5l-18 -70l-6 -5h-213v-235h269l4 -5l-10 -70l-6 -5h-336l-5 5v665z" />
    <glyph glyph-name="Ecircumflex" unicode="&#xca;" horiz-adv-x="513" 
d="M150 751l-2 7l92 102l9 5h60l9 -5l92 -102l-2 -7l-55 -18h-7l-67 78l-67 -78h-7zM93 670l5 5h347l5 -5v-70l-5 -5h-268v-200h233l4 -5l-18 -70l-6 -5h-213v-235h269l4 -5l-10 -70l-6 -5h-336l-5 5v665z" />
    <glyph glyph-name="Edieresis" unicode="&#xcb;" horiz-adv-x="513" 
d="M307 779v78l5 5h73l5 -5v-78l-5 -5h-73zM170 779v78l5 5h73l5 -5v-78l-5 -5h-73zM93 670l5 5h347l5 -5v-70l-5 -5h-268v-200h233l4 -5l-18 -70l-6 -5h-213v-235h269l4 -5l-10 -70l-6 -5h-336l-5 5v665z" />
    <glyph glyph-name="Igrave" unicode="&#xcc;" horiz-adv-x="271" 
d="M14 861l5 4h108l7 -4l60 -102l-1 -6l-50 -20h-6zM93 665l5 6l74 10l5 -4v-672l-5 -5h-74l-5 5v660z" />
    <glyph glyph-name="Iacute" unicode="&#xcd;" horiz-adv-x="271" 
d="M78 753l-1 6l60 102l7 4h108l5 -4l-123 -128h-6zM93 665l5 6l74 10l5 -4v-672l-5 -5h-74l-5 5v660z" />
    <glyph glyph-name="Icircumflex" unicode="&#xce;" horiz-adv-x="271" 
d="M6 751l-2 7l92 102l9 5h60l9 -5l92 -102l-2 -7l-55 -18h-7l-67 78l-67 -78h-7zM93 665l5 6l74 10l5 -4v-672l-5 -5h-74l-5 5v660z" />
    <glyph glyph-name="Idieresis" unicode="&#xcf;" horiz-adv-x="271" 
d="M161 779v78l5 5h73l5 -5v-78l-5 -5h-73zM24 779v78l5 5h73l5 -5v-78l-5 -5h-73zM93 665l5 6l74 10l5 -4v-672l-5 -5h-74l-5 5v660z" />
    <glyph glyph-name="Eth" unicode="&#xd0;" horiz-adv-x="670" 
d="M107 296h-46l-5 5v70l5 5h46v294l5 5h221q60 0 109 -16t84 -47t54 -76.5t19 -105.5v-187q0 -60 -19 -105.5t-54 -76t-84 -46t-109 -15.5h-221l-5 5v291zM333 80q38 0 71 10t57 31t38 53.5t14 77.5v169q0 44 -14 76.5t-38 54.5t-57 32.5t-71 10.5h-142v-219h127l4 -5
l-18 -70l-6 -5h-107v-216h142z" />
    <glyph glyph-name="Ntilde" unicode="&#xd1;" horiz-adv-x="707" 
d="M219 783v7q20 33 41 49.5t54 16.5q20 0 33.5 -7t23.5 -16t19.5 -16t21.5 -7q9 0 20.5 8.5t27.5 24.5l7 2l36 -27v-7q-19 -33 -41.5 -49.5t-55.5 -16.5q-20 0 -33 7t-23 15.5t-19.5 15.5t-21.5 7q-18 0 -47 -32l-7 -2zM93 665l5 6l74 10l7 -4l324 -488l26 -48v524l5 6
l74 10l5 -4v-672l-5 -5h-71l-8 5l-326 492l-26 48v-540l-5 -5h-74l-5 5v660z" />
    <glyph glyph-name="Ograve" unicode="&#xd2;" horiz-adv-x="668" 
d="M212 861l5 4h108l7 -4l60 -102l-1 -6l-50 -20h-6zM71 437q0 61 19 107t53.5 77.5t83 47.5t107.5 16t107.5 -16t83 -47.5t53.5 -77.5t19 -107v-204q0 -60 -19 -106t-53.5 -77t-83 -46.5t-107.5 -15.5t-107.5 15.5t-83 46.5t-53.5 77t-19 106v204zM157 242
q0 -45 13.5 -77.5t37 -54t56 -32t70.5 -10.5t70.5 10.5t56 32t37 54t13.5 77.5v188q0 43 -13.5 76t-37 55t-56 33t-70.5 11t-70.5 -11t-56 -33t-37 -55t-13.5 -76v-188z" />
    <glyph glyph-name="Oacute" unicode="&#xd3;" horiz-adv-x="668" 
d="M279 759l60 102l7 4h108l5 -4l-123 -128h-6l-50 20zM71 437q0 61 19 107t53.5 77.5t83 47.5t107.5 16t107.5 -16t83 -47.5t53.5 -77.5t19 -107v-204q0 -60 -19 -106t-53.5 -77t-83 -46.5t-107.5 -15.5t-107.5 15.5t-83 46.5t-53.5 77t-19 106v204zM157 242
q0 -45 13.5 -77.5t37 -54t56 -32t70.5 -10.5t70.5 10.5t56 32t37 54t13.5 77.5v188q0 43 -13.5 76t-37 55t-56 33t-70.5 11t-70.5 -11t-56 -33t-37 -55t-13.5 -76v-188z" />
    <glyph glyph-name="Ocircumflex" unicode="&#xd4;" horiz-adv-x="668" 
d="M206 751l-2 7l92 102l9 5h60l9 -5l92 -102l-2 -7l-55 -18h-7l-67 78l-67 -78h-7zM71 437q0 61 19 107t53.5 77.5t83 47.5t107.5 16t107.5 -16t83 -47.5t53.5 -77.5t19 -107v-204q0 -60 -19 -106t-53.5 -77t-83 -46.5t-107.5 -15.5t-107.5 15.5t-83 46.5t-53.5 77t-19 106
v204zM157 242q0 -45 13.5 -77.5t37 -54t56 -32t70.5 -10.5t70.5 10.5t56 32t37 54t13.5 77.5v188q0 43 -13.5 76t-37 55t-56 33t-70.5 11t-70.5 -11t-56 -33t-37 -55t-13.5 -76v-188z" />
    <glyph glyph-name="Otilde" unicode="&#xd5;" horiz-adv-x="668" 
d="M194 783v7q20 33 41 49.5t54 16.5q20 0 33.5 -7t23.5 -16t19.5 -16t21.5 -7q9 0 20.5 8.5t27.5 24.5l7 2l36 -27v-7q-19 -33 -41.5 -49.5t-55.5 -16.5q-20 0 -33 7t-23 15.5t-19.5 15.5t-21.5 7q-18 0 -47 -32l-7 -2zM71 437q0 61 19 107t53.5 77.5t83 47.5t107.5 16
t107.5 -16t83 -47.5t53.5 -77.5t19 -107v-204q0 -60 -19 -106t-53.5 -77t-83 -46.5t-107.5 -15.5t-107.5 15.5t-83 46.5t-53.5 77t-19 106v204zM157 242q0 -45 13.5 -77.5t37 -54t56 -32t70.5 -10.5t70.5 10.5t56 32t37 54t13.5 77.5v188q0 43 -13.5 76t-37 55t-56 33
t-70.5 11t-70.5 -11t-56 -33t-37 -55t-13.5 -76v-188z" />
    <glyph glyph-name="Odieresis" unicode="&#xd6;" horiz-adv-x="668" 
d="M363 779v78l5 5h73l5 -5v-78l-5 -5h-73zM226 779v78l5 5h73l5 -5v-78l-5 -5h-73zM71 437q0 61 19 107t53.5 77.5t83 47.5t107.5 16t107.5 -16t83 -47.5t53.5 -77.5t19 -107v-204q0 -60 -19 -106t-53.5 -77t-83 -46.5t-107.5 -15.5t-107.5 15.5t-83 46.5t-53.5 77t-19 106
v204zM157 242q0 -45 13.5 -77.5t37 -54t56 -32t70.5 -10.5t70.5 10.5t56 32t37 54t13.5 77.5v188q0 43 -13.5 76t-37 55t-56 33t-70.5 11t-70.5 -11t-56 -33t-37 -55t-13.5 -76v-188z" />
    <glyph glyph-name="multiply" unicode="&#xd7;" 
d="M95 148v7l129 129l-131 131l1 7l57 42l7 -1l122 -122l127 128h7l43 -58l-3 -7l-118 -119l127 -127v-7l-49 -49h-7l-127 126l-129 -129h-7z" />
    <glyph glyph-name="Oslash" unicode="&#xd8;" horiz-adv-x="668" 
d="M143 50q-35 31 -53.5 77t-18.5 106v204q0 61 19 107t53.5 77.5t83 47.5t107.5 16q90 0 153 -36l26 45l7 2l49 -18l2 -5l-36 -62q29 -32 45.5 -75t16.5 -99v-204q0 -60 -19 -106t-53.5 -77t-83 -46.5t-107.5 -15.5q-81 0 -141 29l-32 -55l-6 -2l-45 25l-2 5zM444 574
q-23 16 -50.5 23.5t-59.5 7.5q-38 0 -70.5 -11t-56 -33t-37 -55t-13.5 -76v-188q0 -69 32 -112zM235 90q41 -22 99 -22q38 0 70.5 10.5t56 32t37 54t13.5 77.5v188q0 29 -6.5 53.5t-17.5 44.5z" />
    <glyph glyph-name="Ugrave" unicode="&#xd9;" horiz-adv-x="695" 
d="M228 861l5 4h108l7 -4l60 -102l-1 -6l-50 -20h-6zM86 665l5 6l74 10l5 -4v-435q0 -45 13.5 -77.5t37.5 -54t56 -32t70 -10.5q79 0 128 42.5t49 131.5v423l5 6l74 10l5 -4v-444q0 -121 -69.5 -183t-191.5 -62q-60 0 -108 15.5t-82 46.5t-52.5 77t-18.5 106v432z" />
    <glyph glyph-name="Uacute" unicode="&#xda;" horiz-adv-x="695" 
d="M295 759l60 102l7 4h108l5 -4l-123 -128h-6l-50 20zM86 665l5 6l74 10l5 -4v-435q0 -45 13.5 -77.5t37.5 -54t56 -32t70 -10.5q79 0 128 42.5t49 131.5v423l5 6l74 10l5 -4v-444q0 -121 -69.5 -183t-191.5 -62q-60 0 -108 15.5t-82 46.5t-52.5 77t-18.5 106v432z" />
    <glyph glyph-name="Ucircumflex" unicode="&#xdb;" horiz-adv-x="695" 
d="M215 758l92 102l9 5h60l9 -5l92 -102l-2 -7l-55 -18h-7l-67 78l-67 -78h-7l-55 18zM86 665l5 6l74 10l5 -4v-435q0 -45 13.5 -77.5t37.5 -54t56 -32t70 -10.5q79 0 128 42.5t49 131.5v423l5 6l74 10l5 -4v-444q0 -121 -69.5 -183t-191.5 -62q-60 0 -108 15.5t-82 46.5
t-52.5 77t-18.5 106v432z" />
    <glyph glyph-name="Udieresis" unicode="&#xdc;" horiz-adv-x="695" 
d="M374 779v78l5 5h73l5 -5v-78l-5 -5h-73zM237 779v78l5 5h73l5 -5v-78l-5 -5h-73zM86 665l5 6l74 10l5 -4v-435q0 -45 13.5 -77.5t37.5 -54t56 -32t70 -10.5q79 0 128 42.5t49 131.5v423l5 6l74 10l5 -4v-444q0 -121 -69.5 -183t-191.5 -62q-60 0 -108 15.5t-82 46.5
t-52.5 77t-18.5 106v432z" />
    <glyph glyph-name="Yacute" unicode="&#xdd;" horiz-adv-x="514" 
d="M197 753l-1 6l60 102l7 4h108l5 -4l-123 -128h-6zM215 296l-203 367l5 7l84 11l6 -4l134 -266l16 -39l17 39l127 252l5 6l91 12l6 -4l-204 -381v-291l-5 -5h-74l-5 5v291z" />
    <glyph glyph-name="Thorn" unicode="&#xde;" horiz-adv-x="556" 
d="M93 665l5 6l74 10l5 -4v-141h97q48 0 87.5 -7.5t70.5 -25.5q40 -23 62 -64.5t22 -103.5q0 -44 -13.5 -83.5t-41 -69t-69.5 -47t-99 -17.5q-42 0 -74.5 13t-46.5 45l5 -40v-131l-5 -5h-74l-5 5v660zM177 210q20 -7 44.5 -12t50.5 -5q33 0 62 8t50 25.5t33 44t12 62.5
q0 38 -13 62.5t-34.5 38.5t-49.5 19.5t-58 5.5h-97v-249z" />
    <glyph glyph-name="germandbls" unicode="&#xdf;" horiz-adv-x="556" 
d="M85 388q0 70 40 109t107 39h210l5 -5v-44l-111 -168q34 -1 65.5 -11t55.5 -29t38 -48.5t14 -69.5q0 -42 -16 -72.5t-42.5 -50t-61 -29t-72.5 -9.5h-83l-4 6l13 64l6 4h58q22 0 43 4.5t37.5 14.5t27 27t10.5 41t-10.5 40.5t-27 26.5t-37.5 14.5t-43 4.5h-58l-5 5l-12 45
l108 165h-104q-9 0 -21 -4t-22.5 -13.5t-18 -25t-7.5 -38.5v-376l-5 -5h-72l-5 5v383z" />
    <glyph glyph-name="agrave" unicode="&#xe0;" horiz-adv-x="531" 
d="M143 717l5 4h108l7 -4l60 -102l-1 -6l-50 -20h-6zM217 529l5 5l83 9l5 -5l202 -533l-5 -5h-79l-5 5l-44 125h-228l-44 -125l-5 -5h-79l-5 5zM354 200l-80 227l-10 35l-9 -35l-80 -227h179z" />
    <glyph glyph-name="aacute" unicode="&#xe1;" horiz-adv-x="531" 
d="M207 609l-1 6l60 102l7 4h108l5 -4l-123 -128h-6zM217 529l5 5l83 9l5 -5l202 -533l-5 -5h-79l-5 5l-44 125h-228l-44 -125l-5 -5h-79l-5 5zM354 200l-80 227l-10 35l-9 -35l-80 -227h179z" />
    <glyph glyph-name="acircumflex" unicode="&#xe2;" horiz-adv-x="531" 
d="M133 607l-2 7l92 102l9 5h60l9 -5l92 -102l-2 -7l-55 -18h-7l-67 78l-67 -78h-7zM217 529l5 5l83 9l5 -5l202 -533l-5 -5h-79l-5 5l-44 125h-228l-44 -125l-5 -5h-79l-5 5zM354 200l-80 227l-10 35l-9 -35l-80 -227h179z" />
    <glyph glyph-name="atilde" unicode="&#xe3;" horiz-adv-x="531" 
d="M121 639v7q20 33 41 49.5t54 16.5q20 0 33.5 -7t23.5 -16t19.5 -16t21.5 -7q9 0 20.5 8.5t27.5 24.5l7 2l36 -27v-7q-19 -33 -41.5 -49.5t-55.5 -16.5q-20 0 -33 7t-23 15.5t-19.5 15.5t-21.5 7q-18 0 -47 -32l-7 -2zM217 529l5 5l83 9l5 -5l202 -533l-5 -5h-79l-5 5
l-44 125h-228l-44 -125l-5 -5h-79l-5 5zM354 200l-80 227l-10 35l-9 -35l-80 -227h179z" />
    <glyph glyph-name="adieresis" unicode="&#xe4;" horiz-adv-x="531" 
d="M290 635v78l5 5h73l5 -5v-78l-5 -5h-73zM153 635v78l5 5h73l5 -5v-78l-5 -5h-73zM217 529l5 5l83 9l5 -5l202 -533l-5 -5h-79l-5 5l-44 125h-228l-44 -125l-5 -5h-79l-5 5zM354 200l-80 227l-10 35l-9 -35l-80 -227h179z" />
    <glyph glyph-name="aring" unicode="&#xe5;" horiz-adv-x="531" 
d="M263 589q-31 0 -56 16.5t-25 49.5v13q0 33 25 49t56 16t56 -16t25 -49v-13q0 -33 -25 -49.5t-56 -16.5zM263 628q16 0 26.5 8t10.5 25t-10.5 25t-26.5 8t-26.5 -8t-10.5 -25t10.5 -25t26.5 -8zM217 529l5 5l83 9l5 -5l202 -533l-5 -5h-79l-5 5l-44 125h-228l-44 -125
l-5 -5h-79l-5 5zM354 200l-80 227l-10 35l-9 -35l-80 -227h179z" />
    <glyph glyph-name="ae" unicode="&#xe6;" horiz-adv-x="682" 
d="M275 530l7 6h350l5 -5v-64l-5 -5h-234l32 -143h199l5 -5l-14 -65l-6 -5h-167l38 -170h176l4 -5l-12 -64l-6 -5h-224l-5 5l-27 120h-200l-48 -120l-5 -5h-83l-3 5zM374 200l-50 222l-5 27l-7 -27l-90 -222h152z" />
    <glyph glyph-name="ccedilla" unicode="&#xe7;" horiz-adv-x="560" 
d="M68 348q0 49 16.5 86t46 62.5t71.5 38.5t93 13q63 0 103 -18.5t63 -40.5q26 -26 40 -58l-3 -6l-63 -25l-7 2q-17 32 -52 52t-81 20q-62 0 -103 -33.5t-41 -98.5v-148q0 -68 41 -100t103 -32q51 0 87 19.5t54 54.5l7 2l63 -22l3 -6q-21 -56 -69.5 -86t-119.5 -35
q11 -11 23 -30t12 -42q0 -45 -30 -69t-72 -24q-22 0 -47 7.5t-41 24.5l-2 7l13 34l7 3q22 -16 44 -16q38 0 53 20t15 47q0 8 -3.5 18.5t-7.5 18.5q-49 1 -88.5 14.5t-68 38.5t-44 61.5t-15.5 83.5v162z" />
    <glyph glyph-name="egrave" unicode="&#xe8;" horiz-adv-x="463" 
d="M131 717l5 4h108l7 -4l60 -102l-1 -6l-50 -20h-6zM87 531l5 5h304l5 -5v-64l-5 -5h-227v-142h199l4 -5l-18 -64l-6 -5h-179v-172h229l4 -5l-10 -64l-6 -5h-294l-5 5v526z" />
    <glyph glyph-name="eacute" unicode="&#xe9;" horiz-adv-x="463" 
d="M195 609l-1 6l60 102l7 4h108l5 -4l-123 -128h-6zM87 531l5 5h304l5 -5v-64l-5 -5h-227v-142h199l4 -5l-18 -64l-6 -5h-179v-172h229l4 -5l-10 -64l-6 -5h-294l-5 5v526z" />
    <glyph glyph-name="ecircumflex" unicode="&#xea;" horiz-adv-x="463" 
d="M121 607l-2 7l92 102l9 5h60l9 -5l92 -102l-2 -7l-55 -18h-7l-67 78l-67 -78h-7zM87 531l5 5h304l5 -5v-64l-5 -5h-227v-142h199l4 -5l-18 -64l-6 -5h-179v-172h229l4 -5l-10 -64l-6 -5h-294l-5 5v526z" />
    <glyph glyph-name="edieresis" unicode="&#xeb;" horiz-adv-x="463" 
d="M278 635v78l5 5h73l5 -5v-78l-5 -5h-73zM141 635v78l5 5h73l5 -5v-78l-5 -5h-73zM87 531l5 5h304l5 -5v-64l-5 -5h-227v-142h199l4 -5l-18 -64l-6 -5h-179v-172h229l4 -5l-10 -64l-6 -5h-294l-5 5v526z" />
    <glyph glyph-name="igrave" unicode="&#xec;" horiz-adv-x="257" 
d="M12 721l5 4h108l7 -4l60 -102l-1 -6l-50 -20h-6zM87 527l5 6l72 10l5 -5v-533l-5 -5h-72l-5 5v522z" />
    <glyph glyph-name="iacute" unicode="&#xed;" horiz-adv-x="257" 
d="M76 613l-1 6l60 102l7 4h108l5 -4l-123 -128h-6zM87 527l5 6l72 10l5 -5v-533l-5 -5h-72l-5 5v522z" />
    <glyph glyph-name="icircumflex" unicode="&#xee;" horiz-adv-x="257" 
d="M2 611l-2 7l92 102l9 5h60l9 -5l92 -102l-2 -7l-55 -18h-7l-67 78l-67 -78h-7zM87 527l5 6l72 10l5 -5v-533l-5 -5h-72l-5 5v522z" />
    <glyph glyph-name="idieresis" unicode="&#xef;" horiz-adv-x="257" 
d="M159 639v78l5 5h73l5 -5v-78l-5 -5h-73zM22 639v78l5 5h73l5 -5v-78l-5 -5h-73zM87 527l5 6l72 10l5 -5v-533l-5 -5h-72l-5 5v522z" />
    <glyph glyph-name="eth" unicode="&#xf0;" horiz-adv-x="597" 
d="M101 237h-41l-5 5v64l5 5h41v220l5 5h195q51 0 93 -13t72 -38.5t46.5 -62.5t16.5 -86v-138q0 -49 -16.5 -86t-46.5 -62t-72 -37.5t-93 -12.5h-195l-5 5v232zM301 74q63 0 104 32t41 99v125q0 66 -41 99t-104 33h-118v-151h134l4 -5l-18 -64l-6 -5h-114v-163h118z" />
    <glyph glyph-name="ntilde" unicode="&#xf1;" horiz-adv-x="628" 
d="M173 639v7q20 33 41 49.5t54 16.5q20 0 33.5 -7t23.5 -16t19.5 -16t21.5 -7q9 0 20.5 8.5t27.5 24.5l7 2l36 -27v-7q-19 -33 -41.5 -49.5t-55.5 -16.5q-20 0 -33 7t-23 15.5t-19.5 15.5t-21.5 7q-18 0 -47 -32l-7 -2zM87 527l5 6l71 10l7 -4l269 -374l19 -37v399l5 6
l72 10l5 -5v-533l-5 -5h-68l-6 4l-272 379l-20 39v-417l-5 -5h-72l-5 5v522z" />
    <glyph glyph-name="ograve" unicode="&#xf2;" horiz-adv-x="594" 
d="M177 717l5 4h108l7 -4l60 -102l-1 -6l-50 -20h-6zM68 348q0 49 16.5 86t46.5 62.5t72.5 38.5t93.5 13t93.5 -13t72.5 -38.5t46.5 -62.5t16.5 -86v-162q0 -48 -16.5 -85t-46.5 -62t-72.5 -38t-93.5 -13t-93.5 13t-72.5 38t-46.5 62t-16.5 85v162zM151 194q0 -68 41.5 -100
t104.5 -32t104.5 32t41.5 100v148q0 66 -41.5 99t-104.5 33t-104.5 -33t-41.5 -99v-148z" />
    <glyph glyph-name="oacute" unicode="&#xf3;" horiz-adv-x="594" 
d="M240 615l60 102l7 4h108l5 -4l-123 -128h-6l-50 20zM68 348q0 49 16.5 86t46.5 62.5t72.5 38.5t93.5 13t93.5 -13t72.5 -38.5t46.5 -62.5t16.5 -86v-162q0 -48 -16.5 -85t-46.5 -62t-72.5 -38t-93.5 -13t-93.5 13t-72.5 38t-46.5 62t-16.5 85v162zM151 194
q0 -68 41.5 -100t104.5 -32t104.5 32t41.5 100v148q0 66 -41.5 99t-104.5 33t-104.5 -33t-41.5 -99v-148z" />
    <glyph glyph-name="ocircumflex" unicode="&#xf4;" horiz-adv-x="594" 
d="M165 614l92 102l9 5h60l9 -5l92 -102l-2 -7l-55 -18h-7l-67 78l-67 -78h-7l-55 18zM68 348q0 49 16.5 86t46.5 62.5t72.5 38.5t93.5 13t93.5 -13t72.5 -38.5t46.5 -62.5t16.5 -86v-162q0 -48 -16.5 -85t-46.5 -62t-72.5 -38t-93.5 -13t-93.5 13t-72.5 38t-46.5 62
t-16.5 85v162zM151 194q0 -68 41.5 -100t104.5 -32t104.5 32t41.5 100v148q0 66 -41.5 99t-104.5 33t-104.5 -33t-41.5 -99v-148z" />
    <glyph glyph-name="otilde" unicode="&#xf5;" horiz-adv-x="594" 
d="M155 639v7q20 33 41 49.5t54 16.5q20 0 33.5 -7t23.5 -16t19.5 -16t21.5 -7q9 0 20.5 8.5t27.5 24.5l7 2l36 -27v-7q-19 -33 -41.5 -49.5t-55.5 -16.5q-20 0 -33 7t-23 15.5t-19.5 15.5t-21.5 7q-18 0 -47 -32l-7 -2zM68 348q0 49 16.5 86t46.5 62.5t72.5 38.5t93.5 13
t93.5 -13t72.5 -38.5t46.5 -62.5t16.5 -86v-162q0 -48 -16.5 -85t-46.5 -62t-72.5 -38t-93.5 -13t-93.5 13t-72.5 38t-46.5 62t-16.5 85v162zM151 194q0 -68 41.5 -100t104.5 -32t104.5 32t41.5 100v148q0 66 -41.5 99t-104.5 33t-104.5 -33t-41.5 -99v-148z" />
    <glyph glyph-name="odieresis" unicode="&#xf6;" horiz-adv-x="594" 
d="M324 635v78l5 5h73l5 -5v-78l-5 -5h-73zM187 635v78l5 5h73l5 -5v-78l-5 -5h-73zM68 348q0 49 16.5 86t46.5 62.5t72.5 38.5t93.5 13t93.5 -13t72.5 -38.5t46.5 -62.5t16.5 -86v-162q0 -48 -16.5 -85t-46.5 -62t-72.5 -38t-93.5 -13t-93.5 13t-72.5 38t-46.5 62t-16.5 85
v162zM151 194q0 -68 41.5 -100t104.5 -32t104.5 32t41.5 100v148q0 66 -41.5 99t-104.5 33t-104.5 -33t-41.5 -99v-148z" />
    <glyph glyph-name="divide" unicode="&#xf7;" 
d="M222 390v94l5 5h92l5 -5v-94l-5 -5h-92zM94 237v69l5 5h358l4 -5l-18 -69l-6 -5h-338zM222 154l5 5h92l5 -5v-94l-5 -5h-92l-5 5v94z" />
    <glyph glyph-name="oslash" unicode="&#xf8;" horiz-adv-x="592" 
d="M128 39q-29 26 -45 62.5t-16 84.5v162q0 49 16.5 86t46.5 62.5t72.5 38.5t93.5 13q63 0 114 -20l27 47l7 2l45 -17l2 -5l-32 -56q32 -26 49 -63.5t17 -87.5v-162q0 -48 -16.5 -85t-46.5 -62t-72.5 -38t-93.5 -13q-67 0 -120 22l-27 -47l-6 -2l-41 24l-2 5zM370 459
q-32 15 -74 15q-63 0 -104.5 -33t-41.5 -99v-148q0 -48 22 -79zM216 78q17 -8 37 -12t43 -4q63 0 104.5 32t41.5 100v148q0 26 -7 46.5t-19 36.5z" />
    <glyph glyph-name="ugrave" unicode="&#xf9;" horiz-adv-x="618" 
d="M188 717l5 4h108l7 -4l60 -102l-1 -6l-50 -20h-6zM81 527l5 6l72 10l5 -5v-344q0 -34 11 -58.5t30.5 -41t46 -24.5t57.5 -8q66 0 106 32t40 100v333l5 6l72 10l5 -5v-352q0 -97 -61 -147.5t-167 -50.5q-104 0 -165.5 50.5t-61.5 147.5v341z" />
    <glyph glyph-name="uacute" unicode="&#xfa;" horiz-adv-x="618" 
d="M251 615l60 102l7 4h108l5 -4l-123 -128h-6l-50 20zM81 527l5 6l72 10l5 -5v-344q0 -34 11 -58.5t30.5 -41t46 -24.5t57.5 -8q66 0 106 32t40 100v333l5 6l72 10l5 -5v-352q0 -97 -61 -147.5t-167 -50.5q-104 0 -165.5 50.5t-61.5 147.5v341z" />
    <glyph glyph-name="ucircumflex" unicode="&#xfb;" horiz-adv-x="618" 
d="M176 614l92 102l9 5h60l9 -5l92 -102l-2 -7l-55 -18h-7l-67 78l-67 -78h-7l-55 18zM81 527l5 6l72 10l5 -5v-344q0 -34 11 -58.5t30.5 -41t46 -24.5t57.5 -8q66 0 106 32t40 100v333l5 6l72 10l5 -5v-352q0 -97 -61 -147.5t-167 -50.5q-104 0 -165.5 50.5t-61.5 147.5
v341z" />
    <glyph glyph-name="udieresis" unicode="&#xfc;" horiz-adv-x="618" 
d="M335 635v78l5 5h73l5 -5v-78l-5 -5h-73zM198 635v78l5 5h73l5 -5v-78l-5 -5h-73zM81 527l5 6l72 10l5 -5v-344q0 -34 11 -58.5t30.5 -41t46 -24.5t57.5 -8q66 0 106 32t40 100v333l5 6l72 10l5 -5v-352q0 -97 -61 -147.5t-167 -50.5q-104 0 -165.5 50.5t-61.5 147.5v341z
" />
    <glyph glyph-name="yacute" unicode="&#xfd;" horiz-adv-x="457" 
d="M174 609l-1 6l60 102l7 4h108l5 -4l-123 -128h-6zM189 237l-175 290l5 6l81 10l6 -4l112 -209l12 -26l12 26l106 198l7 5l85 10l6 -4l-175 -302v-232l-5 -5h-72l-5 5v232z" />
    <glyph glyph-name="thorn" unicode="&#xfe;" horiz-adv-x="499" 
d="M87 527l5 6l72 10l5 -4v-100h77q47 0 86 -9t66.5 -28.5t43 -51t15.5 -75.5q0 -42 -15 -75t-40 -55t-58 -33.5t-69 -11.5q-32 0 -53 7t-34 16q-15 10 -23 23l4 -31v-110l-5 -5h-72l-5 5v522zM169 182q16 -5 35.5 -8t39.5 -3q57 0 94 24.5t37 78.5q0 28 -10.5 46
t-28.5 28.5t-41.5 14.5t-48.5 4h-77v-185z" />
    <glyph glyph-name="ydieresis" unicode="&#xff;" horiz-adv-x="457" 
d="M257 635v78l5 5h73l5 -5v-78l-5 -5h-73zM120 635v78l5 5h73l5 -5v-78l-5 -5h-73zM189 237l-175 290l5 6l81 10l6 -4l112 -209l12 -26l12 26l106 198l7 5l85 10l6 -4l-175 -302v-232l-5 -5h-72l-5 5v232z" />
    <glyph glyph-name="Amacron" unicode="&#x100;" horiz-adv-x="590" 
d="M181 777v58l5 5h224l4 -5l-12 -58l-6 -5h-210zM245 665l6 5l84 11l6 -4l237 -672l-3 -5h-80l-6 5l-55 161h-279l-54 -161l-5 -5h-81l-3 5zM409 242l-104 308l-10 43l-10 -43l-104 -308h228z" />
    <glyph glyph-name="amacron" unicode="&#x101;" horiz-adv-x="531" 
d="M148 633v58l5 5h224l4 -5l-12 -58l-6 -5h-210zM217 529l5 5l83 9l5 -5l202 -533l-5 -5h-79l-5 5l-44 125h-228l-44 -125l-5 -5h-79l-5 5zM354 200l-80 227l-10 35l-9 -35l-80 -227h179z" />
    <glyph glyph-name="Abreve" unicode="&#x102;" horiz-adv-x="590" 
d="M295 733q-24 0 -45.5 7.5t-38 21t-26 33.5t-9.5 44q0 5 0.5 10.5t1.5 10.5l6 5h48l5 -5v-9q0 -24 14 -41t44 -17t44 17t14 41v9l5 5h48l6 -5q1 -5 1.5 -10.5t0.5 -10.5q0 -24 -9.5 -44t-26 -33.5t-38 -21t-45.5 -7.5zM245 665l6 5l84 11l6 -4l237 -672l-3 -5h-80l-6 5
l-55 161h-279l-54 -161l-5 -5h-81l-3 5zM409 242l-104 308l-10 43l-10 -43l-104 -308h228z" />
    <glyph glyph-name="abreve" unicode="&#x103;" horiz-adv-x="531" 
d="M263 589q-24 0 -45.5 7.5t-38 21t-26 33.5t-9.5 44q0 5 0.5 10.5t1.5 10.5l6 5h48l5 -5v-9q0 -24 14 -41t44 -17t44 17t14 41v9l5 5h48l6 -5q1 -5 1.5 -10.5t0.5 -10.5q0 -24 -9.5 -44t-26 -33.5t-38 -21t-45.5 -7.5zM217 529l5 5l83 9l5 -5l202 -533l-5 -5h-79l-5 5
l-44 125h-228l-44 -125l-5 -5h-79l-5 5zM354 200l-80 227l-10 35l-9 -35l-80 -227h179z" />
    <glyph glyph-name="Aogonek" unicode="&#x104;" horiz-adv-x="592" 
d="M245 665l6 5l88 11l6 -4l235 -672l-3 -5q-30 -10 -54 -25q-20 -13 -36.5 -33t-16.5 -49q0 -24 15 -39t57 -17l5 -5l-11 -46l-5 -5q-29 0 -54.5 6.5t-45 19t-31 30.5t-11.5 41q0 22 9.5 42t23.5 36.5t31.5 29t34.5 21.5l-52 157h-278l-52 -159l-5 -5h-84l-3 5zM410 244
l-103 306l-10 43l-10 -43l-103 -306h226z" />
    <glyph glyph-name="aogonek" unicode="&#x105;" horiz-adv-x="531" 
d="M217 529l5 5l83 9l5 -5l202 -533l-3 -5q-26 -10 -46 -25q-17 -13 -31.5 -33t-14.5 -49q0 -24 16.5 -39t54.5 -17l5 -5l-11 -46l-5 -5q-28 0 -53.5 6.5t-45 19t-31 30.5t-11.5 41q0 22 8 42t20.5 36.5t28 29t29.5 20.5l-43 124h-228l-44 -125l-5 -5h-79l-5 5zM354 200
l-80 227l-10 35l-9 -35l-80 -227h179z" />
    <glyph glyph-name="Cacute" unicode="&#x106;" horiz-adv-x="627" 
d="M278 759l60 102l7 4h108l5 -4l-123 -128h-6l-50 20zM71 437q0 61 19 107t53.5 77.5t82.5 47.5t107 16q83 0 145 -36t89 -102l-3 -6l-67 -28l-7 2q-20 42 -61.5 66t-95.5 24q-38 0 -70.5 -11t-56 -33t-36.5 -55t-13 -76v-188q0 -45 13 -77.5t36.5 -54t56 -32t70.5 -10.5
q62 0 105 24t64 69l7 2l65 -25l3 -6q-25 -72 -88 -108t-156 -36q-59 0 -107 15.5t-82.5 46.5t-53.5 77t-19 106v204z" />
    <glyph glyph-name="cacute" unicode="&#x107;" horiz-adv-x="560" 
d="M238 615l60 102l7 4h108l5 -4l-123 -128h-6l-50 20zM68 348q0 49 16.5 86t46 62.5t71.5 38.5t93 13q63 0 103 -18.5t63 -40.5q26 -26 40 -58l-3 -6l-63 -25l-7 2q-17 32 -52 52t-81 20q-62 0 -103 -33.5t-41 -98.5v-148q0 -68 41 -100t103 -32q51 0 87 19.5t54 54.5l7 2
l63 -22l3 -6q-23 -60 -78 -91t-136 -31q-51 0 -93 13t-71.5 38t-46 62t-16.5 85v162z" />
    <glyph glyph-name="Ccircumflex" unicode="&#x108;" horiz-adv-x="627" 
d="M206 751l-2 7l92 102l9 5h60l9 -5l92 -102l-2 -7l-55 -18h-7l-67 78l-67 -78h-7zM71 437q0 61 19 107t53.5 77.5t82.5 47.5t107 16q83 0 145 -36t89 -102l-3 -6l-67 -28l-7 2q-20 42 -61.5 66t-95.5 24q-38 0 -70.5 -11t-56 -33t-36.5 -55t-13 -76v-188q0 -45 13 -77.5
t36.5 -54t56 -32t70.5 -10.5q62 0 105 24t64 69l7 2l65 -25l3 -6q-25 -72 -88 -108t-156 -36q-59 0 -107 15.5t-82.5 46.5t-53.5 77t-19 106v204z" />
    <glyph glyph-name="ccircumflex" unicode="&#x109;" horiz-adv-x="560" 
d="M165 607l-2 7l92 102l9 5h60l9 -5l92 -102l-2 -7l-55 -18h-7l-67 78l-67 -78h-7zM68 348q0 49 16.5 86t46 62.5t71.5 38.5t93 13q63 0 103 -18.5t63 -40.5q26 -26 40 -58l-3 -6l-63 -25l-7 2q-17 32 -52 52t-81 20q-62 0 -103 -33.5t-41 -98.5v-148q0 -68 41 -100
t103 -32q51 0 87 19.5t54 54.5l7 2l63 -22l3 -6q-23 -60 -78 -91t-136 -31q-51 0 -93 13t-71.5 38t-46 62t-16.5 85v162z" />
    <glyph glyph-name="Cdotaccent" unicode="&#x10a;" horiz-adv-x="627" 
d="M285 777v83l5 5h83l5 -5v-83l-5 -5h-83zM71 437q0 61 19 107t53.5 77.5t82.5 47.5t107 16q83 0 145 -36t89 -102l-3 -6l-67 -28l-7 2q-20 42 -61.5 66t-95.5 24q-38 0 -70.5 -11t-56 -33t-36.5 -55t-13 -76v-188q0 -45 13 -77.5t36.5 -54t56 -32t70.5 -10.5q62 0 105 24
t64 69l7 2l65 -25l3 -6q-25 -72 -88 -108t-156 -36q-59 0 -107 15.5t-82.5 46.5t-53.5 77t-19 106v204z" />
    <glyph glyph-name="cdotaccent" unicode="&#x10b;" horiz-adv-x="560" 
d="M246 633v83l5 5h83l5 -5v-83l-5 -5h-83zM68 348q0 49 16.5 86t46 62.5t71.5 38.5t93 13q63 0 103 -18.5t63 -40.5q26 -26 40 -58l-3 -6l-63 -25l-7 2q-17 32 -52 52t-81 20q-62 0 -103 -33.5t-41 -98.5v-148q0 -68 41 -100t103 -32q51 0 87 19.5t54 54.5l7 2l63 -22l3 -6
q-23 -60 -78 -91t-136 -31q-51 0 -93 13t-71.5 38t-46 62t-16.5 85v162z" />
    <glyph glyph-name="Ccaron" unicode="&#x10c;" horiz-adv-x="627" 
d="M297 745l-92 102l2 7l55 18h7l67 -78l67 78h7l55 -18l2 -7l-92 -102l-9 -5h-60zM71 437q0 61 19 107t53.5 77.5t82.5 47.5t107 16q83 0 145 -36t89 -102l-3 -6l-67 -28l-7 2q-20 42 -61.5 66t-95.5 24q-38 0 -70.5 -11t-56 -33t-36.5 -55t-13 -76v-188q0 -45 13 -77.5
t36.5 -54t56 -32t70.5 -10.5q62 0 105 24t64 69l7 2l65 -25l3 -6q-25 -72 -88 -108t-156 -36q-59 0 -107 15.5t-82.5 46.5t-53.5 77t-19 106v204z" />
    <glyph glyph-name="ccaron" unicode="&#x10d;" horiz-adv-x="560" 
d="M256 601l-92 102l2 7l55 18h7l67 -78l67 78h7l55 -18l2 -7l-92 -102l-9 -5h-60zM68 348q0 49 16.5 86t46 62.5t71.5 38.5t93 13q63 0 103 -18.5t63 -40.5q26 -26 40 -58l-3 -6l-63 -25l-7 2q-17 32 -52 52t-81 20q-62 0 -103 -33.5t-41 -98.5v-148q0 -68 41 -100t103 -32
q51 0 87 19.5t54 54.5l7 2l63 -22l3 -6q-23 -60 -78 -91t-136 -31q-51 0 -93 13t-71.5 38t-46 62t-16.5 85v162z" />
    <glyph glyph-name="Dcaron" unicode="&#x10e;" horiz-adv-x="656" 
d="M284 745l-92 102l2 7l55 18h7l67 -78l67 78h7l55 -18l2 -7l-92 -102l-9 -5h-60zM93 670l5 5h224q59 0 107.5 -16t83 -47.5t53.5 -77.5t19 -107v-182q0 -60 -19 -106t-53.5 -77t-83 -46.5t-107.5 -15.5h-224l-5 5v665zM322 80q38 0 70.5 10.5t56 32t37 54t13.5 77.5v166
q0 43 -13.5 76t-37 55t-56 33t-70.5 11h-145v-515h145z" />
    <glyph glyph-name="dcaron" unicode="&#x10f;" horiz-adv-x="583" 
d="M248 601l-92 102l2 7l55 18h7l67 -78l67 78h7l55 -18l2 -7l-92 -102l-9 -5h-60zM87 531l5 5h195q51 0 93 -13t72 -38.5t46.5 -62.5t16.5 -86v-138q0 -49 -16.5 -86t-46.5 -62t-72 -37.5t-93 -12.5h-195l-5 5v526zM287 74q63 0 104 32t41 99v125q0 66 -41 99t-104 33h-118
v-388h118z" />
    <glyph glyph-name="Dcroat" unicode="&#x110;" horiz-adv-x="670" 
d="M107 296h-46l-5 5v70l5 5h46v294l5 5h221q60 0 109 -16t84 -47t54 -76.5t19 -105.5v-187q0 -60 -19 -105.5t-54 -76t-84 -46t-109 -15.5h-221l-5 5v291zM333 80q38 0 71 10t57 31t38 53.5t14 77.5v169q0 44 -14 76.5t-38 54.5t-57 32.5t-71 10.5h-142v-219h127l4 -5
l-18 -70l-6 -5h-107v-216h142z" />
    <glyph glyph-name="dcroat" unicode="&#x111;" horiz-adv-x="597" 
d="M101 237h-41l-5 5v64l5 5h41v220l5 5h195q51 0 93 -13t72 -38.5t46.5 -62.5t16.5 -86v-138q0 -49 -16.5 -86t-46.5 -62t-72 -37.5t-93 -12.5h-195l-5 5v232zM301 74q63 0 104 32t41 99v125q0 66 -41 99t-104 33h-118v-151h134l4 -5l-18 -64l-6 -5h-114v-163h118z" />
    <glyph glyph-name="Emacron" unicode="&#x112;" horiz-adv-x="513" 
d="M165 777v58l5 5h224l4 -5l-12 -58l-6 -5h-210zM93 670l5 5h347l5 -5v-70l-5 -5h-268v-200h233l4 -5l-18 -70l-6 -5h-213v-235h269l4 -5l-10 -70l-6 -5h-336l-5 5v665z" />
    <glyph glyph-name="emacron" unicode="&#x113;" horiz-adv-x="463" 
d="M136 633v58l5 5h224l4 -5l-12 -58l-6 -5h-210zM87 531l5 5h304l5 -5v-64l-5 -5h-227v-142h199l4 -5l-18 -64l-6 -5h-179v-172h229l4 -5l-10 -64l-6 -5h-294l-5 5v526z" />
    <glyph glyph-name="Ebreve" unicode="&#x114;" horiz-adv-x="513" 
d="M280 733q-24 0 -45.5 7.5t-38 21t-26 33.5t-9.5 44q0 5 0.5 10.5t1.5 10.5l6 5h48l5 -5v-9q0 -24 14 -41t44 -17t44 17t14 41v9l5 5h48l6 -5q1 -5 1.5 -10.5t0.5 -10.5q0 -24 -9.5 -44t-26 -33.5t-38 -21t-45.5 -7.5zM93 670l5 5h347l5 -5v-70l-5 -5h-268v-200h233l4 -5
l-18 -70l-6 -5h-213v-235h269l4 -5l-10 -70l-6 -5h-336l-5 5v665z" />
    <glyph glyph-name="ebreve" unicode="&#x115;" horiz-adv-x="463" 
d="M251 589q-24 0 -45.5 7.5t-38 21t-26 33.5t-9.5 44q0 5 0.5 10.5t1.5 10.5l6 5h48l5 -5v-9q0 -24 14 -41t44 -17t44 17t14 41v9l5 5h48l6 -5q1 -5 1.5 -10.5t0.5 -10.5q0 -24 -9.5 -44t-26 -33.5t-38 -21t-45.5 -7.5zM87 531l5 5h304l5 -5v-64l-5 -5h-227v-142h199l4 -5
l-18 -64l-6 -5h-179v-172h229l4 -5l-10 -64l-6 -5h-294l-5 5v526z" />
    <glyph glyph-name="Edotaccent" unicode="&#x116;" horiz-adv-x="513" 
d="M231 777v83l5 5h83l5 -5v-83l-5 -5h-83zM93 670l5 5h347l5 -5v-70l-5 -5h-268v-200h233l4 -5l-18 -70l-6 -5h-213v-235h269l4 -5l-10 -70l-6 -5h-336l-5 5v665z" />
    <glyph glyph-name="edotaccent" unicode="&#x117;" horiz-adv-x="463" 
d="M202 633v83l5 5h83l5 -5v-83l-5 -5h-83zM87 531l5 5h304l5 -5v-64l-5 -5h-227v-142h199l4 -5l-18 -64l-6 -5h-179v-172h229l4 -5l-10 -64l-6 -5h-294l-5 5v526z" />
    <glyph glyph-name="Eogonek" unicode="&#x118;" horiz-adv-x="513" 
d="M93 670l5 5h347l5 -5v-70l-5 -5h-268v-200h233l4 -5l-18 -70l-6 -5h-213v-235h269l4 -5l-10 -70q-12 -12 -26 -25.5t-25 -27.5t-18.5 -29t-7.5 -30q0 -24 16.5 -39t54.5 -17l5 -5l-11 -46l-5 -5q-28 0 -53.5 6.5t-45 19t-31 30.5t-11.5 41q0 21 7.5 39t19.5 33.5t27.5 28
t30.5 21.5h-269l-5 5v665z" />
    <glyph glyph-name="eogonek" unicode="&#x119;" horiz-adv-x="463" 
d="M87 531l5 5h304l5 -5v-64l-5 -5h-227v-142h199l4 -5l-18 -64l-6 -5h-179v-172h229l4 -5l-10 -64q-12 -12 -26 -25.5t-25 -27.5t-18.5 -29t-7.5 -30q0 -24 16.5 -39t54.5 -17l5 -5l-11 -46l-5 -5q-28 0 -53.5 6.5t-45 19t-31 30.5t-11.5 41q0 21 7.5 39t19.5 33.5t27.5 28
t30.5 21.5h-227l-5 5v526z" />
    <glyph glyph-name="Ecaron" unicode="&#x11a;" horiz-adv-x="513" 
d="M246 745l-92 102l2 7l55 18h7l67 -78l67 78h7l55 -18l2 -7l-92 -102l-9 -5h-60zM93 670l5 5h347l5 -5v-70l-5 -5h-268v-200h233l4 -5l-18 -70l-6 -5h-213v-235h269l4 -5l-10 -70l-6 -5h-336l-5 5v665z" />
    <glyph glyph-name="ecaron" unicode="&#x11b;" horiz-adv-x="463" 
d="M212 601l-92 102l2 7l55 18h7l67 -78l67 78h7l55 -18l2 -7l-92 -102l-9 -5h-60zM87 531l5 5h304l5 -5v-64l-5 -5h-227v-142h199l4 -5l-18 -64l-6 -5h-179v-172h229l4 -5l-10 -64l-6 -5h-294l-5 5v526z" />
    <glyph glyph-name="Gcircumflex" unicode="&#x11c;" horiz-adv-x="653" 
d="M201 751l-2 7l92 102l9 5h60l9 -5l92 -102l-2 -7l-55 -18h-7l-67 78l-67 -78h-7zM71 437q0 61 19 107t53.5 77.5t82.5 47.5t107 16q83 0 145 -36t89 -102l-3 -6l-67 -28l-7 2q-20 42 -61.5 66t-95.5 24q-38 0 -70.5 -11t-56 -33t-36.5 -55t-13 -76v-188q0 -45 13 -77.5
t36.5 -54t56 -32t70.5 -10.5q39 0 71.5 10.5t56.5 32t37 54t13 77.5v23h-115l-6 5l-10 70l4 5h206l5 -5v-107q0 -121 -70 -183t-192 -62q-59 0 -107 15.5t-82.5 46.5t-53.5 77t-19 106v204z" />
    <glyph glyph-name="gcircumflex" unicode="&#x11d;" horiz-adv-x="581" 
d="M165 607l-2 7l92 102l9 5h60l9 -5l92 -102l-2 -7l-55 -18h-7l-67 78l-67 -78h-7zM68 348q0 49 16.5 86t46 62.5t71.5 38.5t93 13q63 0 103 -18.5t63 -40.5q26 -26 40 -58l-3 -6l-63 -25l-7 2q-17 32 -52 52t-81 20q-62 0 -103 -33.5t-41 -98.5v-148q0 -68 41 -100
t103 -32q65 0 105.5 32t40.5 100v12h-98l-5 5l-10 64l5 5h185l5 -5v-89q0 -97 -61 -147.5t-167 -50.5q-51 0 -93 13t-71.5 38t-46 62t-16.5 85v162z" />
    <glyph glyph-name="Gbreve" unicode="&#x11e;" horiz-adv-x="653" 
d="M334 733q-24 0 -45.5 7.5t-38 21t-26 33.5t-9.5 44q0 5 0.5 10.5t1.5 10.5l6 5h48l5 -5v-9q0 -24 14 -41t44 -17t44 17t14 41v9l5 5h48l6 -5q1 -5 1.5 -10.5t0.5 -10.5q0 -24 -9.5 -44t-26 -33.5t-38 -21t-45.5 -7.5zM71 437q0 61 19 107t53.5 77.5t82.5 47.5t107 16
q83 0 145 -36t89 -102l-3 -6l-67 -28l-7 2q-20 42 -61.5 66t-95.5 24q-38 0 -70.5 -11t-56 -33t-36.5 -55t-13 -76v-188q0 -45 13 -77.5t36.5 -54t56 -32t70.5 -10.5q39 0 71.5 10.5t56.5 32t37 54t13 77.5v23h-115l-6 5l-10 70l4 5h206l5 -5v-107q0 -121 -70 -183t-192 -62
q-59 0 -107 15.5t-82.5 46.5t-53.5 77t-19 106v204z" />
    <glyph glyph-name="gbreve" unicode="&#x11f;" horiz-adv-x="581" 
d="M295 589q-24 0 -45.5 7.5t-38 21t-26 33.5t-9.5 44q0 5 0.5 10.5t1.5 10.5l6 5h48l5 -5v-9q0 -24 14 -41t44 -17t44 17t14 41v9l5 5h48l6 -5q1 -5 1.5 -10.5t0.5 -10.5q0 -24 -9.5 -44t-26 -33.5t-38 -21t-45.5 -7.5zM68 348q0 49 16.5 86t46 62.5t71.5 38.5t93 13
q63 0 103 -18.5t63 -40.5q26 -26 40 -58l-3 -6l-63 -25l-7 2q-17 32 -52 52t-81 20q-62 0 -103 -33.5t-41 -98.5v-148q0 -68 41 -100t103 -32q65 0 105.5 32t40.5 100v12h-98l-5 5l-10 64l5 5h185l5 -5v-89q0 -97 -61 -147.5t-167 -50.5q-51 0 -93 13t-71.5 38t-46 62
t-16.5 85v162z" />
    <glyph glyph-name="Gdotaccent" unicode="&#x120;" horiz-adv-x="653" 
d="M285 777v83l5 5h83l5 -5v-83l-5 -5h-83zM71 437q0 61 19 107t53.5 77.5t82.5 47.5t107 16q83 0 145 -36t89 -102l-3 -6l-67 -28l-7 2q-20 42 -61.5 66t-95.5 24q-38 0 -70.5 -11t-56 -33t-36.5 -55t-13 -76v-188q0 -45 13 -77.5t36.5 -54t56 -32t70.5 -10.5
q39 0 71.5 10.5t56.5 32t37 54t13 77.5v23h-115l-6 5l-10 70l4 5h206l5 -5v-107q0 -121 -70 -183t-192 -62q-59 0 -107 15.5t-82.5 46.5t-53.5 77t-19 106v204z" />
    <glyph glyph-name="gdotaccent" unicode="&#x121;" horiz-adv-x="581" 
d="M246 633v83l5 5h83l5 -5v-83l-5 -5h-83zM68 348q0 49 16.5 86t46 62.5t71.5 38.5t93 13q63 0 103 -18.5t63 -40.5q26 -26 40 -58l-3 -6l-63 -25l-7 2q-17 32 -52 52t-81 20q-62 0 -103 -33.5t-41 -98.5v-148q0 -68 41 -100t103 -32q65 0 105.5 32t40.5 100v12h-98l-5 5
l-10 64l5 5h185l5 -5v-89q0 -97 -61 -147.5t-167 -50.5q-51 0 -93 13t-71.5 38t-46 62t-16.5 85v162z" />
    <glyph glyph-name="Gcommaaccent" unicode="&#x122;" horiz-adv-x="653" 
d="M71 437q0 61 19 107t53.5 77.5t82.5 47.5t107 16q83 0 145 -36t89 -102l-3 -6l-67 -28l-7 2q-20 42 -61.5 66t-95.5 24q-38 0 -70.5 -11t-56 -33t-36.5 -55t-13 -76v-188q0 -45 13 -77.5t36.5 -54t56 -32t70.5 -10.5q39 0 71.5 10.5t56.5 32t37 54t13 77.5v23h-115l-6 5
l-10 70l4 5h206l5 -5v-107q0 -121 -70 -183t-192 -62q-59 0 -107 15.5t-82.5 46.5t-53.5 77t-19 106v204zM296 -47h78l5 -4l-72 -152l-7 -3l-34 7l-5 6l29 142z" />
    <glyph glyph-name="gcommaaccent" unicode="&#x123;" horiz-adv-x="581" 
d="M68 348q0 49 16.5 86t46 62.5t71.5 38.5t93 13q63 0 103 -18.5t63 -40.5q26 -26 40 -58l-3 -6l-63 -25l-7 2q-17 32 -52 52t-81 20q-62 0 -103 -33.5t-41 -98.5v-148q0 -68 41 -100t103 -32q65 0 105.5 32t40.5 100v12h-98l-5 5l-10 64l5 5h185l5 -5v-89
q0 -97 -61 -147.5t-167 -50.5q-51 0 -93 13t-71.5 38t-46 62t-16.5 85v162zM261 -47h78l5 -4l-72 -152l-7 -3l-34 7l-5 6l29 142z" />
    <glyph glyph-name="Hcircumflex" unicode="&#x124;" horiz-adv-x="711" 
d="M222 758l92 102l9 5h60l9 -5l92 -102l-2 -7l-55 -18h-7l-67 78l-67 -78h-7l-55 18zM93 665l5 6l74 10l5 -4v-283h356v271l5 6l74 10l5 -4v-672l-5 -5h-74l-5 5v309h-356v-309l-5 -5h-74l-5 5v660z" />
    <glyph glyph-name="hcircumflex" unicode="&#x125;" horiz-adv-x="631" 
d="M182 614l92 102l9 5h60l9 -5l92 -102l-2 -7l-55 -18h-7l-67 78l-67 -78h-7l-55 18zM87 527l5 8l72 8l5 -5v-218h292v207l5 8l72 8l5 -6v-532l-5 -5h-72l-5 5v241h-292v-241l-5 -5h-72l-5 5v522z" />
    <glyph glyph-name="Hbar" unicode="&#x126;" horiz-adv-x="772" 
d="M119 506h-73l-5 5v63l5 5h73v86l5 6l74 10l5 -4v-98h356v86l5 6l74 10l5 -4v-98h94l5 -5l-14 -63l-7 -5h-78v-501l-5 -5h-74l-5 5v309h-356v-309l-5 -5h-74l-5 5v501zM559 394v112h-356v-112h356z" />
    <glyph glyph-name="hbar" unicode="&#x127;" horiz-adv-x="676" 
d="M109 391h-59l-5 5v58l5 5h59v70l5 6l72 8l5 -5v-79h292v70l5 6l72 8l5 -5v-79h69l4 -5l-12 -58l-6 -5h-55v-386l-5 -5h-72l-5 5v241h-292v-241l-5 -5h-72l-5 5v386zM483 320v71h-292v-71h292z" />
    <glyph glyph-name="Itilde" unicode="&#x128;" horiz-adv-x="271" 
d="M-8 783v7q20 33 41 49.5t54 16.5q20 0 33.5 -7t23.5 -16t19.5 -16t21.5 -7q9 0 20.5 8.5t27.5 24.5l7 2l36 -27v-7q-19 -33 -41.5 -49.5t-55.5 -16.5q-20 0 -33 7t-23 15.5t-19.5 15.5t-21.5 7q-18 0 -47 -32l-7 -2zM93 665l5 6l74 10l5 -4v-672l-5 -5h-74l-5 5v660z" />
    <glyph glyph-name="itilde" unicode="&#x129;" horiz-adv-x="257" 
d="M-15 643v7q20 33 41 49.5t54 16.5q20 0 33.5 -7t23.5 -16t19.5 -16t21.5 -7q9 0 20.5 8.5t27.5 24.5l7 2l36 -27v-7q-19 -33 -41.5 -49.5t-55.5 -16.5q-20 0 -33 7t-23 15.5t-19.5 15.5t-21.5 7q-18 0 -47 -32l-7 -2zM87 527l5 6l72 10l5 -5v-533l-5 -5h-72l-5 5v522z
" />
    <glyph glyph-name="imacron" unicode="&#x12b;" horiz-adv-x="257" 
d="M17 637v58l5 5h224l4 -5l-12 -58l-6 -5h-210zM87 527l5 6l72 10l5 -5v-533l-5 -5h-72l-5 5v522z" />
    <glyph glyph-name="Iogonek" unicode="&#x12e;" horiz-adv-x="271" 
d="M93 665l5 6l74 10l5 -4v-668l-5 -9q-12 -11 -25 -24t-23.5 -27t-17 -28t-6.5 -28q0 -24 16.5 -39t54.5 -17l5 -5l-11 -46l-5 -5q-28 0 -53.5 6.5t-45 19t-31 30.5t-11.5 41q0 25 11.5 47t25.5 39q16 19 37 36v665z" />
    <glyph glyph-name="iogonek" unicode="&#x12f;" horiz-adv-x="257" 
d="M87 527l5 6l72 10l5 -5v-531l-3 -7q-12 -11 -25 -24t-23.5 -27t-17 -28t-6.5 -28q0 -24 16.5 -39t54.5 -17l5 -5l-11 -46l-5 -5q-28 0 -53.5 6.5t-45 19t-31 30.5t-11.5 41q0 25 11.5 47t25.5 39q16 19 37 36v527z" />
    <glyph glyph-name="Idotaccent" unicode="&#x130;" horiz-adv-x="271" 
d="M90 777v83l5 5h83l5 -5v-83l-5 -5h-83zM93 665l5 6l74 10l5 -4v-672l-5 -5h-74l-5 5v660z" />
    <glyph glyph-name="dotlessi" unicode="&#x131;" horiz-adv-x="257" 
d="M87 527l5 6l72 10l5 -5v-533l-5 -5h-72l-5 5v522z" />
    <glyph glyph-name="IJ" unicode="&#x132;" horiz-adv-x="637" 
d="M294 93l8 1q16 -12 33.5 -19t39.5 -7q13 0 28 5t28.5 18t22.5 34t9 53v487l5 6l74 10l5 -4v-507q0 -42 -12 -75.5t-34 -57t-53 -36.5t-68 -13q-35 0 -64 9.5t-51 26.5l-1 7zM93 665l5 6l74 10l5 -4v-672l-5 -5h-74l-5 5v660z" />
    <glyph glyph-name="ij" unicode="&#x133;" horiz-adv-x="573" 
d="M267 84l8 1q8 -7 18 -12q8 -5 19.5 -8t25.5 -3q10 0 22 4t22.5 13.5t17.5 25t7 38.5v384l5 6l72 10l5 -5v-401q0 -69 -40.5 -109t-106.5 -40q-31 0 -57 8.5t-46 22.5l-1 7zM87 527l5 6l72 10l5 -5v-533l-5 -5h-72l-5 5v522z" />
    <glyph glyph-name="Jcircumflex" unicode="&#x134;" horiz-adv-x="377" 
d="M115 751l-2 7l92 102l9 5h60l9 -5l92 -102l-2 -7l-55 -18h-7l-67 78l-67 -78h-7zM4 31l30 62l8 1q16 -12 33.5 -19t39.5 -7q13 0 28 5t28.5 18t22.5 34t9 53v487l5 6l74 10l5 -4v-507q0 -42 -12 -75.5t-34 -57t-53 -36.5t-68 -13q-35 0 -64 9.5t-51 26.5z" />
    <glyph glyph-name="jcircumflex" unicode="&#x135;" horiz-adv-x="348" 
d="M93 607l-2 7l92 102l9 5h60l9 -5l92 -102l-2 -7l-55 -18h-7l-67 78l-67 -78h-7zM13 26l29 58l8 1q8 -7 18 -12q8 -5 19.5 -8t25.5 -3q10 0 22 4t22.5 13.5t17.5 25t7 38.5v384l5 6l72 10l5 -5v-401q0 -69 -40.5 -109t-106.5 -40q-31 0 -57 8.5t-46 22.5z" />
    <glyph glyph-name="Kcommaaccent" unicode="&#x136;" horiz-adv-x="594" 
d="M93 665l5 6l74 10l5 -4v-283h47l8 4l208 266l8 5l105 12l4 -5l-238 -288l-29 -29l29 -32l158 -210q3 -5 10 -12t16.5 -13.5t22.5 -11.5t30 -5q8 0 12 1l4 -5l-11 -68l-6 -5q-5 -1 -9 -1h-9q-26 0 -46.5 8t-37 20.5t-29 27t-21.5 26.5l-175 237l-8 4h-43v-315l-5 -5h-74
l-5 5v660zM271 -47h78l5 -4l-72 -152l-7 -3l-34 7l-5 6l29 142z" />
    <glyph glyph-name="kcommaaccent" unicode="&#x137;" horiz-adv-x="537" 
d="M87 525l5 8l72 10l5 -5v-217h32l8 4l170 201l8 5l105 12l4 -5l-209 -233l-19 -18l20 -20l135 -166q10 -13 25 -21.5t38 -8.5h7.5t7.5 1l4 -5l-11 -63l-6 -5q-5 -1 -9 -1h-9q-43 0 -70.5 20t-47.5 46l-147 183l-8 4h-28v-246l-5 -5h-72l-5 5v520zM241 -47h78l5 -4
l-72 -152l-7 -3l-34 7l-5 6l29 142z" />
    <glyph glyph-name="kgreenlandic" unicode="&#x138;" horiz-adv-x="537" 
d="M87 525l5 8l72 10l5 -5v-217h32l8 4l170 201l8 5l105 12l4 -5l-209 -233l-19 -18l20 -20l135 -166q10 -13 25 -21.5t38 -8.5h7.5t7.5 1l4 -5l-11 -63l-6 -5q-5 -1 -9 -1h-9q-43 0 -70.5 20t-47.5 46l-147 183l-8 4h-28v-246l-5 -5h-72l-5 5v520z" />
    <glyph glyph-name="Lacute" unicode="&#x139;" horiz-adv-x="474" 
d="M78 753l-1 6l60 102l7 4h108l5 -4l-123 -128h-6zM93 665l5 6l74 10l5 -4v-597h288l4 -5l-18 -70l-6 -5h-347l-5 5v660z" />
    <glyph glyph-name="lacute" unicode="&#x13a;" horiz-adv-x="434" 
d="M72 609l-1 6l60 102l7 4h108l5 -4l-123 -128h-6zM87 527l5 8l72 8l5 -6v-463h245l5 -5l-18 -64l-5 -5h-304l-5 5v522z" />
    <glyph glyph-name="Lcommaaccent" unicode="&#x13b;" horiz-adv-x="474" 
d="M93 665l5 6l74 10l5 -4v-597h288l4 -5l-18 -70l-6 -5h-347l-5 5v660zM248 -47h78l5 -4l-72 -152l-7 -3l-34 7l-5 6l29 142z" />
    <glyph glyph-name="lcommaaccent" unicode="&#x13c;" horiz-adv-x="434" 
d="M87 527l5 8l72 8l5 -6v-463h245l5 -5l-18 -64l-5 -5h-304l-5 5v522zM215 -47h78l5 -4l-72 -152l-7 -3l-34 7l-5 6l29 142z" />
    <glyph glyph-name="Lcaron" unicode="&#x13d;" horiz-adv-x="474" 
d="M262 539l29 142l6 4h78l5 -4l-72 -152l-7 -3l-34 7zM93 665l5 6l74 10l5 -4v-597h288l4 -5l-18 -70l-6 -5h-347l-5 5v660z" />
    <glyph glyph-name="lcaron" unicode="&#x13e;" horiz-adv-x="434" 
d="M254 402l29 142l6 4h78l5 -4l-72 -152l-7 -3l-34 7zM87 527l5 8l72 8l5 -6v-463h245l5 -5l-18 -64l-5 -5h-304l-5 5v522z" />
    <glyph glyph-name="Ldot" unicode="&#x13f;" horiz-adv-x="474" 
d="M93 665l5 6l74 10l5 -4v-597h288l4 -5l-18 -70l-6 -5h-347l-5 5v660zM318 401l5 5h92l5 -5v-94l-5 -5h-92l-5 5v94z" />
    <glyph glyph-name="ldot" unicode="&#x140;" horiz-adv-x="434" 
d="M87 527l5 8l72 8l5 -6v-463h245l5 -5l-18 -64l-5 -5h-304l-5 5v522zM285 346l5 5h92l5 -5v-94l-5 -5h-92l-5 5v94z" />
    <glyph glyph-name="Lslash" unicode="&#x141;" horiz-adv-x="487" 
d="M106 369l-34 -9l-6 3l-17 61l3 6l54 14v221l5 6l74 10l5 -4v-210l109 29l5 -3v-64l-4 -7l-110 -30v-312h288l4 -5l-18 -70l-6 -5h-347l-5 5v364z" />
    <glyph glyph-name="lslash" unicode="&#x142;" horiz-adv-x="455" 
d="M108 287l-42 -11l-6 3l-17 61l3 6l62 15v166l5 8l72 8l5 -6v-155l78 20l5 -3v-64l-4 -7l-79 -20v-234h245l5 -5l-18 -64l-5 -5h-304l-5 5v282z" />
    <glyph glyph-name="Nacute" unicode="&#x143;" horiz-adv-x="707" 
d="M304 759l60 102l7 4h108l5 -4l-123 -128h-6l-50 20zM93 665l5 6l74 10l7 -4l324 -488l26 -48v524l5 6l74 10l5 -4v-672l-5 -5h-71l-8 5l-326 492l-26 48v-540l-5 -5h-74l-5 5v660z" />
    <glyph glyph-name="nacute" unicode="&#x144;" horiz-adv-x="628" 
d="M258 615l60 102l7 4h108l5 -4l-123 -128h-6l-50 20zM87 527l5 6l71 10l7 -4l269 -374l19 -37v399l5 6l72 10l5 -5v-533l-5 -5h-68l-6 4l-272 379l-20 39v-417l-5 -5h-72l-5 5v522z" />
    <glyph glyph-name="Ncommaaccent" unicode="&#x145;" horiz-adv-x="707" 
d="M93 665l5 6l74 10l7 -4l324 -488l26 -48v524l5 6l74 10l5 -4v-672l-5 -5h-71l-8 5l-326 492l-26 48v-540l-5 -5h-74l-5 5v660zM322 -47h78l5 -4l-72 -152l-7 -3l-34 7l-5 6l29 142z" />
    <glyph glyph-name="ncommaaccent" unicode="&#x146;" horiz-adv-x="628" 
d="M87 527l5 6l71 10l7 -4l269 -374l19 -37v399l5 6l72 10l5 -5v-533l-5 -5h-68l-6 4l-272 379l-20 39v-417l-5 -5h-72l-5 5v522zM285 -47h78l5 -4l-72 -152l-7 -3l-34 7l-5 6l29 142z" />
    <glyph glyph-name="Ncaron" unicode="&#x147;" horiz-adv-x="707" 
d="M322 745l-92 102l2 7l55 18h7l67 -78l67 78h7l55 -18l2 -7l-92 -102l-9 -5h-60zM93 665l5 6l74 10l7 -4l324 -488l26 -48v524l5 6l74 10l5 -4v-672l-5 -5h-71l-8 5l-326 492l-26 48v-540l-5 -5h-74l-5 5v660z" />
    <glyph glyph-name="ncaron" unicode="&#x148;" horiz-adv-x="628" 
d="M276 601l-92 102l2 7l55 18h7l67 -78l67 78h7l55 -18l2 -7l-92 -102l-9 -5h-60zM87 527l5 6l71 10l7 -4l269 -374l19 -37v399l5 6l72 10l5 -5v-533l-5 -5h-68l-6 4l-272 379l-20 39v-417l-5 -5h-72l-5 5v522z" />
    <glyph glyph-name="napostrophe" unicode="&#x149;" horiz-adv-x="628" 
d="M43 602l-5 6l29 142l6 4h78l5 -4l-72 -152l-7 -3zM87 527l5 6l71 10l7 -4l269 -374l19 -37v399l5 6l72 10l5 -5v-533l-5 -5h-68l-6 4l-272 379l-20 39v-417l-5 -5h-72l-5 5v522z" />
    <glyph glyph-name="Eng" unicode="&#x14a;" horiz-adv-x="707" 
d="M93 665l5 6l74 10l7 -4l314 -473l36 -68v529l5 6l74 10l5 -4v-717q0 -71 -31.5 -117t-82.5 -62q-22 -7 -52 -7l-5 4l-12 64l4 4q8 0 19.5 1.5t19.5 5.5q22 11 41 38t19 75v33l-330 498l-26 48v-540l-5 -5h-74l-5 5v660z" />
    <glyph glyph-name="eng" unicode="&#x14b;" horiz-adv-x="628" 
d="M87 527l5 6l71 10l7 -4l269 -374l19 -37v399l5 6l72 10l5 -5v-578q0 -71 -31.5 -117t-82.5 -62q-22 -7 -52 -7l-5 4l-12 64l4 4q8 0 19.5 1.5t19.5 5.5q22 11 43 38t21 75v33l-275 384l-20 39v-417l-5 -5h-72l-5 5v522z" />
    <glyph glyph-name="Omacron" unicode="&#x14c;" horiz-adv-x="668" 
d="M221 777v58l5 5h224l4 -5l-12 -58l-6 -5h-210zM71 437q0 61 19 107t53.5 77.5t83 47.5t107.5 16t107.5 -16t83 -47.5t53.5 -77.5t19 -107v-204q0 -60 -19 -106t-53.5 -77t-83 -46.5t-107.5 -15.5t-107.5 15.5t-83 46.5t-53.5 77t-19 106v204zM157 242q0 -45 13.5 -77.5
t37 -54t56 -32t70.5 -10.5t70.5 10.5t56 32t37 54t13.5 77.5v188q0 43 -13.5 76t-37 55t-56 33t-70.5 11t-70.5 -11t-56 -33t-37 -55t-13.5 -76v-188z" />
    <glyph glyph-name="omacron" unicode="&#x14d;" horiz-adv-x="594" 
d="M182 633v58l5 5h224l4 -5l-12 -58l-6 -5h-210zM68 348q0 49 16.5 86t46.5 62.5t72.5 38.5t93.5 13t93.5 -13t72.5 -38.5t46.5 -62.5t16.5 -86v-162q0 -48 -16.5 -85t-46.5 -62t-72.5 -38t-93.5 -13t-93.5 13t-72.5 38t-46.5 62t-16.5 85v162zM151 194q0 -68 41.5 -100
t104.5 -32t104.5 32t41.5 100v148q0 66 -41.5 99t-104.5 33t-104.5 -33t-41.5 -99v-148z" />
    <glyph glyph-name="Obreve" unicode="&#x14e;" horiz-adv-x="668" 
d="M334 733q-24 0 -45.5 7.5t-38 21t-26 33.5t-9.5 44q0 5 0.5 10.5t1.5 10.5l6 5h48l5 -5v-9q0 -24 14 -41t44 -17t44 17t14 41v9l5 5h48l6 -5q1 -5 1.5 -10.5t0.5 -10.5q0 -24 -9.5 -44t-26 -33.5t-38 -21t-45.5 -7.5zM71 437q0 61 19 107t53.5 77.5t83 47.5t107.5 16
t107.5 -16t83 -47.5t53.5 -77.5t19 -107v-204q0 -60 -19 -106t-53.5 -77t-83 -46.5t-107.5 -15.5t-107.5 15.5t-83 46.5t-53.5 77t-19 106v204zM157 242q0 -45 13.5 -77.5t37 -54t56 -32t70.5 -10.5t70.5 10.5t56 32t37 54t13.5 77.5v188q0 43 -13.5 76t-37 55t-56 33
t-70.5 11t-70.5 -11t-56 -33t-37 -55t-13.5 -76v-188z" />
    <glyph glyph-name="obreve" unicode="&#x14f;" horiz-adv-x="594" 
d="M297 589q-24 0 -45.5 7.5t-38 21t-26 33.5t-9.5 44q0 5 0.5 10.5t1.5 10.5l6 5h48l5 -5v-9q0 -24 14 -41t44 -17t44 17t14 41v9l5 5h48l6 -5q1 -5 1.5 -10.5t0.5 -10.5q0 -24 -9.5 -44t-26 -33.5t-38 -21t-45.5 -7.5zM68 348q0 49 16.5 86t46.5 62.5t72.5 38.5t93.5 13
t93.5 -13t72.5 -38.5t46.5 -62.5t16.5 -86v-162q0 -48 -16.5 -85t-46.5 -62t-72.5 -38t-93.5 -13t-93.5 13t-72.5 38t-46.5 62t-16.5 85v162zM151 194q0 -68 41.5 -100t104.5 -32t104.5 32t41.5 100v148q0 66 -41.5 99t-104.5 33t-104.5 -33t-41.5 -99v-148z" />
    <glyph glyph-name="Ohungarumlaut" unicode="&#x150;" horiz-adv-x="668" 
d="M333 756l61 105l7 4h101l5 -4l-123 -128h-6l-44 17zM213 755l-1 6l51 100l7 4h65l5 -4l-72 -124h-7zM71 437q0 61 19 107t53.5 77.5t83 47.5t107.5 16t107.5 -16t83 -47.5t53.5 -77.5t19 -107v-204q0 -60 -19 -106t-53.5 -77t-83 -46.5t-107.5 -15.5t-107.5 15.5
t-83 46.5t-53.5 77t-19 106v204zM157 242q0 -45 13.5 -77.5t37 -54t56 -32t70.5 -10.5t70.5 10.5t56 32t37 54t13.5 77.5v188q0 43 -13.5 76t-37 55t-56 33t-70.5 11t-70.5 -11t-56 -33t-37 -55t-13.5 -76v-188z" />
    <glyph glyph-name="ohungarumlaut" unicode="&#x151;" horiz-adv-x="594" 
d="M294 612l61 105l7 4h101l5 -4l-123 -128h-6l-44 17zM174 611l-1 6l51 100l7 4h65l5 -4l-72 -124h-7zM68 348q0 49 16.5 86t46.5 62.5t72.5 38.5t93.5 13t93.5 -13t72.5 -38.5t46.5 -62.5t16.5 -86v-162q0 -48 -16.5 -85t-46.5 -62t-72.5 -38t-93.5 -13t-93.5 13t-72.5 38
t-46.5 62t-16.5 85v162zM151 194q0 -68 41.5 -100t104.5 -32t104.5 32t41.5 100v148q0 66 -41.5 99t-104.5 33t-104.5 -33t-41.5 -99v-148z" />
    <glyph glyph-name="OE" unicode="&#x152;" horiz-adv-x="933" 
d="M71 437q0 61 19 107t53.5 77.5t82 47.5t104.5 16q58 0 104 -18t79 -51v54l5 5h347l5 -5v-70l-5 -5h-268v-200h233l4 -5l-18 -70l-6 -5h-213v-235h269l4 -5l-10 -70l-6 -5h-336l-5 5v50q-33 -32 -79 -49.5t-104 -17.5q-57 0 -104.5 15.5t-82 46.5t-53.5 77t-19 106v204z
M157 242q0 -45 13.5 -77.5t37.5 -54t56.5 -32t70.5 -10.5t70.5 9.5t56.5 31.5t37.5 57.5t13.5 87.5v174q0 48 -14 81.5t-38 55t-56.5 31t-69.5 9.5q-38 0 -70.5 -11t-56.5 -33t-37.5 -55t-13.5 -76v-188z" />
    <glyph glyph-name="oe" unicode="&#x153;" horiz-adv-x="819" 
d="M68 348q0 49 16.5 86t46.5 62.5t71 38.5t91 13q48 0 85 -14.5t66 -38.5v36l5 5h303l5 -5v-64l-5 -5h-227v-143h199l4 -5l-17 -65l-6 -5h-180v-170h228l4 -5l-8 -64l-6 -5h-294l-5 5v33q-29 -23 -66.5 -36.5t-84.5 -13.5q-50 0 -91 13t-71 38t-46.5 62t-16.5 85v162z
M151 194q0 -34 11 -58.5t30.5 -41t46.5 -24.5t58 -8t58 7.5t47 24.5t31 44.5t11 66.5v131q0 36 -11.5 62.5t-31.5 43t-46.5 24.5t-57.5 8t-58 -8.5t-46.5 -25t-30.5 -41t-11 -57.5v-148z" />
    <glyph glyph-name="Racute" unicode="&#x154;" horiz-adv-x="583" 
d="M216 753l-1 6l60 102l7 4h108l5 -4l-123 -128h-6zM93 670l5 5h178q40 0 77.5 -7.5t69.5 -27.5q37 -23 60 -63.5t23 -100.5q0 -35 -8.5 -62t-22 -47t-31.5 -34.5t-36 -23.5q-43 -23 -97 -28l22 -22l117 -141q13 -15 32 -28.5t48 -13.5q3 0 5.5 0.5t5.5 0.5l4 -5l-11 -68
l-6 -5q-5 -1 -10.5 -1.5t-10.5 -0.5q-26 0 -47.5 9.5t-38 23t-28.5 27.5t-19 23l-156 194l-7 4h-34v-273l-5 -5h-74l-5 5v665zM275 355q27 0 53.5 6t47.5 20t33.5 37t12.5 58q0 34 -12.5 57.5t-33.5 37.5t-47.5 20.5t-53.5 6.5h-98v-243h98z" />
    <glyph glyph-name="racute" unicode="&#x155;" horiz-adv-x="525" 
d="M191 609l-1 6l60 102l7 4h108l5 -4l-123 -128h-6zM87 531l5 5h156q37 0 73 -7t64 -24t45.5 -46.5t17.5 -74.5q0 -29 -7 -51t-18.5 -39t-26.5 -28.5t-30 -19.5q-36 -18 -81 -23l31 -29l84 -92q14 -15 28.5 -23t31.5 -8h14q3 0 5 1l4 -5l-11 -63l-6 -5q-5 -1 -11 -1h-11
q-18 0 -34.5 6t-31.5 16t-28 21.5t-23 23.5l-131 149l-7 4h-20v-213l-5 -5h-72l-5 5v526zM247 288q22 0 44 4.5t38.5 15.5t27 28t10.5 43q0 25 -10.5 42t-27 27t-38.5 14t-44 4h-78v-178h78z" />
    <glyph glyph-name="Rcommaaccent" unicode="&#x156;" horiz-adv-x="583" 
d="M93 670l5 5h178q40 0 77.5 -7.5t69.5 -27.5q37 -23 60 -63.5t23 -100.5q0 -35 -8.5 -62t-22 -47t-31.5 -34.5t-36 -23.5q-43 -23 -97 -28l22 -22l117 -141q13 -15 32 -28.5t48 -13.5q3 0 5.5 0.5t5.5 0.5l4 -5l-11 -68l-6 -5q-5 -1 -10.5 -1.5t-10.5 -0.5
q-26 0 -47.5 9.5t-38 23t-28.5 27.5t-19 23l-156 194l-7 4h-34v-273l-5 -5h-74l-5 5v665zM275 355q27 0 53.5 6t47.5 20t33.5 37t12.5 58q0 34 -12.5 57.5t-33.5 37.5t-47.5 20.5t-53.5 6.5h-98v-243h98zM262 -47h78l5 -4l-72 -152l-7 -3l-34 7l-5 6l29 142z" />
    <glyph glyph-name="rcommaaccent" unicode="&#x157;" horiz-adv-x="525" 
d="M87 531l5 5h156q37 0 73 -7t64 -24t45.5 -46.5t17.5 -74.5q0 -29 -7 -51t-18.5 -39t-26.5 -28.5t-30 -19.5q-36 -18 -81 -23l31 -29l84 -92q14 -15 28.5 -23t31.5 -8h14q3 0 5 1l4 -5l-11 -63l-6 -5q-5 -1 -11 -1h-11q-18 0 -34.5 6t-31.5 16t-28 21.5t-23 23.5l-131 149
l-7 4h-20v-213l-5 -5h-72l-5 5v526zM247 288q22 0 44 4.5t38.5 15.5t27 28t10.5 43q0 25 -10.5 42t-27 27t-38.5 14t-44 4h-78v-178h78zM238 -47h78l5 -4l-72 -152l-7 -3l-34 7l-5 6l29 142z" />
    <glyph glyph-name="Rcaron" unicode="&#x158;" horiz-adv-x="583" 
d="M242 745l-92 102l2 7l55 18h7l67 -78l67 78h7l55 -18l2 -7l-92 -102l-9 -5h-60zM93 670l5 5h178q40 0 77.5 -7.5t69.5 -27.5q37 -23 60 -63.5t23 -100.5q0 -35 -8.5 -62t-22 -47t-31.5 -34.5t-36 -23.5q-43 -23 -97 -28l22 -22l117 -141q13 -15 32 -28.5t48 -13.5
q3 0 5.5 0.5t5.5 0.5l4 -5l-11 -68l-6 -5q-5 -1 -10.5 -1.5t-10.5 -0.5q-26 0 -47.5 9.5t-38 23t-28.5 27.5t-19 23l-156 194l-7 4h-34v-273l-5 -5h-74l-5 5v665zM275 355q27 0 53.5 6t47.5 20t33.5 37t12.5 58q0 34 -12.5 57.5t-33.5 37.5t-47.5 20.5t-53.5 6.5h-98v-243
h98z" />
    <glyph glyph-name="rcaron" unicode="&#x159;" horiz-adv-x="525" 
d="M208 601l-92 102l2 7l55 18h7l67 -78l67 78h7l55 -18l2 -7l-92 -102l-9 -5h-60zM87 531l5 5h156q37 0 73 -7t64 -24t45.5 -46.5t17.5 -74.5q0 -29 -7 -51t-18.5 -39t-26.5 -28.5t-30 -19.5q-36 -18 -81 -23l31 -29l84 -92q14 -15 28.5 -23t31.5 -8h14q3 0 5 1l4 -5
l-11 -63l-6 -5q-5 -1 -11 -1h-11q-18 0 -34.5 6t-31.5 16t-28 21.5t-23 23.5l-131 149l-7 4h-20v-213l-5 -5h-72l-5 5v526zM247 288q22 0 44 4.5t38.5 15.5t27 28t10.5 43q0 25 -10.5 42t-27 27t-38.5 14t-44 4h-78v-178h78z" />
    <glyph glyph-name="Sacute" unicode="&#x15a;" horiz-adv-x="508" 
d="M207 753l-1 6l60 102l7 4h108l5 -4l-123 -128h-6zM48 55l41 56l9 1q11 -9 27.5 -17t35.5 -14t38 -9.5t36 -3.5q27 0 50.5 6t41.5 20t28.5 35.5t10.5 53.5q0 40 -22 63.5t-55.5 39.5t-72 30t-72 35t-55.5 54t-22 88q0 45 16 80.5t43.5 60.5t63.5 38t77 13q37 0 67.5 -6.5
t52.5 -15t35.5 -17t16.5 -11.5l1 -7l-38 -58l-8 -1q-21 16 -52.5 26t-70.5 10q-60 0 -89 -30.5t-29 -78.5q0 -38 22 -59.5t55.5 -37t72 -29.5t72 -36t55.5 -57t22 -93q0 -56 -20 -94t-52 -60.5t-71 -32t-77 -9.5q-18 0 -41 3.5t-48 11t-49.5 19t-43.5 26.5z" />
    <glyph glyph-name="sacute" unicode="&#x15b;" horiz-adv-x="460" 
d="M185 609l-1 6l60 102l7 4h108l5 -4l-123 -128h-6zM48 46l38 54l9 1q16 -11 34 -19q16 -7 37.5 -12.5t47.5 -5.5q22 0 41.5 4.5t34 14.5t23 26t8.5 39q0 30 -19 47.5t-47 29.5t-61.5 23t-61.5 28t-47 43.5t-19 71.5q0 37 14 66t38 49t56 31t67 11q33 0 59.5 -5.5t46 -13
t32 -14t15.5 -9.5l1 -7l-38 -54l-8 -1q-17 13 -44.5 21t-59.5 8q-49 0 -72 -22t-23 -57q0 -27 19 -43t47 -28t61 -23.5t61 -30t47 -47t19 -73.5q0 -46 -17.5 -76.5t-45.5 -49t-62 -26.5t-67 -8t-62.5 7.5t-51.5 17.5q-26 11 -48 25z" />
    <glyph glyph-name="Scircumflex" unicode="&#x15c;" horiz-adv-x="508" 
d="M133 751l-2 7l92 102l9 5h60l9 -5l92 -102l-2 -7l-55 -18h-7l-67 78l-67 -78h-7zM48 55l41 56l9 1q11 -9 27.5 -17t35.5 -14t38 -9.5t36 -3.5q27 0 50.5 6t41.5 20t28.5 35.5t10.5 53.5q0 40 -22 63.5t-55.5 39.5t-72 30t-72 35t-55.5 54t-22 88q0 45 16 80.5t43.5 60.5
t63.5 38t77 13q37 0 67.5 -6.5t52.5 -15t35.5 -17t16.5 -11.5l1 -7l-38 -58l-8 -1q-21 16 -52.5 26t-70.5 10q-60 0 -89 -30.5t-29 -78.5q0 -38 22 -59.5t55.5 -37t72 -29.5t72 -36t55.5 -57t22 -93q0 -56 -20 -94t-52 -60.5t-71 -32t-77 -9.5q-18 0 -41 3.5t-48 11
t-49.5 19t-43.5 26.5z" />
    <glyph glyph-name="scircumflex" unicode="&#x15d;" horiz-adv-x="460" 
d="M111 607l-2 7l92 102l9 5h60l9 -5l92 -102l-2 -7l-55 -18h-7l-67 78l-67 -78h-7zM48 46l38 54l9 1q16 -11 34 -19q16 -7 37.5 -12.5t47.5 -5.5q22 0 41.5 4.5t34 14.5t23 26t8.5 39q0 30 -19 47.5t-47 29.5t-61.5 23t-61.5 28t-47 43.5t-19 71.5q0 37 14 66t38 49t56 31
t67 11q33 0 59.5 -5.5t46 -13t32 -14t15.5 -9.5l1 -7l-38 -54l-8 -1q-17 13 -44.5 21t-59.5 8q-49 0 -72 -22t-23 -57q0 -27 19 -43t47 -28t61 -23.5t61 -30t47 -47t19 -73.5q0 -46 -17.5 -76.5t-45.5 -49t-62 -26.5t-67 -8t-62.5 7.5t-51.5 17.5q-26 11 -48 25z" />
    <glyph glyph-name="Scedilla" unicode="&#x15e;" horiz-adv-x="508" 
d="M48 55l41 56l9 1q11 -9 27.5 -17t35.5 -14t38 -9.5t36 -3.5q27 0 50.5 6t41.5 20t28.5 35.5t10.5 53.5q0 40 -22 63.5t-55.5 39.5t-72 30t-72 35t-55.5 54t-22 88q0 45 16 80.5t43.5 60.5t63.5 38t77 13q37 0 67.5 -6.5t52.5 -15t35.5 -17t16.5 -11.5l1 -7l-38 -58l-8 -1
q-21 16 -52.5 26t-70.5 10q-60 0 -89 -30.5t-29 -78.5q0 -38 22 -59.5t55.5 -37t72 -29.5t72 -36t55.5 -57t22 -93q0 -50 -16 -84.5t-42 -57.5t-59 -35t-67 -16q11 -11 24 -30t13 -44q0 -45 -30 -69t-72 -24q-22 0 -47 7.5t-41 24.5l-2 7l13 34l7 3q22 -16 44 -16
q38 0 53 20t15 47q0 8 -3.5 18.5t-7.5 18.5h-2q-18 0 -41 3.5t-48 11t-49.5 19t-43.5 26.5z" />
    <glyph glyph-name="scedilla" unicode="&#x15f;" horiz-adv-x="460" 
d="M48 46l38 54l9 1q16 -11 34 -19q16 -7 37.5 -12.5t47.5 -5.5q22 0 41.5 4.5t34 14.5t23 26t8.5 39q0 30 -19 47.5t-47 29.5t-61.5 23t-61.5 28t-47 43.5t-19 71.5q0 37 14 66t38 49t56 31t67 11q33 0 59.5 -5.5t46 -13t32 -14t15.5 -9.5l1 -7l-38 -54l-8 -1
q-17 13 -44.5 21t-59.5 8q-49 0 -72 -22t-23 -57q0 -27 19 -43t47 -28t61 -23.5t61 -30t47 -47t19 -73.5q0 -40 -13.5 -68.5t-35.5 -47t-50.5 -29t-57.5 -13.5q10 -10 23.5 -29.5t13.5 -44.5q0 -45 -30 -69t-72 -24q-22 0 -47 7.5t-41 24.5l-2 7l13 34l7 3q22 -16 44 -16
q38 0 53 20t15 47q0 8 -4 19t-8 19q-33 0 -62.5 7.5t-51.5 17.5q-26 11 -48 25z" />
    <glyph glyph-name="Scaron" unicode="&#x160;" horiz-adv-x="508" 
d="M220 745l-92 102l2 7l55 18h7l67 -78l67 78h7l55 -18l2 -7l-92 -102l-9 -5h-60zM48 55l41 56l9 1q11 -9 27.5 -17t35.5 -14t38 -9.5t36 -3.5q27 0 50.5 6t41.5 20t28.5 35.5t10.5 53.5q0 40 -22 63.5t-55.5 39.5t-72 30t-72 35t-55.5 54t-22 88q0 45 16 80.5t43.5 60.5
t63.5 38t77 13q37 0 67.5 -6.5t52.5 -15t35.5 -17t16.5 -11.5l1 -7l-38 -58l-8 -1q-21 16 -52.5 26t-70.5 10q-60 0 -89 -30.5t-29 -78.5q0 -38 22 -59.5t55.5 -37t72 -29.5t72 -36t55.5 -57t22 -93q0 -56 -20 -94t-52 -60.5t-71 -32t-77 -9.5q-18 0 -41 3.5t-48 11
t-49.5 19t-43.5 26.5z" />
    <glyph glyph-name="scaron" unicode="&#x161;" horiz-adv-x="460" 
d="M202 601l-92 102l2 7l55 18h7l67 -78l67 78h7l55 -18l2 -7l-92 -102l-9 -5h-60zM48 46l38 54l9 1q16 -11 34 -19q16 -7 37.5 -12.5t47.5 -5.5q22 0 41.5 4.5t34 14.5t23 26t8.5 39q0 30 -19 47.5t-47 29.5t-61.5 23t-61.5 28t-47 43.5t-19 71.5q0 37 14 66t38 49t56 31
t67 11q33 0 59.5 -5.5t46 -13t32 -14t15.5 -9.5l1 -7l-38 -54l-8 -1q-17 13 -44.5 21t-59.5 8q-49 0 -72 -22t-23 -57q0 -27 19 -43t47 -28t61 -23.5t61 -30t47 -47t19 -73.5q0 -46 -17.5 -76.5t-45.5 -49t-62 -26.5t-67 -8t-62.5 7.5t-51.5 17.5q-26 11 -48 25z" />
    <glyph glyph-name="Tcommaaccent" unicode="&#x162;" horiz-adv-x="497" 
d="M137 -100q22 -16 44 -16q38 0 53 20t15 47q0 6 -3 14.5t-6 16.5l-8 18h-20l-5 5v590h-186l-5 5v70l5 5h469l4 -5l-18 -70l-6 -5h-179v-590l-5 -5h-24q12 -12 23 -25q9 -11 16.5 -26t7.5 -32q0 -45 -30 -69t-72 -24q-22 0 -47 7.5t-41 24.5l-2 7l13 34z" />
    <glyph glyph-name="tcommaaccent" unicode="&#x163;" horiz-adv-x="458" 
d="M118 -100q22 -16 44 -16q38 0 53 20t15 47q0 6 -3 14.5t-6 16.5l-8 18h-20l-5 5v457h-158l-5 5v64l5 5h410l4 -5l-18 -64l-6 -5h-150v-457l-5 -5h-22q12 -12 23 -25q9 -11 16.5 -26t7.5 -32q0 -45 -30 -69t-72 -24q-22 0 -47 7.5t-41 24.5l-2 7l13 34z" />
    <glyph glyph-name="Tcaron" unicode="&#x164;" horiz-adv-x="497" 
d="M208 745l-92 102l2 7l55 18h7l67 -78l67 78h7l55 -18l2 -7l-92 -102l-9 -5h-60zM207 595h-186l-5 5v70l5 5h469l4 -5l-18 -70l-6 -5h-179v-590l-5 -5h-74l-5 5v590z" />
    <glyph glyph-name="tcaron" unicode="&#x165;" horiz-adv-x="458" 
d="M190 601l-92 102l2 7l55 18h7l67 -78l67 78h7l55 -18l2 -7l-92 -102l-9 -5h-60zM188 462h-158l-5 5v64l5 5h410l4 -5l-18 -64l-6 -5h-150v-457l-5 -5h-72l-5 5v457z" />
    <glyph glyph-name="Tbar" unicode="&#x166;" horiz-adv-x="536" 
d="M226 338h-144l-5 5v63l5 5h144v184h-186l-5 5v70l5 5h469l4 -5l-18 -70l-6 -5h-179v-184h156l5 -5l-12 -63l-7 -5h-142v-333l-5 -5h-74l-5 5v333z" />
    <glyph glyph-name="tbar" unicode="&#x167;" horiz-adv-x="487" 
d="M204 248h-124l-5 5v58l5 5h124v146h-158l-5 5v64l5 5h410l4 -5l-18 -64l-6 -5h-150v-146h124l4 -5l-12 -58l-6 -5h-110v-243l-5 -5h-72l-5 5v243z" />
    <glyph glyph-name="Utilde" unicode="&#x168;" horiz-adv-x="695" 
d="M205 783v7q20 33 41 49.5t54 16.5q20 0 33.5 -7t23.5 -16t19.5 -16t21.5 -7q9 0 20.5 8.5t27.5 24.5l7 2l36 -27v-7q-19 -33 -41.5 -49.5t-55.5 -16.5q-20 0 -33 7t-23 15.5t-19.5 15.5t-21.5 7q-18 0 -47 -32l-7 -2zM86 665l5 6l74 10l5 -4v-435q0 -45 13.5 -77.5
t37.5 -54t56 -32t70 -10.5q79 0 128 42.5t49 131.5v423l5 6l74 10l5 -4v-444q0 -121 -69.5 -183t-191.5 -62q-60 0 -108 15.5t-82 46.5t-52.5 77t-18.5 106v432z" />
    <glyph glyph-name="utilde" unicode="&#x169;" horiz-adv-x="618" 
d="M166 639v7q20 33 41 49.5t54 16.5q20 0 33.5 -7t23.5 -16t19.5 -16t21.5 -7q9 0 20.5 8.5t27.5 24.5l7 2l36 -27v-7q-19 -33 -41.5 -49.5t-55.5 -16.5q-20 0 -33 7t-23 15.5t-19.5 15.5t-21.5 7q-18 0 -47 -32l-7 -2zM81 527l5 6l72 10l5 -5v-344q0 -34 11 -58.5
t30.5 -41t46 -24.5t57.5 -8q66 0 106 32t40 100v333l5 6l72 10l5 -5v-352q0 -97 -61 -147.5t-167 -50.5q-104 0 -165.5 50.5t-61.5 147.5v341z" />
    <glyph glyph-name="Umacron" unicode="&#x16a;" horiz-adv-x="695" 
d="M237 777v58l5 5h224l4 -5l-12 -58l-6 -5h-210zM86 665l5 6l74 10l5 -4v-435q0 -45 13.5 -77.5t37.5 -54t56 -32t70 -10.5q79 0 128 42.5t49 131.5v423l5 6l74 10l5 -4v-444q0 -121 -69.5 -183t-191.5 -62q-60 0 -108 15.5t-82 46.5t-52.5 77t-18.5 106v432z" />
    <glyph glyph-name="umacron" unicode="&#x16b;" horiz-adv-x="618" 
d="M193 633v58l5 5h224l4 -5l-12 -58l-6 -5h-210zM81 527l5 6l72 10l5 -5v-344q0 -34 11 -58.5t30.5 -41t46 -24.5t57.5 -8q66 0 106 32t40 100v333l5 6l72 10l5 -5v-352q0 -97 -61 -147.5t-167 -50.5q-104 0 -165.5 50.5t-61.5 147.5v341z" />
    <glyph glyph-name="Ubreve" unicode="&#x16c;" horiz-adv-x="695" 
d="M347 733q-24 0 -45.5 7.5t-38 21t-26 33.5t-9.5 44q0 5 0.5 10.5t1.5 10.5l6 5h48l5 -5v-9q0 -24 14 -41t44 -17t44 17t14 41v9l5 5h48l6 -5q1 -5 1.5 -10.5t0.5 -10.5q0 -24 -9.5 -44t-26 -33.5t-38 -21t-45.5 -7.5zM86 665l5 6l74 10l5 -4v-435q0 -45 13.5 -77.5
t37.5 -54t56 -32t70 -10.5q79 0 128 42.5t49 131.5v423l5 6l74 10l5 -4v-444q0 -121 -69.5 -183t-191.5 -62q-60 0 -108 15.5t-82 46.5t-52.5 77t-18.5 106v432z" />
    <glyph glyph-name="ubreve" unicode="&#x16d;" horiz-adv-x="618" 
d="M308 589q-24 0 -45.5 7.5t-38 21t-26 33.5t-9.5 44q0 5 0.5 10.5t1.5 10.5l6 5h48l5 -5v-9q0 -24 14 -41t44 -17t44 17t14 41v9l5 5h48l6 -5q1 -5 1.5 -10.5t0.5 -10.5q0 -24 -9.5 -44t-26 -33.5t-38 -21t-45.5 -7.5zM81 527l5 6l72 10l5 -5v-344q0 -34 11 -58.5
t30.5 -41t46 -24.5t57.5 -8q66 0 106 32t40 100v333l5 6l72 10l5 -5v-352q0 -97 -61 -147.5t-167 -50.5q-104 0 -165.5 50.5t-61.5 147.5v341z" />
    <glyph glyph-name="Uring" unicode="&#x16e;" horiz-adv-x="695" 
d="M347 733q-31 0 -56 16.5t-25 49.5v13q0 33 25 49t56 16t56 -16t25 -49v-13q0 -33 -25 -49.5t-56 -16.5zM347 772q16 0 26.5 8t10.5 25t-10.5 25t-26.5 8t-26.5 -8t-10.5 -25t10.5 -25t26.5 -8zM86 665l5 6l74 10l5 -4v-435q0 -45 13.5 -77.5t37.5 -54t56 -32t70 -10.5
q79 0 128 42.5t49 131.5v423l5 6l74 10l5 -4v-444q0 -121 -69.5 -183t-191.5 -62q-60 0 -108 15.5t-82 46.5t-52.5 77t-18.5 106v432z" />
    <glyph glyph-name="uring" unicode="&#x16f;" horiz-adv-x="618" 
d="M308 589q-31 0 -56 16.5t-25 49.5v13q0 33 25 49t56 16t56 -16t25 -49v-13q0 -33 -25 -49.5t-56 -16.5zM308 628q16 0 26.5 8t10.5 25t-10.5 25t-26.5 8t-26.5 -8t-10.5 -25t10.5 -25t26.5 -8zM81 527l5 6l72 10l5 -5v-344q0 -34 11 -58.5t30.5 -41t46 -24.5t57.5 -8
q66 0 106 32t40 100v333l5 6l72 10l5 -5v-352q0 -97 -61 -147.5t-167 -50.5q-104 0 -165.5 50.5t-61.5 147.5v341z" />
    <glyph glyph-name="Uhungarumlaut" unicode="&#x170;" horiz-adv-x="695" 
d="M349 756l61 105l7 4h101l5 -4l-123 -128h-6l-44 17zM229 755l-1 6l51 100l7 4h65l5 -4l-72 -124h-7zM86 665l5 6l74 10l5 -4v-435q0 -45 13.5 -77.5t37.5 -54t56 -32t70 -10.5q79 0 128 42.5t49 131.5v423l5 6l74 10l5 -4v-444q0 -121 -69.5 -183t-191.5 -62
q-60 0 -108 15.5t-82 46.5t-52.5 77t-18.5 106v432z" />
    <glyph glyph-name="uhungarumlaut" unicode="&#x171;" horiz-adv-x="618" 
d="M305 612l61 105l7 4h101l5 -4l-123 -128h-6l-44 17zM185 611l-1 6l51 100l7 4h65l5 -4l-72 -124h-7zM81 527l5 6l72 10l5 -5v-344q0 -34 11 -58.5t30.5 -41t46 -24.5t57.5 -8q66 0 106 32t40 100v333l5 6l72 10l5 -5v-352q0 -97 -61 -147.5t-167 -50.5
q-104 0 -165.5 50.5t-61.5 147.5v341z" />
    <glyph glyph-name="Uogonek" unicode="&#x172;" horiz-adv-x="696" 
d="M86 665l5 6l74 10l5 -4v-435q0 -45 13.5 -77.5t37.5 -54t56 -32t70 -10.5q79 0 128 42.5t49 131.5v423l5 6l74 10l5 -4v-444q0 -55 -15 -93.5t-37.5 -65.5t-48.5 -47t-48.5 -39.5t-37.5 -41.5t-15 -53q0 -24 15 -39t53 -17l5 -5l-11 -46l-5 -5q-28 0 -53.5 6.5t-45 19
t-31 30.5t-11.5 41q0 37 21.5 65t48.5 48q-23 -3 -45 -3q-60 0 -108 15.5t-82 46.5t-52.5 77t-18.5 106v432z" />
    <glyph glyph-name="uogonek" unicode="&#x173;" horiz-adv-x="619" 
d="M81 527l5 6l72 10l5 -5v-344q0 -34 11 -58.5t30.5 -41t46 -24.5t57.5 -8q66 0 106 32t40 100v333l5 6l72 10l5 -5v-356q0 -43 -13.5 -74t-33.5 -54.5t-43.5 -42t-43.5 -36t-33.5 -37t-13.5 -45.5q0 -24 16.5 -39t54.5 -17l5 -5l-11 -46l-5 -5q-28 0 -53.5 6.5t-45 19
t-31 30.5t-11.5 41q0 37 21 64.5t47 47.5q-8 -1 -16.5 -1.5t-17.5 -0.5q-104 0 -165.5 50.5t-61.5 147.5v341z" />
    <glyph glyph-name="Wcircumflex" unicode="&#x174;" horiz-adv-x="870" 
d="M306 758l92 102l9 5h60l9 -5l92 -102l-2 -7l-55 -18h-7l-67 78l-67 -78h-7l-55 18zM14 664l5 6l79 11l6 -4l155 -499l19 -74l16 74l104 371v116l5 6l74 10l5 -4v-140l98 -359l15 -74l18 74l143 485l5 6l88 12l6 -4l-225 -679l-7 -5l-72 14l-6 6l-94 338l-14 67l-14 -67
l-100 -353l-7 -5l-74 14l-6 6z" />
    <glyph glyph-name="wcircumflex" unicode="&#x175;" horiz-adv-x="766" 
d="M255 614l92 102l9 5h60l9 -5l92 -102l-2 -7l-55 -18h-7l-67 78l-67 -78h-7l-55 18zM20 527l5 6l77 10l6 -4l132 -398l10 -44l9 43l89 298v87v2l5 6l71 10l5 -5v-109l83 -289l9 -43l9 44l122 386l5 6l84 10l6 -4l-193 -540l-5 -5l-69 12l-5 5l-79 271l-10 44l-10 -44
l-85 -283l-5 -5l-69 12l-5 5z" />
    <glyph glyph-name="Ycircumflex" unicode="&#x176;" horiz-adv-x="514" 
d="M127 751l-2 7l92 102l9 5h60l9 -5l92 -102l-2 -7l-55 -18h-7l-67 78l-67 -78h-7zM215 296l-203 367l5 7l84 11l6 -4l134 -266l16 -39l17 39l127 252l5 6l91 12l6 -4l-204 -381v-291l-5 -5h-74l-5 5v291z" />
    <glyph glyph-name="ycircumflex" unicode="&#x177;" horiz-adv-x="457" 
d="M100 607l-2 7l92 102l9 5h60l9 -5l92 -102l-2 -7l-55 -18h-7l-67 78l-67 -78h-7zM189 237l-175 290l5 6l81 10l6 -4l112 -209l12 -26l12 26l106 198l7 5l85 10l6 -4l-175 -302v-232l-5 -5h-72l-5 5v232z" />
    <glyph glyph-name="Ydieresis" unicode="&#x178;" horiz-adv-x="514" 
d="M284 779v78l5 5h73l5 -5v-78l-5 -5h-73zM147 779v78l5 5h73l5 -5v-78l-5 -5h-73zM215 296l-203 367l5 7l84 11l6 -4l134 -266l16 -39l17 39l127 252l5 6l91 12l6 -4l-204 -381v-291l-5 -5h-74l-5 5v291z" />
    <glyph glyph-name="Zacute" unicode="&#x179;" horiz-adv-x="526" 
d="M215 753l-1 6l60 102l7 4h108l5 -4l-123 -128h-6zM45 54l322 541h-306l-4 5l10 70l6 5h397l5 -5v-49l-321 -541h314l5 -5v-70l-5 -5h-407l-6 5z" />
    <glyph glyph-name="zacute" unicode="&#x17a;" horiz-adv-x="476" 
d="M188 609l-1 6l60 102l7 4h108l5 -4l-123 -128h-6zM48 49l266 413h-252l-4 5l7 64l6 5h345l5 -5v-44l-266 -413h262l5 -5v-64l-5 -5h-353l-6 5z" />
    <glyph glyph-name="Zdotaccent" unicode="&#x17b;" horiz-adv-x="526" 
d="M221 777v83l5 5h83l5 -5v-83l-5 -5h-83zM45 54l322 541h-306l-4 5l10 70l6 5h397l5 -5v-49l-321 -541h314l5 -5v-70l-5 -5h-407l-6 5z" />
    <glyph glyph-name="zdotaccent" unicode="&#x17c;" horiz-adv-x="476" 
d="M195 633v83l5 5h83l5 -5v-83l-5 -5h-83zM48 49l266 413h-252l-4 5l7 64l6 5h345l5 -5v-44l-266 -413h262l5 -5v-64l-5 -5h-353l-6 5z" />
    <glyph glyph-name="Zcaron" unicode="&#x17d;" horiz-adv-x="526" 
d="M231 745l-92 102l2 7l55 18h7l67 -78l67 78h7l55 -18l2 -7l-92 -102l-9 -5h-60zM45 54l322 541h-306l-4 5l10 70l6 5h397l5 -5v-49l-321 -541h314l5 -5v-70l-5 -5h-407l-6 5z" />
    <glyph glyph-name="zcaron" unicode="&#x17e;" horiz-adv-x="476" 
d="M205 601l-92 102l2 7l55 18h7l67 -78l67 78h7l55 -18l2 -7l-92 -102l-9 -5h-60zM48 49l266 413h-252l-4 5l7 64l6 5h345l5 -5v-44l-266 -413h262l5 -5v-64l-5 -5h-353l-6 5z" />
    <glyph glyph-name="florin" unicode="&#x192;" horiz-adv-x="462" 
d="M-16 -50q-3 -7 -6 -15q-5 -15 -5 -34q0 -21 13 -40.5t52 -19.5q16 0 26.5 6.5t17 17t9.5 23.5t5 26l48 403h-98l-5 5v62l5 5h108l25 203q8 63 43 100.5t95 37.5q69 0 102.5 -33t33.5 -89q0 -15 -2.5 -32t-7.5 -35l-7 -4l-63 9l-3 7q8 22 8 44q0 24 -13.5 42.5t-47.5 18.5
q-14 0 -24.5 -6.5t-18 -16.5t-12 -23t-5.5 -25l-23 -198h169l4 -5l-18 -62l-6 -5h-158l-50 -409q-8 -60 -41 -99.5t-95 -39.5q-44 0 -71 12.5t-42 31t-20 40.5t-5 41q0 26 5 46q3 11 6 20l6 5l63 -9z" />
    <glyph glyph-name="Scommaaccent" unicode="&#x218;" horiz-adv-x="508" 
d="M48 55l41 56l9 1q11 -9 27.5 -17t35.5 -14t38 -9.5t36 -3.5q27 0 50.5 6t41.5 20t28.5 35.5t10.5 53.5q0 40 -22 63.5t-55.5 39.5t-72 30t-72 35t-55.5 54t-22 88q0 45 16 80.5t43.5 60.5t63.5 38t77 13q37 0 67.5 -6.5t52.5 -15t35.5 -17t16.5 -11.5l1 -7l-38 -58l-8 -1
q-21 16 -52.5 26t-70.5 10q-60 0 -89 -30.5t-29 -78.5q0 -38 22 -59.5t55.5 -37t72 -29.5t72 -36t55.5 -57t22 -93q0 -56 -20 -94t-52 -60.5t-71 -32t-77 -9.5q-18 0 -41 3.5t-48 11t-49.5 19t-43.5 26.5zM209 -47h78l5 -4l-72 -152l-7 -3l-34 7l-5 6l29 142z" />
    <glyph glyph-name="scommaaccent" unicode="&#x219;" horiz-adv-x="460" 
d="M48 46l38 54l9 1q16 -11 34 -19q16 -7 37.5 -12.5t47.5 -5.5q22 0 41.5 4.5t34 14.5t23 26t8.5 39q0 30 -19 47.5t-47 29.5t-61.5 23t-61.5 28t-47 43.5t-19 71.5q0 37 14 66t38 49t56 31t67 11q33 0 59.5 -5.5t46 -13t32 -14t15.5 -9.5l1 -7l-38 -54l-8 -1
q-17 13 -44.5 21t-59.5 8q-49 0 -72 -22t-23 -57q0 -27 19 -43t47 -28t61 -23.5t61 -30t47 -47t19 -73.5q0 -46 -17.5 -76.5t-45.5 -49t-62 -26.5t-67 -8t-62.5 7.5t-51.5 17.5q-26 11 -48 25zM184 -47h78l5 -4l-72 -152l-7 -3l-34 7l-5 6l29 142z" />
    <glyph glyph-name="uni021A" unicode="&#x21a;" horiz-adv-x="497" 
d="M207 595h-186l-5 5v70l5 5h469l4 -5l-18 -70l-6 -5h-179v-590l-5 -5h-74l-5 5v590zM210 -47h78l5 -4l-72 -152l-7 -3l-34 7l-5 6l29 142z" />
    <glyph glyph-name="uni021B" unicode="&#x21b;" horiz-adv-x="458" 
d="M188 462h-158l-5 5v64l5 5h410l4 -5l-18 -64l-6 -5h-150v-457l-5 -5h-72l-5 5v457zM188 -47h78l5 -4l-72 -152l-7 -3l-34 7l-5 6l29 142z" />
    <glyph glyph-name="circumflex" unicode="&#x2c6;" horiz-adv-x="542" 
d="M142 587l-2 7l92 102l9 5h60l9 -5l92 -102l-2 -7l-55 -18h-7l-67 78l-67 -78h-7z" />
    <glyph glyph-name="caron" unicode="&#x2c7;" horiz-adv-x="542" 
d="M232 581l-92 102l2 7l55 18h7l67 -78l67 78h7l55 -18l2 -7l-92 -102l-9 -5h-60z" />
    <glyph glyph-name="breve" unicode="&#x2d8;" horiz-adv-x="542" 
d="M271 569q-24 0 -45.5 7.5t-38 21t-26 33.5t-9.5 44q0 5 0.5 10.5t1.5 10.5l6 5h48l5 -5v-9q0 -24 14 -41t44 -17t44 17t14 41v9l5 5h48l6 -5q1 -5 1.5 -10.5t0.5 -10.5q0 -24 -9.5 -44t-26 -33.5t-38 -21t-45.5 -7.5z" />
    <glyph glyph-name="dotaccent" unicode="&#x2d9;" horiz-adv-x="543" 
d="M225 613v83l5 5h83l5 -5v-83l-5 -5h-83z" />
    <glyph glyph-name="ring" unicode="&#x2da;" horiz-adv-x="542" 
d="M271 569q-31 0 -56 16.5t-25 49.5v13q0 33 25 49t56 16t56 -16t25 -49v-13q0 -33 -25 -49.5t-56 -16.5zM271 608q16 0 26.5 8t10.5 25t-10.5 25t-26.5 8t-26.5 -8t-10.5 -25t10.5 -25t26.5 -8z" />
    <glyph glyph-name="ogonek" unicode="&#x2db;" horiz-adv-x="544" 
d="M185 -122q0 39 24 68t53 49q34 23 78 39l19 -14q-12 -12 -28.5 -27t-30.5 -31.5t-24 -34t-10 -34.5q0 -24 14.5 -39t56.5 -17l5 -5l-11 -46l-5 -5q-61 0 -101 25.5t-40 71.5z" />
    <glyph glyph-name="tilde" unicode="&#x2dc;" horiz-adv-x="543" 
d="M132 619v7q20 33 41 49.5t54 16.5q20 0 33.5 -7t23.5 -16t19.5 -16t21.5 -7q9 0 20.5 8.5t27.5 24.5l7 2l36 -27v-7q-19 -33 -41.5 -49.5t-55.5 -16.5q-20 0 -33 7t-23 15.5t-19.5 15.5t-21.5 7q-18 0 -47 -32l-7 -2z" />
    <glyph glyph-name="hungarumlaut" unicode="&#x2dd;" horiz-adv-x="543" 
d="M266 592l61 105l7 4h101l5 -4l-123 -128h-6l-44 17zM146 591l-1 6l51 100l7 4h65l5 -4l-72 -124h-7z" />
    <glyph glyph-name="Delta" unicode="&#x394;" horiz-adv-x="602" 
d="M78 350v30l3 7l398 227l6 -2l32 -56l-2 -7l-14 -13l-65 -171l65 -171l14 -13l2 -7l-32 -56l-6 -2l-398 227z" />
    <glyph glyph-name="Delta" unicode="&#x2206;" horiz-adv-x="602" 
d="M78 350v30l3 7l398 227l6 -2l32 -56l-2 -7l-14 -13l-65 -171l65 -171l14 -13l2 -7l-32 -56l-6 -2l-398 227z" />
    <glyph glyph-name="Omega" unicode="&#x3a9;" horiz-adv-x="528" 
d="M242 -39l-227 398l2 6l56 32l7 -2l13 -14l129 -65v354l5 5h74l5 -5v-354l129 65l13 14l7 2l56 -32l2 -6l-227 -398l-7 -3h-30z" />
    <glyph glyph-name="Omega" unicode="&#x2126;" horiz-adv-x="528" 
d="M242 -39l-227 398l2 6l56 32l7 -2l13 -14l129 -65v354l5 5h74l5 -5v-354l129 65l13 14l7 2l56 -32l2 -6l-227 -398l-7 -3h-30z" />
    <glyph glyph-name="pi" unicode="&#x3c0;" horiz-adv-x="794" 
d="M64 395q0 75 29.5 130t76.5 91t107 53.5t120 17.5q61 0 121 -17.5t107 -53.5t76 -91t29 -130v-119q0 -75 -29 -130t-76 -91.5t-107 -54t-121 -17.5q-60 0 -120 17.5t-107 54t-76.5 91.5t-29.5 130v119zM129 296q0 -66 22 -113.5t59 -77.5t85.5 -44.5t101.5 -14.5
q54 0 102.5 14.5t85.5 44.5t58.5 77.5t21.5 113.5v78q0 66 -21.5 113.5t-58.5 78t-85.5 44.5t-102.5 14q-53 0 -101.5 -14t-85.5 -44.5t-59 -78t-22 -113.5v-78zM290 533l5 5h111q34 0 62 -7t48 -22t31 -38.5t11 -57.5q0 -27 -9.5 -51t-26 -42t-40.5 -28.5t-52 -10.5
q-22 0 -36.5 5t-22.5 12q-10 7 -15 17l3 -33v-147l-5 -5h-59l-5 5v398zM359 343q10 -3 23.5 -4.5t25.5 -1.5q31 0 55 17t24 58q0 19 -6.5 32t-18 20.5t-26 10.5t-30.5 3h-47v-135z" />
    <glyph glyph-name="uni1E9E" unicode="&#x1e9e;" horiz-adv-x="612" 
d="M88 494q0 85 45 133t119 48h242l5 -5v-49l-132 -224q39 -3 75.5 -15.5t64 -37t44 -60.5t16.5 -85q0 -52 -18 -89.5t-48 -62t-68.5 -36t-80.5 -11.5h-90l-5 5l12 69l6 5h65q27 0 53 6.5t46.5 20.5t33 37t12.5 56t-12.5 55.5t-33 37t-46.5 20.5t-53 6h-66l-5 5l-12 50
l137 224h-137q-12 0 -27 -5t-28.5 -17.5t-22.5 -34t-9 -53.5v-482l-5 -5h-72l-5 5v489z" />
    <glyph glyph-name="endash" unicode="&#x2013;" horiz-adv-x="693" 
d="M97 252v63l5 5h492l4 -5l-12 -63l-6 -5h-478z" />
    <glyph glyph-name="emdash" unicode="&#x2014;" horiz-adv-x="891" 
d="M97 252v63l5 5h690l4 -5l-12 -63l-6 -5h-676z" />
    <glyph glyph-name="quoteleft" unicode="&#x2018;" horiz-adv-x="243" 
d="M53 499l86 177l7 4l38 -10l4 -7l-29 -164l-7 -5h-96z" />
    <glyph glyph-name="quoteright" unicode="&#x2019;" horiz-adv-x="227" 
d="M63 499l-4 7l29 164l7 5h96l3 -5l-86 -177l-7 -4z" />
    <glyph glyph-name="quotesinglbase" unicode="&#x201a;" horiz-adv-x="258" 
d="M81 89l7 5h96l3 -5l-86 -177l-7 -4l-38 10l-4 7z" />
    <glyph glyph-name="quotedblleft" unicode="&#x201c;" horiz-adv-x="397" 
d="M207 499l86 177l7 4l38 -10l4 -7l-29 -169h-103zM53 499l86 177l7 4l38 -10l4 -7l-29 -164l-7 -5h-96z" />
    <glyph glyph-name="quotedblright" unicode="&#x201d;" horiz-adv-x="381" 
d="M213 506l29 164l7 5h96l3 -5l-86 -177l-7 -4l-38 10zM63 499l-4 7l29 164l7 5h96l3 -5l-86 -177l-7 -4z" />
    <glyph glyph-name="quotedblbase" unicode="&#x201e;" horiz-adv-x="412" 
d="M236 90l7 5h96l3 -5l-86 -177l-7 -4l-38 10l-4 7zM82 90l7 5h96l3 -5l-86 -177l-7 -4l-38 10l-4 7z" />
    <glyph glyph-name="dagger" unicode="&#x2020;" horiz-adv-x="453" 
d="M180 453h-130l-5 5v62l5 5h130v141l5 6l70 10l5 -4v-153h147l5 -5l-19 -62l-7 -5h-126v-372l-20 -101l-6 -7l-49 29l-5 9v442z" />
    <glyph glyph-name="daggerdbl" unicode="&#x2021;" horiz-adv-x="484" 
d="M197 197h-130l-5 5v62l5 5h130v138h-130l-5 5v62l5 5h130v186l5 6l70 10l5 -4v-198h147l5 -5l-19 -62l-7 -5h-126v-138h147l5 -5l-19 -62l-7 -5h-126v-116l-20 -101l-6 -7l-49 29l-5 9v186z" />
    <glyph glyph-name="bullet" unicode="&#x2022;" horiz-adv-x="466" 
d="M232 106q-30 0 -60.5 9t-54.5 27t-39 46t-15 67v36q0 38 15 66.5t39 47t54.5 28t60.5 9.5q31 0 61.5 -9.5t55 -28t39.5 -47t15 -66.5v-36q0 -39 -15 -67t-39.5 -46t-55 -27t-61.5 -9z" />
    <glyph glyph-name="ellipsis" unicode="&#x2026;" horiz-adv-x="810" 
d="M631 99l5 5h92l5 -5v-94l-5 -5h-92l-5 5v94zM354 99l5 5h92l5 -5v-94l-5 -5h-92l-5 5v94zM77 99l5 5h92l5 -5v-94l-5 -5h-92l-5 5v94z" />
    <glyph glyph-name="perthousand" unicode="&#x2030;" horiz-adv-x="1020" 
d="M185 365q-52 0 -85.5 27t-33.5 80v102q0 53 33.5 80.5t85.5 27.5t85 -27.5t33 -80.5v-102q0 -53 -33 -80t-85 -27zM572 679l7 2l62 -19l2 -5l-490 -655l-6 -2h-77l-2 5zM185 423q28 0 43.5 15t15.5 45v82q0 29 -15.5 43.5t-43.5 14.5q-29 0 -44.5 -14.5t-15.5 -43.5v-82
q0 -30 15.5 -45t44.5 -15zM720 198q0 54 33.5 81t85.5 27t86 -27t34 -81v-101q0 -53 -34 -81t-86 -28t-85.5 28t-33.5 81v101zM419 198q0 54 33.5 81t85.5 27t86 -27t34 -81v-101q0 -53 -34 -81t-86 -28t-85.5 28t-33.5 81v101zM779 105q0 -29 15.5 -43.5t44.5 -14.5
q28 0 43.5 14.5t15.5 43.5v83q0 29 -15.5 44t-43.5 15q-29 0 -44.5 -15t-15.5 -44v-83zM478 105q0 -29 15.5 -43.5t44.5 -14.5q28 0 43.5 14.5t15.5 43.5v83q0 29 -15.5 44t-43.5 15q-29 0 -44.5 -15t-15.5 -44v-83z" />
    <glyph glyph-name="guilsinglleft" unicode="&#x2039;" horiz-adv-x="345" 
d="M57 269v7l126 190l9 6h75l6 -7l-130 -192l130 -192l-6 -7h-75l-9 6z" />
    <glyph glyph-name="guilsinglright" unicode="&#x203a;" horiz-adv-x="345" 
d="M72 81l130 192l-130 192l6 7h75l9 -6l126 -190v-7l-126 -189l-9 -6h-75z" />
    <glyph glyph-name="fraction" unicode="&#x2044;" horiz-adv-x="657" 
d="M545 679l7 2l62 -19l2 -5l-490 -655l-6 -2h-77l-2 5z" />
    <glyph glyph-name="Euro" unicode="&#x20ac;" horiz-adv-x="612" 
d="M62 183v60l5 5h63v68h-63l-5 5v60l5 5h66q7 49 28.5 86t54.5 62t76.5 38t94.5 13q36 0 64 -6t48 -13.5t32.5 -15.5t15.5 -11l1 -7l-22 -56l-8 -1q-15 10 -33 19q-17 7 -40 13t-54 6q-69 0 -114.5 -33t-60.5 -94h284l4 -5l-16 -60l-6 -5h-272v-68h256l4 -5l-15 -60l-6 -5
h-231q17 -59 63.5 -88.5t110.5 -29.5q42 0 78.5 13.5t57.5 29.5l8 -1l20 -56l-1 -7q-3 -3 -15.5 -11.5t-33.5 -17.5t-49.5 -15.5t-64.5 -6.5q-103 0 -172 48t-86 142h-67z" />
    <glyph glyph-name="trademark" unicode="&#x2122;" horiz-adv-x="807" 
d="M357 670l5 5l48 6l7 -5l126 -226l124 220l5 5l49 6l7 -5v-319l-5 -5h-53l-4 5v195l-94 -165l-7 -7h-47l-6 7l-93 169v-199l-5 -5h-52l-5 5v313zM142 357v261h-105l-5 5v47l5 5h279l4 -5l-13 -47l-6 -5h-97v-261l-5 -5h-52z" />
    <glyph glyph-name="partialdiff" unicode="&#x2202;" horiz-adv-x="804" 
d="M51 238l-5 5v74l5 5h354l-65 129l-14 13l-2 7l32 56l6 2l398 -227l3 -7v-30l-3 -7l-398 -227l-6 2l-32 56l2 7l14 13l65 129h-354z" />
    <glyph glyph-name="product" unicode="&#x220f;" horiz-adv-x="854" 
d="M71 323l-5 5v74l5 5h354l-65 129l-14 13l-2 7l32 56l6 2l398 -227l3 -7v-30l-3 -7l-398 -227l-6 2l-32 56l2 7l14 13l65 129h-354z" />
    <glyph glyph-name="summation" unicode="&#x2211;" horiz-adv-x="854" 
d="M71 350v30l3 7l398 227l6 -2l32 -56l-2 -7l-14 -13l-65 -129h354l5 -5v-74l-5 -5h-354l65 -129l14 -13l2 -7l-32 -56l-6 -2l-398 227z" />
    <glyph glyph-name="minus" unicode="&#x2212;" 
d="M94 249v69l5 5h358l4 -5l-18 -69l-6 -5h-338z" />
    <glyph glyph-name="radical" unicode="&#x221a;" horiz-adv-x="543" 
d="M95 33l-32 56l2 7l14 13l65 171l-65 171l-14 13l-2 7l32 56l6 2l398 -227l3 -7v-30l-3 -7l-398 -227z" />
    <glyph glyph-name="infinity" unicode="&#x221e;" horiz-adv-x="502" 
d="M195 490l5 6l75 12l5 -4l-6 -146q40 8 61 38.5t21 75.5v24q0 54 -29.5 81.5t-83.5 27.5t-86 -26t-32 -83l-7 -3l-68 14l-5 6q0 42 15.5 74t42.5 54t63 33t77 11t77 -11t62.5 -33t42 -54t15.5 -74v-58q0 -38 -13 -69t-35.5 -53.5t-53.5 -36t-67 -17.5l-3 -88l-5 -5h-54
l-5 5zM187 96l5 5h89l5 -5v-91l-5 -5h-89l-5 5v91z" />
    <glyph glyph-name="integral" unicode="&#x222b;" horiz-adv-x="582" 
d="M249 359l-129 -65l-13 -14l-7 -2l-56 32l-2 6l227 398l7 3h30l7 -3l227 -398l-2 -6l-56 -32l-7 2l-13 14l-129 65v-354l-5 -5h-74l-5 5v354z" />
    <glyph glyph-name="approxequal" unicode="&#x2248;" horiz-adv-x="630" 
d="M75 381l1 7q26 24 62 43t78 19q35 0 60.5 -11t47 -24t42.5 -24t48 -11q28 0 54 14t46 32l7 -1l34 -52l-1 -7q-26 -24 -62 -43t-78 -19q-35 0 -60.5 11t-47 24t-42.5 24t-48 11q-28 0 -54 -14t-46 -32l-7 1zM75 182l1 7q26 24 62 43t78 19q35 0 60.5 -11t47 -24t42.5 -24
t48 -11q28 0 54 14t46 32l7 -1l34 -52l-1 -7q-26 -24 -62 -43t-78 -19q-35 0 -60.5 11t-47 24t-42.5 24t-48 11q-28 0 -54 -14t-46 -32l-7 1z" />
    <glyph glyph-name="notequal" unicode="&#x2260;" 
d="M115 79l47 80h-63l-5 5v63l5 5h107l61 103h-168l-5 5v63l5 5h211l59 99l7 2l57 -9l2 -5l-52 -87h70l4 -5l-17 -63l-6 -5h-94l-61 -103h152l4 -5l-17 -63l-6 -5h-177l-56 -95l-6 -2l-56 12z" />
    <glyph glyph-name="lessequal" unicode="&#x2264;" 
d="M56 256l16 77l6 6l391 204l5 -4v-71l-5 -7l-331 -172l331 -164l5 -7v-71l-5 -4l-410 205zM117 -26h352l5 -5v-63l-5 -5h-352l-5 5v63z" />
    <glyph glyph-name="greaterequal" unicode="&#x2265;" 
d="M76 117l5 7l331 172l-331 164l-5 7v71l5 4l410 -205l3 -8l-16 -77l-6 -6l-391 -204l-5 4v71zM81 -26h349l5 -5l-1 -63l-5 -5h-348l-5 5v63z" />
    <glyph glyph-name="lozenge" unicode="&#x25ca;" horiz-adv-x="600" 
d="M122 118l-32 56l2 7l14 13l65 171l-65 171l-14 13l-2 7l32 56l6 2l398 -227l3 -7v-30l-3 -7l-398 -227z" />
    <glyph glyph-name="glyph284" horiz-adv-x="1172" 
d="M189 124l-126 72v278l126 71v151l265 142l134 -71l132 71l265 -142v-151l124 -71v-278l-124 -72v-152l-265 -141l-132 71l-134 -71l-265 141v152zM467 -119l121 66l118 -66l238 126v139l114 64v249l-114 66v136l-238 126l-118 -64l-121 64l-238 -126v-136l-114 -66v-249
l114 -64v-139zM263 162l-99 60v225l99 58v123l215 114l110 -59l107 59l214 -114v-123l100 -58v-225l-100 -60v-121l-214 -114l-107 58l-110 -58l-215 114v121zM454 68h76l4 5v215h189l7 3l17 70l-2 6h-211v137h245l5 4v71l-5 5h-325l-4 -5v-506z" />
    <glyph glyph-name="zero.tnum" 
d="M56 491q0 52 18.5 89t49 60t70 34t80.5 11t80.5 -11t70 -34t49 -60t18.5 -89v-309q0 -52 -18.5 -89t-49 -60t-70 -34t-80.5 -11t-80.5 11t-70 34t-49 60t-18.5 89v309zM138 201q0 -71 38.5 -105t97.5 -34q29 0 54 8.5t43 25.5t28.5 43t10.5 62v271q0 36 -10.5 62
t-28.5 43t-43 25.5t-54 8.5q-59 0 -97.5 -34t-38.5 -105v-271z" />
    <glyph glyph-name="one.tnum" 
d="M67 69l5 5h162v527h-116l-6 5l-18 64l4 5h213l5 -5v-596h166l4 -5l-18 -64l-6 -5h-390l-5 5v64z" />
    <glyph glyph-name="two.tnum" 
d="M63 49q0 31 24 64t59.5 67.5t77 70.5t77 74.5t59.5 79.5t24 85q0 26 -9 48t-25.5 38.5t-38.5 25.5t-48 9q-44 0 -77.5 -23.5t-57.5 -58.5h-7l-53 38l-1 8q19 30 48 55q24 20 61.5 37.5t88.5 17.5q36 0 72 -11t65.5 -35t47.5 -61t18 -88q0 -48 -22 -93t-55 -86t-71.5 -77
t-73 -66t-59 -54t-28.5 -40h322l4 -5l-17 -64l-6 -5h-385l-4 5z" />
    <glyph glyph-name="three.tnum" 
d="M54 111l51 38h7q16 -25 39 -44q20 -17 49 -30t68 -13q27 0 52.5 8.5t45 24t31.5 39t12 53.5v14q0 57 -43 87.5t-122 30.5h-44l-4 5l17 64l6 5h25q83 0 115.5 30t32.5 79q0 30 -10.5 50.5t-28 33.5t-41 19t-49.5 6q-35 0 -62 -11.5t-44 -25.5q-21 -16 -35 -36h-8l-50 38
l-1 7q19 28 48 51q25 19 62 35t90 16q46 0 84.5 -12t66.5 -35.5t44 -57.5t16 -78q0 -22 -6 -44.5t-18 -43t-29 -36t-38 -24.5q50 -16 79 -54.5t29 -83.5v-41q0 -45 -18.5 -79.5t-49.5 -58.5t-70.5 -36.5t-81.5 -12.5q-60 0 -101 17.5t-67 39.5q-31 26 -50 58z" />
    <glyph glyph-name="four.tnum" 
d="M38 185l-17 51l311 431l6 4l62 10l5 -4v-423h124l4 -5l-18 -64l-6 -5h-104v-170l-5 -6l-72 -10l-5 4v182h-280zM323 254v241l2 34l-17 -29l-167 -228l-15 -18h197z" />
    <glyph glyph-name="five.tnum" 
d="M54 111l51 38h7q16 -25 39 -44q20 -17 49.5 -30t69.5 -13q26 0 51.5 8.5t45 24.5t31.5 39t12 52v29q0 29 -12 52t-31.5 38.5t-45 24t-51.5 8.5t-46.5 -4.5t-36.5 -9.5q-18 -6 -33 -13h-5l-33 44v315l6 5h333l4 -5l-18 -64l-6 -5h-237v-197q11 2 23 4q11 2 24 3t27 1
q41 0 80.5 -12.5t70.5 -36t50 -58t19 -79.5v-53q0 -44 -19 -78.5t-50 -58t-70.5 -36t-80.5 -12.5q-60 0 -101 17.5t-67 39.5q-31 26 -51 58z" />
    <glyph glyph-name="six.tnum" 
d="M62 489q0 43 18 79t48.5 62t71 40.5t85.5 14.5q52 0 90 -17.5t62 -37.5q28 -25 47 -55v-7l-52 -39h-8q-16 23 -37 41q-18 15 -43.5 28t-58.5 13q-26 0 -51 -7t-45 -22.5t-32.5 -42t-12.5 -65.5v-75l-6 -47q1 3 8 16t23.5 26.5t44.5 24.5t71 11q38 0 76 -10.5t68 -34
t48.5 -61t18.5 -91.5v-51q0 -52 -18.5 -89t-49 -60t-69.5 -34t-80 -11t-80 11t-69.5 34t-49 60t-18.5 89v307zM144 200q0 -71 39 -104.5t96 -33.5q29 0 54 8t43 25t28 43t10 62v15q0 35 -10.5 61t-28.5 43.5t-42 26t-52 8.5q-29 0 -50.5 -2.5t-37.5 -7t-28 -10t-21 -11.5
v-123z" />
    <glyph glyph-name="seven.tnum" 
d="M405 601h-340l-6 4l-20 65l3 5h450l4 -5l9 -39l-300 -635l-6 -3l-73 17l-3 5z" />
    <glyph glyph-name="eight.tnum" 
d="M58 182q0 25 7.5 51t21 48t33 39t44.5 25q-19 7 -35.5 21.5t-29 34t-19.5 43t-7 49.5q0 95 55.5 143.5t147.5 48.5q90 0 145 -48.5t55 -143.5q0 -26 -7 -49.5t-19 -43t-28.5 -34t-35.5 -21.5q25 -8 44.5 -25t33 -39t20.5 -48t7 -51q0 -52 -18 -88.5t-48 -60t-69 -34.5
t-80 -11t-80.5 11t-70 34.5t-49 60t-18.5 88.5zM276 378q57 0 88 30.5t31 83.5q0 56 -31 87.5t-88 31.5q-59 0 -90 -31.5t-31 -87.5q0 -53 31 -83.5t90 -30.5zM140 184q0 -60 38.5 -91t97.5 -31q57 0 95 31.5t38 90.5q0 57 -38 90.5t-95 33.5q-29 0 -54 -8.5t-43 -25
t-28.5 -39.5t-10.5 -51z" />
    <glyph glyph-name="nine.tnum" 
d="M66 105l52 39h8q15 -23 36 -41q18 -16 44 -28.5t59 -12.5q25 0 50.5 7t45.5 22.5t32.5 42t12.5 65.5v75l6 47q-10 -22 -29 -39q-17 -15 -45 -27t-73 -12q-38 0 -76 10.5t-68 34t-48.5 61t-18.5 91.5v51q0 52 18.5 89t49 60t69.5 34t80 11t80 -11t69.5 -34t49 -60
t18.5 -89v-307q0 -43 -18 -79t-48.5 -62t-71 -40.5t-85.5 -14.5q-53 0 -90.5 17t-61.5 38q-28 24 -47 55v7zM269 319q29 0 50.5 2.5t37.5 7t28 10t21 11.5v123q0 71 -39 104.5t-96 33.5q-59 0 -97 -33.5t-38 -104.5v-15q0 -35 10.5 -61.5t28.5 -43.5t42 -25.5t52 -8.5z" />
    <glyph glyph-name="parenleft.case" horiz-adv-x="280" 
d="M216 -70q-38 31 -68 86q-26 48 -47 126t-21 197q0 118 21 196t47 126q30 55 68 86h7l40 -44l-1 -7q-29 -33 -51 -83q-20 -43 -35.5 -110t-15.5 -164t15.5 -164.5t35.5 -110.5q23 -50 52 -83l-1 -7l-39 -43l-7 -1v0z" />
    <glyph glyph-name="parenright.case" horiz-adv-x="280" 
d="M17 -19q28 33 51 83q20 43 36 110.5t16 164.5t-16 164t-35 110q-23 50 -51 83l-1 7l40 44h7q38 -31 68 -86q26 -48 47 -126t21 -196q0 -119 -21 -197t-47 -126q-30 -55 -68 -86l-7 1l-39 43l-1 7v0z" />
    <glyph glyph-name="bracketleft.case" horiz-adv-x="274" 
d="M87 730l5 5h172l4 -5l-19 -58l-6 -5h-79v-657h79l6 -5l19 -58l-4 -5h-172l-5 5v783z" />
    <glyph glyph-name="bracketright.case" horiz-adv-x="274" 
d="M31 10h79v657h-79l-6 5l-19 58l4 5h172l5 -5v-783l-5 -5h-172l-4 5l19 58z" />
    <glyph glyph-name="braceleft.case" horiz-adv-x="334" 
d="M125 227q0 42 -18 71t-75 37l-4 5l18 60l7 5q45 11 58.5 38t13.5 65v67q0 74 49 119t138 45h23l4 -5l-18 -58l-6 -5q-51 0 -83 -27.5t-32 -86.5v-47q0 -50 -21.5 -88.5t-64.5 -55.5q42 -18 64 -53t22 -82v-106q0 -60 32 -88t83 -28l6 -5l18 -58l-4 -5h-23
q-89 0 -138 45.5t-49 120.5v120z" />
    <glyph glyph-name="braceright.case" horiz-adv-x="332" 
d="M19 9q51 0 83 28t32 88v106q0 47 22 82t64 53q-43 17 -64.5 55.5t-21.5 88.5v47q0 59 -32 86.5t-83 27.5l-6 5l-18 58l4 5h23q89 0 138 -45t49 -119v-67q0 -25 4 -42.5t14 -30t28 -21t45 -14.5l4 -7l-18 -57l-7 -5q-43 -12 -56.5 -40t-13.5 -64v-120q0 -75 -49 -120.5
t-138 -45.5h-23l-4 5l18 58z" />
    <glyph glyph-name="bullet.case" horiz-adv-x="464" 
d="M231 191q-30 0 -60.5 9t-54.5 27t-39 46t-15 67v36q0 38 15 66.5t39 47t54.5 28t60.5 9.5q31 0 61.5 -9.5t55 -28t39.5 -47t15 -66.5v-36q0 -39 -15 -67t-39.5 -46t-55 -27t-61.5 -9z" />
    <glyph glyph-name="hyphen.case" horiz-adv-x="446" 
d="M94 319v70l5 5h257l4 -5l-18 -70l-6 -5h-237z" />
    <glyph glyph-name="glyph303" horiz-adv-x="200" 
d="M76 -47h78l5 -4l-72 -152l-7 -3l-34 7l-5 6l29 142z" />
    <glyph glyph-name="endash.case" horiz-adv-x="685" 
d="M94 322v63l5 5h492l4 -5l-12 -63l-6 -5h-478z" />
    <glyph glyph-name="emdash.case" horiz-adv-x="883" 
d="M94 322v63l5 5h690l4 -5l-12 -63l-6 -5h-676z" />
    <glyph glyph-name="dollar.tnum" 
d="M69 60l35 52l9 1q10 -9 27 -17t36 -14.5t38.5 -10.5t36.5 -4v244q-30 12 -59 25.5t-52.5 33.5t-37.5 49.5t-14 71.5q0 40 12.5 72t34.5 55.5t52 38.5t64 20v52l5 6l48 7l5 -4v-59q33 -2 59.5 -8.5t45.5 -14.5t31 -15.5t15 -10.5l1 -7l-32 -53l-8 -1q-19 14 -48.5 24
t-63.5 12v-230q30 -12 59 -26t52.5 -35.5t38 -52t14.5 -75.5q0 -46 -14 -79t-36.5 -55.5t-52.5 -35.5t-61 -18v-70l-5 -5h-48l-5 5v65q-18 0 -41 4t-47.5 11t-48.5 18.5t-43 26.5zM251 601q-41 -11 -61 -40t-20 -67q0 -37 23 -58.5t58 -36.5v202zM309 74q35 11 58.5 37.5
t23.5 73.5q0 40 -23.5 63t-58.5 39v-213z" />
    <glyph glyph-name="cent.tnum" 
d="M261 79q-36 4 -69 17t-58 36.5t-40 58t-15 81.5v131q0 47 15 81t40 57.5t58 36t69 16.5v74l5 6l48 7l5 -4v-82q54 -5 100.5 -28t71.5 -70l-3 -6l-64 -27l-7 2q-15 23 -41 36.5t-57 17.5v-367q31 4 57 17.5t41 37.5l7 2l63 -27l3 -6q-25 -48 -71 -71t-100 -27v-74l-5 -5
h-48l-5 5v74zM261 519q-45 -8 -72.5 -40.5t-27.5 -92.5v-97q0 -61 27.5 -93.5t72.5 -40.5v364z" />
    <glyph glyph-name="sterling.tnum" 
d="M37 54q17 0 30 5q11 4 21.5 13t12.5 26l29 220h-82l-5 5v62l5 5h90l17 129q11 78 56 122t118 44q45 0 73 -15t52 -37l1 -7l-33 -54l-7 -2l-7 6.5t-18.5 14t-27.5 14t-34 6.5q-14 0 -29 -5.5t-28 -18.5t-23 -34t-14 -52l-15 -111h162l4 -5l-18 -62l-6 -5h-151l-25 -197
l-12 -50l28 3q21 0 41.5 -7t41 -15t41.5 -15t44 -7q15 0 29.5 4.5t26.5 14t19.5 25.5t7.5 40q0 11 -2 20t-4 16q-3 8 -6 15l4 6l62 12l7 -3q5 -17 9 -33t4 -36q0 -40 -12 -69t-32.5 -48t-47.5 -28.5t-56 -9.5q-24 0 -47.5 7t-47.5 15t-47.5 15t-47.5 7q-17 0 -38 -3t-40 -6
q-22 -4 -45 -8l-6 3l-25 62z" />
    <glyph glyph-name="Euro.tnum" 
d="M18 228v60l5 5h73v83h-73l-5 5v60l5 5h73q1 58 20.5 103t53 75t80.5 45.5t103 15.5q36 0 64 -6t48 -13.5t32.5 -15.5t15.5 -11l1 -7l-22 -63l-8 -1q-21 16 -54.5 28.5t-72.5 12.5q-79 0 -126.5 -41.5t-52.5 -121.5h288l4 -5l-16 -60l-6 -5h-270v-83h250l4 -5l-15 -60
l-6 -5h-233q6 -81 55.5 -120t124.5 -39q42 0 78.5 15t57.5 31l8 -1l20 -63l-1 -7q-3 -3 -15.5 -11.5t-33.5 -17.5t-49.5 -15.5t-64.5 -6.5q-57 0 -104.5 15t-82 44.5t-54.5 73.5t-21 102h-73z" />
    <glyph glyph-name="yen.tnum" 
d="M82 187v60l5 5h155v44l-29 52h-126l-5 5v60l5 5h88l-135 245l5 7l82 11l6 -4l134 -266l16 -39l17 39l127 252l5 6l89 12l6 -4l-138 -259h112l4 -5l-17 -60l-6 -5h-131l-27 -52v-44h155l4 -5l-17 -60l-6 -5h-136v-177l-5 -5h-72l-5 5v177h-155z" />
    <glyph glyph-name="space.salt" horiz-adv-x="275" 
 />
    <glyph glyph-name="comma.salt" horiz-adv-x="275" 
d="M97 99l6 5h105l3 -5l-106 -224l-7 -4l-39 12l-4 7z" />
    <glyph glyph-name="period.salt" horiz-adv-x="275" 
d="M87 99l5 5h92l5 -5v-94l-5 -5h-92l-5 5v94z" />
    <glyph glyph-name="hyphen.salt" horiz-adv-x="275" 
d="M19 319v70l5 5h232l4 -5l-18 -70l-6 -5h-212z" />
    </font>
</defs>
</svg>
